<svg width="394" height="260" viewBox="0 0 394 260" fill="none" xmlns="http://www.w3.org/2000/svg">
<path d="M112.6 147.6V170.4H95.8V192H68.8V170.4H3.2V163.2L44 60H71.8L36.8 147.6H68.8V110.6H95.8V147.6H112.6ZM384.394 148.8C384.394 161.867 379.527 172.733 369.794 181.4C360.194 190.067 348.46 194.4 334.594 194.4C323.927 194.4 314.394 191.733 305.994 186.4C297.594 181.067 291.127 173.733 286.594 164.4L305.394 151.2C309.527 157.467 313.794 162.067 318.194 165C322.727 167.933 327.927 169.4 333.794 169.4C340.594 169.4 346.127 167.6 350.394 164C354.66 160.267 356.794 155.267 356.794 149C356.794 142.867 354.46 138.2 349.794 135C345.26 131.667 338.594 130 329.794 130H313.194V123L340.794 84.4H296.794V60H381.794V67.2L352.594 108.4C361.394 110.667 368.927 115.4 375.194 122.6C381.327 129.533 384.394 138.267 384.394 148.8Z" fill="#81B751"/>
<path d="M196.529 57.562C195.278 56.8127 193.725 56.8127 192.473 57.5618C192.064 57.8057 184.926 62.4149 178.293 69.2727C182.917 71.4971 188.887 74.9467 194.506 79.5894C200.121 74.9483 206.089 71.4987 210.712 69.2749C204.078 62.4152 196.938 57.8057 196.529 57.562Z" fill="#81B751"/>
<path d="M225.344 74.6192C224.282 73.4105 222.586 72.9586 221.088 73.4799C220.557 73.6613 211.082 76.9643 202.043 83.6531C204.743 85.5616 212.446 91.3958 219.159 100.055C226.725 96.442 233.709 94.6933 237.193 93.9874C232.716 83.159 225.737 75.069 225.344 74.6192Z" fill="#81B751"/>
<path d="M167.926 73.479C166.431 72.9694 164.732 73.4134 163.669 74.6223C163.277 75.0695 156.297 83.1621 151.82 93.9908C155.341 94.7054 162.31 96.4588 169.844 100.055C176.564 91.3887 184.273 85.5536 186.967 83.6491C177.93 76.9629 168.456 73.6604 167.926 73.479Z" fill="#81B751"/>
<path d="M196.711 89.5782C195.375 88.6823 193.637 88.6823 192.3 89.5782C191.847 89.882 183.797 95.3684 176.867 103.937C180.214 106.064 183.472 108.612 186.434 111.639C189.138 109.855 190.996 108.681 194.506 108.681C198.005 108.681 199.89 109.865 202.581 111.64C205.543 108.612 208.8 106.064 212.146 103.937C205.216 95.3692 197.164 89.882 196.711 89.5782Z" fill="#81B751"/>
<path d="M244.763 103.906C244.091 102.172 242.299 101.148 240.464 101.423C239.543 101.568 221.208 104.601 209.004 116.398C212.727 119.401 217.013 123.402 220.812 128.252C229.672 125 238.889 122.711 248.29 121.526L248.602 121.487C247.717 111.83 244.934 104.344 244.763 103.906Z" fill="#81B751"/>
<path d="M148.533 101.423C146.706 101.149 144.906 102.172 144.234 103.906C144.064 104.345 141.279 111.836 140.395 121.497L140.738 121.53C150.125 122.713 159.332 125 168.187 128.251C171.986 123.403 176.27 119.402 179.996 116.397C167.792 104.601 149.454 101.568 148.533 101.423Z" fill="#81B751"/>
<path d="M196.521 117.15C195.27 116.401 193.717 116.401 192.466 117.15C191.953 117.454 182.879 122.959 175.672 131.467C182.187 134.349 188.543 137.597 194.494 141.556C200.443 137.597 206.8 134.35 213.316 131.467C206.109 122.958 197.034 117.454 196.521 117.15Z" fill="#81B751"/>
<path d="M213.926 180.837C211.712 169.915 199.403 160.273 194.486 156.905C189.496 160.32 176.909 170.181 174.958 181.293C174.489 183.975 174.745 186.553 175.614 189.078C181.55 190.945 187.883 192 194.486 192C201.074 192 207.393 190.95 213.319 189.092C214.244 186.417 214.505 183.689 213.926 180.837Z" fill="#81B751"/>
<path d="M139.723 129.375C138.653 129.235 137.548 129.556 136.71 130.251C135.868 130.943 135.35 131.955 135.281 133.044C133.861 155.516 146.952 175.766 166.898 185.6C166.777 183.728 166.848 181.832 167.187 179.906C169.977 164.09 187.769 151.766 191.693 149.278C176.229 138.613 158.414 131.731 139.723 129.375Z" fill="#81B751"/>
<path d="M253.723 133.044C253.654 131.955 253.136 130.943 252.294 130.251C251.456 129.556 250.371 129.235 249.281 129.375C230.594 131.731 212.776 138.612 197.312 149.278C201.183 151.731 218.536 163.756 221.689 179.242C222.131 181.407 222.177 183.53 222.038 185.631C242.015 175.812 255.145 155.55 253.723 133.044Z" fill="#81B751"/>
</svg>
