<!--
  - Изменено: 06 декабря 2021, понедельник
  - Автор: Артамонов Денис <software.engineer@internet.ru>
  - copyright (c) 2021
  -->

<svg width="57" height="23" viewBox="0 0 57 23" fill="none" xmlns="http://www.w3.org/2000/svg">
    <path d="M10.897 2.97118C10.2468 3.74752 9.20641 4.35985 8.16604 4.27238C8.03599 3.22267 8.54534 2.10735 9.14139 1.41848C9.79162 0.620265 10.9295 0.0516724 11.8507 0.00793457C11.9591 1.10138 11.5364 2.17296 10.897 2.97118ZM11.8398 4.48013C10.3335 4.39266 9.04385 5.34395 8.3286 5.34395C7.60251 5.34395 6.50795 4.52387 5.31586 4.54574C3.76614 4.56761 2.3248 5.4533 1.53369 6.86385C-0.0918906 9.68494 1.11104 13.8619 2.68243 16.1581C3.45187 17.2953 4.37303 18.5419 5.58679 18.4981C6.73553 18.4544 7.19069 17.7436 8.57785 17.7436C9.97585 17.7436 10.3768 18.4981 11.5906 18.4762C12.8477 18.4544 13.6388 17.3391 14.4083 16.2019C15.2861 14.9116 15.6437 13.6541 15.6654 13.5885C15.6437 13.5667 13.2378 12.6372 13.2162 9.83802C13.1945 7.49804 15.1127 6.38273 15.1994 6.31712C14.1157 4.69882 12.425 4.52387 11.8398 4.48013ZM20.5421 1.30914V18.356H23.1647V12.5279H26.7951C30.1113 12.5279 32.4413 10.2317 32.4413 6.90758C32.4413 3.58351 30.1547 1.30914 26.8818 1.30914H20.5421ZM23.1647 3.53977H26.1883C28.4641 3.53977 29.7645 4.76443 29.7645 6.91852C29.7645 9.07261 28.4641 10.3082 26.1774 10.3082H23.1647V3.53977ZM37.2313 18.4872C38.8786 18.4872 40.4066 17.6452 41.1002 16.3112H41.1544V18.356H43.5819V9.87082C43.5819 7.41057 41.6312 5.82507 38.6293 5.82507C35.8442 5.82507 33.7851 7.43244 33.7093 9.6412H36.0718C36.2668 8.59149 37.2313 7.90262 38.5535 7.90262C40.1574 7.90262 41.0569 8.6571 41.0569 10.0458V10.9861L37.784 11.183C34.7388 11.3688 33.0915 12.6263 33.0915 14.8132C33.0915 17.022 34.793 18.4872 37.2313 18.4872ZM37.9358 16.4643C36.5378 16.4643 35.6491 15.7864 35.6491 14.7476C35.6491 13.676 36.5053 13.0528 38.1417 12.9543L41.0569 12.7685V13.7307C41.0569 15.3271 39.7131 16.4643 37.9358 16.4643ZM46.8223 22.9922C49.3798 22.9922 50.5828 22.0081 51.634 19.023L56.2398 5.98909H53.5738L50.4852 16.0597H50.431L47.3424 5.98909H44.6006L49.0439 18.3997L48.8055 19.1542C48.4045 20.4335 47.7542 20.9256 46.5947 20.9256C46.3888 20.9256 45.9878 20.9037 45.8252 20.8818V22.9266C45.977 22.9703 46.6272 22.9922 46.8223 22.9922Z"
          fill="white"/>
</svg>
