<svg width="27" height="26" viewBox="0 0 27 26" fill="none" xmlns="http://www.w3.org/2000/svg">
<g clip-path="url(#clip0_1341_5)">
<path d="M20.4283 6.9352H16.6019V5.81637C16.6019 4.62945 16.0644 3.49114 15.1076 2.65185C14.1508 1.81257 12.8531 1.34106 11.5 1.34106C10.1469 1.34106 8.84926 1.81257 7.89247 2.65185C6.93569 3.49114 6.39818 4.62945 6.39818 5.81637V6.9352H2.57179C2.23351 6.9352 1.9091 7.05308 1.6699 7.2629C1.4307 7.47272 1.29633 7.7573 1.29633 8.05403V20.3611C1.29633 21.2513 1.69946 22.1051 2.41705 22.7345C3.13464 23.364 4.10789 23.7176 5.12271 23.7176H17.8773C18.8922 23.7176 19.8654 23.364 20.583 22.7345C21.3006 22.1051 21.7037 21.2513 21.7037 20.3611V8.05403C21.7037 7.7573 21.5694 7.47272 21.3302 7.2629C21.091 7.05308 20.7665 6.9352 20.4283 6.9352ZM8.9491 5.81637C8.9491 5.22291 9.21786 4.65375 9.69625 4.23411C10.1746 3.81447 10.8235 3.57872 11.5 3.57872C12.1766 3.57872 12.8254 3.81447 13.3038 4.23411C13.7822 4.65375 14.051 5.22291 14.051 5.81637V6.9352H8.9491V5.81637ZM19.1528 20.3611C19.1528 20.6579 19.0184 20.9424 18.7792 21.1523C18.54 21.3621 18.2156 21.48 17.8773 21.48H5.12271C4.78444 21.48 4.46002 21.3621 4.22083 21.1523C3.98163 20.9424 3.84725 20.6579 3.84725 20.3611V9.17285H6.39818V10.2917C6.39818 10.5884 6.53256 10.873 6.77175 11.0828C7.01095 11.2926 7.33537 11.4105 7.67364 11.4105C8.01191 11.4105 8.33633 11.2926 8.57553 11.0828C8.81472 10.873 8.9491 10.5884 8.9491 10.2917V9.17285H14.051V10.2917C14.051 10.5884 14.1853 10.873 14.4245 11.0828C14.6637 11.2926 14.9881 11.4105 15.3264 11.4105C15.6647 11.4105 15.9891 11.2926 16.2283 11.0828C16.4675 10.873 16.6019 10.5884 16.6019 10.2917V9.17285H19.1528V20.3611Z" fill="#81B751" stroke="white" stroke-width="0.3"/>
</g>
<defs>
<clipPath id="clip0_1341_5">
<rect width="27" height="26" fill="white"/>
</clipPath>
</defs>
</svg>
