<svg width="26" height="26" viewBox="0 0 26 26" fill="none" xmlns="http://www.w3.org/2000/svg">
<path d="M19.9333 6.06667L19.175 6.825M3.25 13H4.33333H3.25ZM13 3.25V4.33333V3.25ZM21.6667 13H22.75H21.6667ZM6.06667 6.06667L6.825 6.825L6.06667 6.06667Z" stroke="#EB96B4" stroke-width="2" stroke-linecap="round" stroke-linejoin="round"/>
<path d="M9.74967 17.3333C8.84018 16.6512 8.16837 15.7002 7.82939 14.6151C7.49042 13.5299 7.50147 12.3656 7.86097 11.2871C8.22048 10.2086 8.91022 9.27052 9.83249 8.60578C10.7548 7.94105 11.8628 7.58334 12.9997 7.58334C14.1365 7.58334 15.2446 7.94105 16.1669 8.60578C17.0891 9.27052 17.7789 10.2086 18.1384 11.2871C18.4979 12.3656 18.5089 13.5299 18.17 14.6151C17.831 15.7002 17.1592 16.6512 16.2497 17.3333C15.8267 17.752 15.5082 18.2644 15.32 18.829C15.1318 19.3936 15.0792 19.9946 15.1663 20.5833C15.1663 21.158 14.9381 21.7091 14.5317 22.1154C14.1254 22.5217 13.5743 22.75 12.9997 22.75C12.425 22.75 11.8739 22.5217 11.4676 22.1154C11.0613 21.7091 10.833 21.158 10.833 20.5833C10.9202 19.9946 10.8675 19.3936 10.6793 18.829C10.4911 18.2644 10.1726 17.752 9.74967 17.3333" stroke="#EB96B4" stroke-width="2" stroke-linecap="round" stroke-linejoin="round"/>
<path d="M10.5088 18.4167H15.4921" stroke="#EB96B4" stroke-width="2" stroke-linecap="round" stroke-linejoin="round"/>
</svg>
