<svg width="18" height="18" viewBox="0 0 18 18" fill="none" xmlns="http://www.w3.org/2000/svg">
<path d="M3.16839 1.52401L9.00039 7.35601L14.8084 1.54801C14.9102 1.43967 15.0328 1.35301 15.1689 1.29321C15.305 1.23341 15.4517 1.20171 15.6004 1.20001C15.9187 1.20001 16.2239 1.32644 16.4489 1.55148C16.674 1.77653 16.8004 2.08175 16.8004 2.40001C16.8032 2.54713 16.7759 2.69328 16.7202 2.82947C16.6645 2.96566 16.5815 3.08903 16.4764 3.19201L10.6084 9.00001L16.4764 14.868C16.6742 15.0615 16.7901 15.3235 16.8004 15.6C16.8004 15.9183 16.674 16.2235 16.4489 16.4485C16.2239 16.6736 15.9187 16.8 15.6004 16.8C15.4475 16.8064 15.2949 16.7808 15.1523 16.7251C15.0098 16.6693 14.8804 16.5845 14.7724 16.476L9.00039 10.644L3.18039 16.464C3.079 16.5687 2.95787 16.6523 2.82399 16.71C2.69012 16.7677 2.54615 16.7983 2.40039 16.8C2.08213 16.8 1.77691 16.6736 1.55186 16.4485C1.32682 16.2235 1.20039 15.9183 1.20039 15.6C1.19759 15.4529 1.22489 15.3067 1.2806 15.1706C1.33632 15.0344 1.41928 14.911 1.52439 14.808L7.39239 9.00001L1.52439 3.13201C1.32661 2.93852 1.21064 2.67651 1.20039 2.40001C1.20039 2.08175 1.32682 1.77653 1.55186 1.55148C1.77691 1.32644 2.08213 1.20001 2.40039 1.20001C2.68839 1.20361 2.96439 1.32001 3.16839 1.52401Z" fill="#81B751"/>
</svg>
