<svg width="16" height="16" viewBox="0 0 16 16" fill="none" xmlns="http://www.w3.org/2000/svg">
<path d="M10.2599 12.8C10.3321 12.733 10.3905 12.6525 10.4316 12.563C10.4727 12.4735 10.4958 12.3767 10.4995 12.2783C10.5032 12.1799 10.4875 12.0817 10.4532 11.9893C10.419 11.8969 10.3669 11.8122 10.2999 11.74L6.77291 8L10.2999 4.26C10.3669 4.18777 10.419 4.10306 10.4532 4.0107C10.4874 3.91835 10.5032 3.82015 10.4994 3.72172C10.4957 3.62329 10.4727 3.52655 10.4316 3.43704C10.3905 3.34752 10.3321 3.26697 10.2599 3.2C10.1877 3.13303 10.103 3.08093 10.0106 3.0467C9.91825 3.01246 9.82005 2.99675 9.72162 3.00047C9.62319 3.00418 9.52646 3.02725 9.43694 3.06835C9.34742 3.10945 9.26688 3.16777 9.19991 3.24L5.19991 7.49C5.07128 7.62869 4.99981 7.81085 4.99981 8C4.99981 8.18915 5.07128 8.37131 5.19991 8.51L9.19991 12.76C9.26687 12.8322 9.34742 12.8906 9.43693 12.9317C9.52645 12.9728 9.62319 12.9958 9.72162 12.9996C9.82005 13.0033 9.91825 12.9876 10.0106 12.9533C10.103 12.9191 10.1877 12.867 10.2599 12.8Z" fill="#898989"/>
</svg>
