<!--
  - Изменено: 29 сентября 2021, среда
  - Автор: Артамонов Денис <software.engineer@internet.ru>
  - copyright (c) 2021
  -->

<svg width="16" height="16" viewBox="0 0 16 16" fill="none" xmlns="http://www.w3.org/2000/svg">
    <path d="M2.16741 0.524012L7.99941 6.35601L13.8074 0.548012C13.9092 0.439673 14.0318 0.353006 14.1679 0.293207C14.304 0.233408 14.4508 0.201709 14.5994 0.200012C14.9177 0.200012 15.2229 0.32644 15.4479 0.551484C15.673 0.776528 15.7994 1.08175 15.7994 1.40001C15.8022 1.54713 15.7749 1.69328 15.7192 1.82947C15.6635 1.96566 15.5805 2.08903 15.4754 2.19201L9.60741 8.00001L15.4754 13.868C15.6732 14.0615 15.7892 14.3235 15.7994 14.6C15.7994 14.9183 15.673 15.2235 15.4479 15.4485C15.2229 15.6736 14.9177 15.8 14.5994 15.8C14.4465 15.8064 14.2939 15.7808 14.1514 15.7251C14.0088 15.6693 13.8794 15.5845 13.7714 15.476L7.99941 9.64401L2.17941 15.464C2.07802 15.5687 1.95689 15.6523 1.82302 15.71C1.68914 15.7677 1.54517 15.7983 1.39941 15.8C1.08115 15.8 0.77593 15.6736 0.550886 15.4485C0.325842 15.2235 0.199414 14.9183 0.199414 14.6C0.196616 14.4529 0.223913 14.3067 0.279628 14.1706C0.335343 14.0344 0.418303 13.911 0.523414 13.808L6.39141 8.00001L0.523414 2.13201C0.325636 1.93852 0.209662 1.67651 0.199414 1.40001C0.199414 1.08175 0.325842 0.776528 0.550886 0.551484C0.77593 0.32644 1.08115 0.200012 1.39941 0.200012C1.68741 0.203612 1.96341 0.320012 2.16741 0.524012Z"
          fill="white"/>
</svg>
