<!--
  - Изменено: 11 сентября 2021, суббота
  - Автор: Артамонов Денис <software.engineer@internet.ru>
  - copyright (c) 2021
  -->

<svg width="16" height="16" viewBox="0 0 16 16" fill="none" xmlns="http://www.w3.org/2000/svg">
    <path d="M2.16802 0.524195L8.00002 6.3562L13.808 0.548195C13.9098 0.439856 14.0324 0.353189 14.1685 0.29339C14.3046 0.233591 14.4514 0.201893 14.6 0.200195C14.9183 0.200195 15.2235 0.326623 15.4486 0.551667C15.6736 0.776711 15.8 1.08194 15.8 1.4002C15.8028 1.54732 15.7755 1.69346 15.7198 1.82965C15.6641 1.96585 15.5811 2.08922 15.476 2.1922L9.60802 8.0002L15.476 13.8682C15.6738 14.0617 15.7898 14.3237 15.8 14.6002C15.8 14.9185 15.6736 15.2237 15.4486 15.4487C15.2235 15.6738 14.9183 15.8002 14.6 15.8002C14.4471 15.8065 14.2945 15.781 14.152 15.7252C14.0094 15.6695 13.88 15.5847 13.772 15.4762L8.00002 9.6442L2.18002 15.4642C2.07863 15.5689 1.9575 15.6525 1.82363 15.7102C1.68975 15.7679 1.54578 15.7985 1.40002 15.8002C1.08176 15.8002 0.77654 15.6738 0.551496 15.4487C0.326453 15.2237 0.200024 14.9185 0.200024 14.6002C0.197227 14.4531 0.224523 14.3069 0.280238 14.1707C0.335954 14.0345 0.418913 13.9112 0.524024 13.8082L6.39202 8.0002L0.524024 2.1322C0.326246 1.93871 0.210272 1.67669 0.200024 1.4002C0.200024 1.08194 0.326453 0.776711 0.551496 0.551667C0.77654 0.326623 1.08176 0.200195 1.40002 0.200195C1.68802 0.203795 1.96402 0.320195 2.16802 0.524195Z"
          fill="#81B751"/>
</svg>
