<svg width="31" height="31" viewBox="0 0 31 31" fill="none" xmlns="http://www.w3.org/2000/svg">
<path d="M25.0904 5.91785C23.8332 4.64828 22.3376 3.63961 20.6895 2.94979C19.0414 2.25997 17.2732 1.9026 15.4865 1.8982C13.6998 1.8938 11.9299 2.24247 10.2784 2.92417C8.6269 3.60586 7.12636 4.60716 5.86299 5.87053C4.59962 7.13389 3.59833 8.63443 2.91663 10.2859C2.23493 11.9375 1.88627 13.7074 1.89067 15.494C1.89506 17.2807 2.25244 19.0489 2.94226 20.697C3.63207 22.3452 4.64074 23.8408 5.91031 25.0979C7.16745 26.3675 8.66304 27.3761 10.3112 28.066C11.9593 28.7558 13.7275 29.1131 15.5142 29.1175C17.3008 29.1219 19.0708 28.7733 20.7223 28.0916C22.3738 27.4099 23.8743 26.4086 25.1377 25.1452C26.401 23.8819 27.4023 22.3813 28.084 20.7298C28.7657 19.0783 29.1144 17.3084 29.11 15.5217C29.1056 13.735 28.7482 11.9668 28.0584 10.3187C27.3686 8.67058 26.3599 7.17498 25.0904 5.91785ZM3.87533 15.5079C3.8749 14.479 4.01131 13.4547 4.281 12.4618C4.72541 13.4184 5.37084 14.2449 5.8098 15.2263C6.37713 16.4881 7.90049 16.1382 8.57316 17.2438C9.17016 18.2252 8.5326 19.4664 8.97943 20.4933C9.30397 21.2386 10.0693 21.4015 10.5972 21.9464C11.1367 22.4962 11.1252 23.2494 11.2076 23.9663C11.3005 24.8086 11.4512 25.6434 11.6586 26.465C11.6586 26.4711 11.6586 26.4778 11.6635 26.4838C7.13275 24.8926 3.87533 20.5738 3.87533 15.5079ZM15.5003 27.1329C14.8511 27.1327 14.203 27.0784 13.5628 26.9706C13.5695 26.8065 13.5725 26.6533 13.5889 26.5468C13.736 25.5841 14.2179 24.6426 14.8682 23.9221C15.5106 23.2113 16.391 22.7305 16.9335 21.924C17.4651 21.1369 17.6243 20.0773 17.4051 19.1576C17.0824 17.799 15.2363 17.3455 14.241 16.6086C13.6688 16.1848 13.1596 15.5297 12.4082 15.4764C12.0619 15.4522 11.7719 15.5266 11.4286 15.4382C11.1137 15.3565 10.8667 15.187 10.5312 15.2312C9.90459 15.3135 9.50922 15.9832 8.83594 15.8923C8.19717 15.807 7.53902 15.0592 7.39371 14.4507C7.20723 13.6685 7.82602 13.4148 8.489 13.3451C8.7657 13.3161 9.07631 13.2846 9.34211 13.3863C9.69207 13.5159 9.85736 13.8586 10.1716 14.0317C10.7607 14.3551 10.88 13.8386 10.7898 13.3155C10.6548 12.532 10.4973 12.2129 11.1961 11.6734C11.6804 11.3017 12.0946 11.0329 12.0171 10.365C11.9711 9.97267 11.7561 9.79527 11.9565 9.40475C12.1085 9.10746 12.5257 8.83924 12.7975 8.66183C13.4993 8.2041 15.8037 8.23801 14.8622 6.95683C14.5855 6.58084 14.0751 5.90877 13.5907 5.81674C12.9852 5.7023 12.7164 6.37801 12.2944 6.6759C11.8584 6.98408 11.0096 7.33404 10.573 6.85754C9.98572 6.21635 10.9623 6.00625 11.1785 5.5582C11.2784 5.34931 11.1785 5.05929 11.0102 4.78623C11.2285 4.6942 11.4506 4.60882 11.6762 4.53011C11.8176 4.63456 11.9854 4.69746 12.1606 4.71175C12.5656 4.73839 12.9477 4.51921 13.3013 4.79531C13.6936 5.09804 13.9764 5.4807 14.4971 5.57515C15.0008 5.66658 15.5342 5.37293 15.659 4.85707C15.7346 4.54343 15.659 4.21224 15.5863 3.88832C17.8508 3.90135 20.0615 4.57951 21.9437 5.83853C21.8226 5.79252 21.6779 5.79797 21.4993 5.88091C21.1318 6.05166 20.6111 6.48638 20.5681 6.91748C20.5191 7.4067 21.2408 7.47572 21.5835 7.47572C22.0981 7.47572 22.6194 7.24564 22.4535 6.65107C22.3815 6.39314 22.2834 6.12492 22.1254 5.96265C22.5052 6.22625 22.8692 6.51213 23.2152 6.81879C23.2098 6.82424 23.2043 6.82908 23.1989 6.83513C22.8501 7.19842 22.4451 7.48601 22.2065 7.92801C22.0382 8.23922 21.8487 8.38695 21.5078 8.46748C21.3201 8.51168 21.1058 8.52803 20.9483 8.65396C20.51 8.99908 20.7594 9.82857 21.1748 10.0774C21.6997 10.3917 22.4784 10.2439 22.8743 9.79527C23.1837 9.4441 23.366 8.83439 23.9224 8.835C24.1674 8.83449 24.4027 8.9304 24.5775 9.10201C24.8076 9.34057 24.7622 9.56338 24.8112 9.86127C24.8978 10.3904 25.3646 10.1035 25.6486 9.83644C25.8556 10.2048 26.0423 10.5842 26.208 10.9729C25.8956 11.4228 25.6474 11.9132 24.896 11.3889C24.4461 11.0746 24.1694 10.6187 23.6045 10.477C23.1111 10.3559 22.6055 10.4819 22.1181 10.566C21.5641 10.6623 20.9072 10.7047 20.487 11.1243C20.0807 11.5287 19.8658 12.07 19.4335 12.4763C18.5973 13.2634 18.2443 14.1226 18.7856 15.2354C19.3063 16.3053 20.3955 16.8859 21.5708 16.8096C22.7254 16.7327 23.9248 16.0631 23.8915 17.7408C23.8794 18.3348 24.0035 18.7459 24.1858 19.2975C24.3547 19.8061 24.3432 20.299 24.382 20.8239C24.4188 21.4386 24.5149 22.0483 24.6689 22.6445C23.5837 24.0418 22.1935 25.1726 20.6044 25.9505C19.0154 26.7284 17.2696 27.1328 15.5003 27.1329Z" fill="#81B751"/>
</svg>
