<svg width="35" height="35" viewBox="0 0 35 35" fill="none" xmlns="http://www.w3.org/2000/svg">
<path d="M30.8059 16.4921C30.9684 16.6052 31.1011 16.7559 31.1927 16.9314C31.2843 17.1069 31.3322 17.3019 31.3322 17.4998C31.3322 17.6978 31.2843 17.8928 31.1927 18.0683C31.1011 18.2437 30.9684 18.3944 30.8059 18.5075C28.5236 20.1773 23.4238 23.3332 17.5001 23.3332C11.5763 23.3332 6.47653 20.1773 4.19424 18.5075C4.03179 18.3944 3.8991 18.2437 3.80746 18.0683C3.71583 17.8928 3.66797 17.6978 3.66797 17.4998C3.66797 17.3019 3.71583 17.1069 3.80746 16.9314C3.8991 16.7559 4.03179 16.6052 4.19424 16.4921C6.47653 14.8223 11.5763 11.6665 17.5001 11.6665C23.4238 11.6665 28.5236 14.8223 30.8059 16.4921V16.4921Z" stroke="#81B751" stroke-width="2" stroke-linecap="round" stroke-linejoin="round"/>
<path d="M17.5 23.333V27.708" stroke="#81B751" stroke-width="2" stroke-linecap="round" stroke-linejoin="round"/>
<path d="M27.707 20.4165L30.6237 24.0623" stroke="#81B751" stroke-width="2" stroke-linecap="round" stroke-linejoin="round"/>
<path d="M23.332 22.604L24.7904 26.979" stroke="#81B751" stroke-width="2" stroke-linecap="round" stroke-linejoin="round"/>
<path d="M10.207 26.979L11.6654 22.604" stroke="#81B751" stroke-width="2" stroke-linecap="round" stroke-linejoin="round"/>
<path d="M7.29167 20.4165L4.375 24.0623" stroke="#81B751" stroke-width="2" stroke-linecap="round" stroke-linejoin="round"/>
</svg>
