<svg width="35" height="35" viewBox="0 0 35 35" fill="none" xmlns="http://www.w3.org/2000/svg">
<path d="M30.9989 15.9861C31.6902 16.8903 31.6902 18.1109 30.9989 19.0136C28.8216 21.8559 23.5979 27.7082 17.4991 27.7082C11.4004 27.7082 6.17664 21.8559 3.99935 19.0136C3.66303 18.5807 3.48047 18.0481 3.48047 17.4998C3.48047 16.9516 3.66303 16.419 3.99935 15.9861C6.17664 13.1438 11.4004 7.2915 17.4991 7.2915C23.5979 7.2915 28.8216 13.1438 30.9989 15.9861V15.9861Z" stroke="#81B751" stroke-width="2" stroke-linecap="round" stroke-linejoin="round"/>
<path d="M17.5 21.875C19.9162 21.875 21.875 19.9162 21.875 17.5C21.875 15.0838 19.9162 13.125 17.5 13.125C15.0838 13.125 13.125 15.0838 13.125 17.5C13.125 19.9162 15.0838 21.875 17.5 21.875Z" stroke="#81B751" stroke-width="2" stroke-linecap="round" stroke-linejoin="round"/>
</svg>
