<svg width="100" height="100" viewBox="0 0 100 100" fill="none" xmlns="http://www.w3.org/2000/svg">
<path d="M88.5 30H10.5C7.80761 30 5.625 32.1826 5.625 34.875V44.625C5.625 47.3174 7.80761 49.5 10.5 49.5H88.5C91.1924 49.5 93.375 47.3174 93.375 44.625V34.875C93.375 32.1826 91.1924 30 88.5 30Z" fill="#81B751" stroke="white" stroke-width="5" stroke-linecap="round" stroke-linejoin="round"/>
<path d="M49.5 30V93.375" stroke="white" stroke-width="5" stroke-linecap="round" stroke-linejoin="round"/>
<path d="M83.625 49.5V83.625C83.625 86.2109 82.5978 88.6908 80.7693 90.5193C78.9408 92.3478 76.4609 93.375 73.875 93.375H25.125C22.5391 93.375 20.0592 92.3478 18.2307 90.5193C16.4022 88.6908 15.375 86.2109 15.375 83.625V49.5" fill="#81B751"/>
<path d="M83.625 49.5V83.625C83.625 86.2109 82.5978 88.6908 80.7693 90.5193C78.9408 92.3478 76.4609 93.375 73.875 93.375H25.125C22.5391 93.375 20.0592 92.3478 18.2307 90.5193C16.4022 88.6908 15.375 86.2109 15.375 83.625V49.5" stroke="white" stroke-width="5" stroke-linecap="round" stroke-linejoin="round"/>
<path d="M27.5625 30.0002C24.3302 30.0002 21.2302 28.7161 18.9446 26.4305C16.659 24.1449 15.375 21.045 15.375 17.8127C15.375 14.5804 16.659 11.4804 18.9446 9.19481C21.2302 6.90922 24.3302 5.62518 27.5625 5.62518C32.2653 5.54324 36.8739 7.82507 40.7871 12.1731C44.7003 16.5211 47.7366 22.7335 49.5 30.0002C51.2634 22.7335 54.2997 16.5211 58.2129 12.1731C62.1261 7.82507 66.7347 5.54324 71.4375 5.62518C74.6698 5.62518 77.7698 6.90922 80.0554 9.19481C82.341 11.4804 83.625 14.5804 83.625 17.8127C83.625 21.045 82.341 24.1449 80.0554 26.4305C77.7698 28.7161 74.6698 30.0002 71.4375 30.0002" fill="#81B751"/>
<path d="M27.5625 30.0002C24.3302 30.0002 21.2302 28.7161 18.9446 26.4305C16.659 24.1449 15.375 21.045 15.375 17.8127C15.375 14.5804 16.659 11.4804 18.9446 9.19481C21.2302 6.90922 24.3302 5.62518 27.5625 5.62518C32.2653 5.54324 36.8739 7.82507 40.7871 12.1731C44.7003 16.5211 47.7366 22.7335 49.5 30.0002C51.2634 22.7335 54.2997 16.5211 58.2129 12.1731C62.1261 7.82507 66.7347 5.54324 71.4375 5.62518C74.6698 5.62518 77.7698 6.90922 80.0554 9.19481C82.341 11.4804 83.625 14.5804 83.625 17.8127C83.625 21.045 82.341 24.1449 80.0554 26.4305C77.7698 28.7161 74.6698 30.0002 71.4375 30.0002" stroke="white" stroke-linecap="round" stroke-linejoin="round"/>
</svg>
