<svg width="97" height="97" viewBox="0 0 97 97" fill="none" xmlns="http://www.w3.org/2000/svg">
<path d="M87.5 29H9.5C6.80761 29 4.625 31.1826 4.625 33.875V43.625C4.625 46.3174 6.80761 48.5 9.5 48.5H87.5C90.1924 48.5 92.375 46.3174 92.375 43.625V33.875C92.375 31.1826 90.1924 29 87.5 29Z" stroke="#81B751" stroke-width="5" stroke-linecap="round" stroke-linejoin="round"/>
<path d="M48.5 29V92.375" stroke="#81B751" stroke-width="5" stroke-linecap="round" stroke-linejoin="round"/>
<path d="M82.625 48.5V82.625C82.625 85.2109 81.5978 87.6908 79.7693 89.5193C77.9408 91.3478 75.4609 92.375 72.875 92.375H24.125C21.5391 92.375 19.0592 91.3478 17.2307 89.5193C15.4022 87.6908 14.375 85.2109 14.375 82.625V48.5" stroke="#81B751" stroke-width="5" stroke-linecap="round" stroke-linejoin="round"/>
<path d="M26.5625 29C23.3302 29 20.2302 27.7159 17.9446 25.4303C15.659 23.1447 14.375 20.0448 14.375 16.8125C14.375 13.5802 15.659 10.4802 17.9446 8.19462C20.2302 5.90902 23.3302 4.62498 26.5625 4.62498C31.2653 4.54304 35.8739 6.82487 39.7871 11.1729C43.7003 15.5209 46.7366 21.7333 48.5 29C50.2634 21.7333 53.2997 15.5209 57.2129 11.1729C61.1261 6.82487 65.7347 4.54304 70.4375 4.62498C73.6698 4.62498 76.7698 5.90902 79.0554 8.19462C81.341 10.4802 82.625 13.5802 82.625 16.8125C82.625 20.0448 81.341 23.1447 79.0554 25.4303C76.7698 27.7159 73.6698 29 70.4375 29" stroke="#81B751" stroke-width="5" stroke-linecap="round" stroke-linejoin="round"/>
</svg>
