<!--
  - Изменено: 06 декабря 2021, понедельник
  - Автор: Артамонов Денис <software.engineer@internet.ru>
  - copyright (c) 2021
  -->

<svg width="57" height="23" viewBox="0 0 57 23" fill="none" xmlns="http://www.w3.org/2000/svg">
    <path d="M26.9979 11.189V17.5473H24.9492V1.84505H30.3827C31.0313 1.83171 31.6761 1.94497 32.28 2.17828C32.8839 2.4116 33.4349 2.76035 33.9012 3.20442C34.3721 3.62153 34.747 4.13306 35.0005 4.70465C35.254 5.27624 35.3803 5.89464 35.3709 6.51828C35.3844 7.14525 35.26 7.76768 35.0063 8.34291C34.7526 8.91814 34.3756 9.43257 33.9012 9.85092C32.951 10.743 31.7782 11.1886 30.3827 11.1877H26.9979V11.189ZM26.9979 3.77824V9.25957H30.4336C30.8103 9.27056 31.1851 9.20403 31.5342 9.06423C31.8832 8.92444 32.1988 8.71445 32.4607 8.4477C32.7212 8.1983 32.9283 7.9 33.0698 7.57042C33.2112 7.24085 33.2841 6.8867 33.2841 6.52892C33.2841 6.17115 33.2112 5.817 33.0698 5.48743C32.9283 5.15785 32.7212 4.85955 32.4607 4.61015C32.2021 4.33778 31.8876 4.12265 31.5381 3.97901C31.1887 3.83537 30.8122 3.76651 30.4336 3.77698H26.9979V3.77824Z"
          fill="white"/>
    <path d="M40.0922 6.45325C41.6065 6.45325 42.8017 6.85166 43.6781 7.64849C44.5544 8.44532 44.9921 9.53783 44.9913 10.926V17.5475H43.0316V16.0565H42.9426C42.0942 17.2844 40.966 17.8983 39.5577 17.8983C38.3557 17.8983 37.35 17.5475 36.5407 16.8459C36.1523 16.5238 35.8418 16.1205 35.6318 15.6654C35.4218 15.2102 35.3175 14.7147 35.3267 14.2148C35.3267 13.1031 35.7534 12.219 36.6069 11.5625C37.4603 10.906 38.5996 10.5769 40.0248 10.5752C41.2412 10.5752 42.2431 10.7945 43.0304 11.233V10.7719C43.0327 10.4312 42.9579 10.0942 42.8116 9.78535C42.6652 9.47655 42.4509 9.2037 42.1842 8.98656C41.6424 8.50531 40.9363 8.24272 40.2067 8.25112C39.0623 8.25112 38.1567 8.72638 37.49 9.6769L35.6856 8.55808C36.6781 7.15486 38.147 6.45325 40.0922 6.45325ZM37.4416 14.2587C37.4402 14.5154 37.5012 14.7687 37.6194 14.9975C37.7376 15.2264 37.9096 15.4241 38.1211 15.5742C38.5742 15.9251 39.1366 16.111 39.713 16.1004C40.5775 16.099 41.4062 15.7602 42.0175 15.1582C42.6961 14.5293 43.0355 13.7913 43.0355 12.9444C42.3967 12.4432 41.5059 12.1927 40.3632 12.1927C39.531 12.1927 38.8371 12.3902 38.2814 12.7853C37.7203 13.1862 37.4416 13.6736 37.4416 14.2587Z"
          fill="white"/>
    <path d="M56.2396 6.80408L49.3987 22.2834H47.2838L49.8225 16.8672L45.3242 6.80408H47.5511L50.8023 14.5218H50.8468L54.0089 6.80408H56.2396Z"
          fill="white"/>
    <path d="M18.7198 9.81834C18.7206 9.20362 18.6678 8.58997 18.5621 7.98413H9.92188V11.4584H14.8706C14.7693 12.0132 14.555 12.5422 14.2405 13.0133C13.926 13.4844 13.5179 13.888 13.0407 14.1996V16.4548H15.9942C17.7235 14.885 18.7198 12.5634 18.7198 9.81834Z"
          fill="white"/>
    <path d="M9.92028 18.6336C12.3927 18.6336 14.4745 17.8343 15.9926 16.4561L13.0391 14.2009C12.2171 14.7497 11.1584 15.0629 9.92028 15.0629C7.53055 15.0629 5.50221 13.4768 4.77689 11.3394H1.73438V13.6634C2.49693 15.1575 3.66623 16.4134 5.11173 17.2911C6.55723 18.1687 8.22203 18.6335 9.92028 18.6336Z"
          fill="white"/>
    <path d="M4.77786 11.3395C4.39441 10.2195 4.39441 9.0066 4.77786 7.88658V5.5625H1.73535C1.09385 6.81933 0.759766 8.20644 0.759766 9.61305C0.759766 11.0197 1.09385 12.4068 1.73535 13.6636L4.77786 11.3395Z"
          fill="white"/>
    <path d="M9.92028 4.16296C11.2269 4.14195 12.4893 4.628 13.4349 5.51607L16.0498 2.94141C14.3917 1.40798 12.195 0.566108 9.92028 0.592267C8.22203 0.592343 6.55723 1.05715 5.11173 1.9348C3.66623 2.81245 2.49693 4.0684 1.73438 5.56243L4.77689 7.88651C5.50221 5.7491 7.53055 4.16296 9.92028 4.16296Z"
          fill="white"/>
</svg>
