<!--
  - Изменено: 13 сентября 2021, понедельник
  - Автор: Артамонов Денис <software.engineer@internet.ru>
  - copyright (c) 2021
  -->

<svg width="21" height="20" viewBox="0 0 21 20" fill="none" xmlns="http://www.w3.org/2000/svg">
    <path d="M18.4214 10.6495L10.5088 19L2.59622 10.6495C2.07432 10.1083 1.66322 9.45782 1.38882 8.73903C1.11442 8.02024 0.982654 7.2487 1.00183 6.47298C1.021 5.69726 1.1907 4.93418 1.50024 4.23178C1.80977 3.52938 2.25243 2.90289 2.80035 2.39174C3.34827 1.8806 3.98958 1.49588 4.68389 1.26181C5.3782 1.02775 6.11047 0.949401 6.83458 1.03171C7.5587 1.11402 8.25898 1.35521 8.89133 1.74008C9.52368 2.12494 10.0744 2.64516 10.5088 3.26797C10.9451 2.64968 11.4964 2.13401 12.1283 1.75323C12.7602 1.37244 13.4591 1.13474 14.1812 1.055C14.9033 0.975265 15.6331 1.0552 16.3248 1.28982C17.0166 1.52443 17.6554 1.90867 18.2014 2.41848C18.7474 2.92829 19.1888 3.55271 19.4979 4.25264C19.807 4.95258 19.9772 5.71297 19.9979 6.48622C20.0185 7.25947 19.8891 8.02894 19.6179 8.74647C19.3466 9.464 18.9393 10.1141 18.4214 10.6562"
          stroke="#B19E86" stroke-width="2" stroke-linecap="round" stroke-linejoin="round"/>
</svg>
