<!--
  - Изменено: 24 сентября 2021, пятница
  - Автор: Артамонов Денис <software.engineer@internet.ru>
  - copyright (c) 2021
  -->

<svg width="21" height="20" viewBox="0 0 21 20" fill="none" xmlns="http://www.w3.org/2000/svg">
    <path fill-rule="evenodd" clip-rule="evenodd"
          d="M1.38882 8.73903C1.66322 9.45782 2.07432 10.1083 2.59622 10.6495L2.86655 10.6496L10.5 19L18.1275 10.6561L18.4214 10.6562C18.9393 10.1141 19.3466 9.46399 19.6179 8.74647C19.8892 8.02894 20.0185 7.25947 19.9979 6.48622C19.9772 5.71297 19.807 4.95258 19.4979 4.25264C19.1888 3.55271 18.7474 2.92829 18.2014 2.41848C17.6555 1.90867 17.0166 1.52443 16.3248 1.28982C15.6331 1.0552 14.9033 0.975265 14.1812 1.055C13.4591 1.13474 12.7602 1.37244 12.1283 1.75323C11.4964 2.13401 10.9451 2.64968 10.5088 3.26797C10.0744 2.64516 9.52368 2.12494 8.89133 1.74008C8.25898 1.35521 7.5587 1.11402 6.83458 1.03171C6.11047 0.949401 5.3782 1.02775 4.68389 1.26181C3.98958 1.49588 3.34827 1.8806 2.80035 2.39174C2.25243 2.90289 1.80977 3.52938 1.50024 4.23178C1.1907 4.93418 1.021 5.69726 1.00183 6.47298C0.982654 7.2487 1.11442 8.02024 1.38882 8.73903Z"
          fill="#B19E86"/>
    <path d="M2.59622 10.6495L2.23632 10.9965C2.33051 11.0942 2.46033 11.1494 2.59601 11.1495L2.59622 10.6495ZM1.38882 8.73903L1.85594 8.56071L1.38882 8.73903ZM2.86655 10.6496L3.2356 10.3122C3.14092 10.2086 3.00709 10.1496 2.86677 10.1496L2.86655 10.6496ZM10.5 19L10.131 19.3374C10.2257 19.441 10.3596 19.5 10.5 19.5C10.6404 19.5 10.7743 19.441 10.869 19.3374L10.5 19ZM18.1275 10.6561L18.1277 10.1561C17.9872 10.156 17.8532 10.215 17.7585 10.3187L18.1275 10.6561ZM18.4214 10.6562L18.4211 11.1562C18.5578 11.1563 18.6885 11.1004 18.7829 11.0016L18.4214 10.6562ZM19.6179 8.74647L19.1502 8.56965V8.56965L19.6179 8.74647ZM19.9979 6.48622L19.498 6.49956L19.9979 6.48622ZM19.4979 4.25264L19.9553 4.05065L19.4979 4.25264ZM16.3248 1.28982L16.1642 1.76333V1.76333L16.3248 1.28982ZM14.1812 1.055L14.2361 1.55198L14.1812 1.055ZM12.1283 1.75323L11.8703 1.32497L11.8703 1.32497L12.1283 1.75323ZM10.5088 3.26797L10.0987 3.55401C10.1919 3.68768 10.3445 3.76752 10.5074 3.76796C10.6704 3.76841 10.8234 3.6894 10.9173 3.55624L10.5088 3.26797ZM8.89133 1.74008L9.15129 1.31296V1.31296L8.89133 1.74008ZM6.83458 1.03171L6.77811 1.52851L6.83458 1.03171ZM4.68389 1.26181L4.52416 0.788012V0.788012L4.68389 1.26181ZM2.80035 2.39174L3.14143 2.75735L2.80035 2.39174ZM1.50024 4.23178L1.04269 4.03015H1.04269L1.50024 4.23178ZM1.00183 6.47298L1.50168 6.48534L1.00183 6.47298ZM18.7779 11.0001C18.9678 10.7997 18.9593 10.4832 18.7589 10.2933C18.5584 10.1033 18.242 10.1118 18.052 10.3123L18.7779 11.0001ZM10.5088 19L10.1459 19.3439C10.2403 19.4436 10.3715 19.5 10.5088 19.5C10.6461 19.5 10.7773 19.4436 10.8717 19.3439L10.5088 19ZM10.8672 18.6513C10.6773 18.4509 10.3608 18.4424 10.1604 18.6324C9.95995 18.8223 9.95145 19.1388 10.1414 19.3392L10.8672 18.6513ZM9.89657 19.0808C10.0865 19.2813 10.403 19.2898 10.6034 19.0999C10.8039 18.9099 10.8124 18.5935 10.6225 18.393L9.89657 19.0808ZM2.95917 10.3055C2.76923 10.1051 2.45277 10.0966 2.25232 10.2865C2.05187 10.4764 2.04335 10.7929 2.23328 10.9934L2.95917 10.3055ZM2.95613 10.3024C2.48206 9.8108 2.1069 9.2181 1.85594 8.56071L0.921699 8.91736C1.21954 9.69754 1.66657 10.4058 2.23632 10.9965L2.95613 10.3024ZM2.86677 10.1496L2.59644 10.1495L2.59601 11.1495L2.86634 11.1496L2.86677 10.1496ZM2.49751 10.9869L10.131 19.3374L10.869 18.6626L3.2356 10.3122L2.49751 10.9869ZM10.869 19.3374L18.4965 10.9934L17.7585 10.3187L10.131 18.6626L10.869 19.3374ZM18.4216 10.1562L18.1277 10.1561L18.1273 11.1561L18.4211 11.1562L18.4216 10.1562ZM19.1502 8.56965C18.9021 9.22592 18.5303 9.81837 18.0598 10.3108L18.7829 11.0016C19.3482 10.4099 19.7911 9.70207 20.0856 8.92328L19.1502 8.56965ZM19.498 6.49956C19.517 7.2085 19.3983 7.91334 19.1502 8.56965L20.0856 8.92328C20.38 8.14453 20.5201 7.31044 20.4977 6.47288L19.498 6.49956ZM19.0405 4.45464C19.3231 5.09438 19.4791 5.79063 19.498 6.49956L20.4977 6.47288C20.4753 5.63531 20.291 4.81077 19.9553 4.05065L19.0405 4.45464ZM17.8602 2.78394C18.3556 3.24653 18.758 3.81493 19.0405 4.45464L19.9553 4.05065C19.6196 3.29048 19.1392 2.61006 18.5427 2.05303L17.8602 2.78394ZM16.1642 1.76333C16.7872 1.97462 17.3649 2.32142 17.8602 2.78394L18.5427 2.05303C17.946 1.49591 17.2459 1.07424 16.4854 0.816309L16.1642 1.76333ZM14.2361 1.55198C14.8851 1.48032 15.5413 1.55206 16.1642 1.76333L16.4854 0.816309C15.7248 0.558345 14.9215 0.470215 14.1263 0.558025L14.2361 1.55198ZM12.3864 2.18148C12.9573 1.83744 13.587 1.62366 14.2361 1.55198L14.1263 0.558025C13.3312 0.64583 12.5631 0.907449 11.8703 1.32497L12.3864 2.18148ZM10.9173 3.55624C11.3147 2.99304 11.8153 2.5256 12.3864 2.18148L11.8703 1.32497C11.1775 1.74242 10.5754 2.30632 10.1003 2.97969L10.9173 3.55624ZM8.63138 2.16719C9.20288 2.51502 9.70295 2.98663 10.0987 3.55401L10.9189 2.98193C10.4458 2.30369 9.84448 1.73487 9.15129 1.31296L8.63138 2.16719ZM6.77811 1.52851C7.42899 1.6025 8.05999 1.81942 8.63138 2.16719L9.15129 1.31296C8.45798 0.890992 7.68842 0.625548 6.89106 0.534911L6.77811 1.52851ZM4.84362 1.73561C5.4688 1.52485 6.12728 1.45453 6.77811 1.52851L6.89106 0.534911C6.09365 0.44427 5.28759 0.530643 4.52416 0.788012L4.84362 1.73561ZM3.14143 2.75735C3.6385 2.29364 4.21833 1.94641 4.84362 1.73561L4.52416 0.788012C3.76083 1.04535 3.05804 1.46756 2.45928 2.02613L3.14143 2.75735ZM1.95778 4.43341C2.24068 3.79145 2.64426 3.22115 3.14143 2.75735L2.45928 2.02613C1.86061 2.58462 1.37886 3.26732 1.04269 4.03015L1.95778 4.43341ZM1.50168 6.48534C1.51926 5.77414 1.67486 5.07542 1.95778 4.43341L1.04269 4.03015C0.706547 4.79294 0.522752 5.62039 0.501982 6.46063L1.50168 6.48534ZM1.85594 8.56071C1.60496 7.90327 1.4841 7.19654 1.50168 6.48534L0.501982 6.46063C0.481211 7.30086 0.623874 8.13721 0.921699 8.91736L1.85594 8.56071ZM18.052 10.3123L10.1458 18.6561L10.8717 19.3439L18.7779 11.0001L18.052 10.3123ZM10.8717 18.6561L10.8672 18.6513L10.1414 19.3392L10.1459 19.3439L10.8717 18.6561ZM10.6225 18.393L2.95917 10.3055L2.23328 10.9934L9.89657 19.0808L10.6225 18.393Z"
          fill="#B19E86"/>
</svg>
