<svg width="30" height="30" viewBox="0 0 30 30" fill="none" xmlns="http://www.w3.org/2000/svg">
<path d="M15.3277 5.93438C15.2405 5.85093 15.1244 5.80436 15.0037 5.80436C14.883 5.80436 14.7669 5.85093 14.6797 5.93438L3.89258 16.2393C3.84677 16.2831 3.81032 16.3357 3.78544 16.3941C3.76057 16.4524 3.74778 16.5151 3.74785 16.5785L3.74609 26.25C3.74609 26.7473 3.94364 27.2242 4.29527 27.5758C4.6469 27.9275 5.12381 28.125 5.62109 28.125H11.252C11.5006 28.125 11.7391 28.0262 11.9149 27.8504C12.0907 27.6746 12.1895 27.4361 12.1895 27.1875V19.2188C12.1895 19.0944 12.2388 18.9752 12.3267 18.8873C12.4147 18.7994 12.5339 18.75 12.6582 18.75H17.3457C17.47 18.75 17.5893 18.7994 17.6772 18.8873C17.7651 18.9752 17.8145 19.0944 17.8145 19.2188V27.1875C17.8145 27.4361 17.9132 27.6746 18.089 27.8504C18.2649 28.0262 18.5033 28.125 18.752 28.125H24.3805C24.8778 28.125 25.3547 27.9275 25.7063 27.5758C26.0579 27.2242 26.2555 26.7473 26.2555 26.25V16.5785C26.2555 16.5151 26.2428 16.4524 26.2179 16.3941C26.193 16.3357 26.1566 16.2831 26.1107 16.2393L15.3277 5.93438Z" fill="#81B751"/>
<path d="M28.7643 14.3057L24.3815 10.1127V3.75C24.3815 3.50136 24.2827 3.2629 24.1069 3.08709C23.9311 2.91127 23.6926 2.8125 23.444 2.8125H20.6315C20.3828 2.8125 20.1444 2.91127 19.9686 3.08709C19.7927 3.2629 19.694 3.50136 19.694 3.75V5.625L16.3002 2.38008C15.9826 2.05898 15.5104 1.875 15 1.875C14.4914 1.875 14.0203 2.05898 13.7028 2.38066L1.23987 14.3045C0.875413 14.6561 0.82971 15.2344 1.16135 15.6152C1.24463 15.7114 1.3466 15.7896 1.46106 15.845C1.57551 15.9005 1.70006 15.9321 1.82712 15.9379C1.95417 15.9437 2.08108 15.9236 2.20013 15.8788C2.31917 15.834 2.42785 15.7655 2.51955 15.6774L14.6778 4.05938C14.765 3.97593 14.8811 3.92935 15.0018 3.92935C15.1225 3.92935 15.2386 3.97593 15.3258 4.05938L27.4852 15.6774C27.6643 15.8491 27.9042 15.9429 28.1523 15.938C28.4004 15.9332 28.6365 15.8302 28.8088 15.6516C29.1686 15.2789 29.1387 14.6637 28.7643 14.3057Z" fill="#81B751"/>
</svg>
