<svg width="73" height="74" viewBox="0 0 73 74" fill="none" xmlns="http://www.w3.org/2000/svg">
<rect width="73" height="74" rx="24" fill="#E187A8"/>
<path d="M28.897 37C28.897 32.743 32.3005 29.291 36.5 29.291C40.6995 29.291 44.1048 32.743 44.1048 37C44.1048 41.257 40.6995 44.709 36.5 44.709C32.3005 44.709 28.897 41.257 28.897 37ZM24.7861 37C24.7861 43.5583 30.0304 48.8744 36.5 48.8744C42.9696 48.8744 48.2139 43.5583 48.2139 37C48.2139 30.4417 42.9696 25.1256 36.5 25.1256C30.0304 25.1256 24.7861 30.4417 24.7861 37ZM45.9402 24.6548C45.94 25.2036 46.1003 25.7402 46.4009 26.1967C46.7015 26.6531 47.1289 27.009 47.6291 27.2192C48.1292 27.4295 48.6796 27.4846 49.2107 27.3778C49.7417 27.2709 50.2296 27.0068 50.6126 26.6189C50.9956 26.2309 51.2565 25.7366 51.3624 25.1983C51.4682 24.6601 51.4142 24.1021 51.2072 23.595C51.0002 23.0878 50.6495 22.6543 50.1995 22.3492C49.7494 22.0441 49.2202 21.8811 48.6788 21.8809H48.6777C47.9519 21.8812 47.256 22.1735 46.7427 22.6936C46.2295 23.2137 45.9408 23.9191 45.9402 24.6548ZM27.2837 55.8232C25.0596 55.7205 23.8507 55.345 23.0474 55.0277C21.9823 54.6074 21.2224 54.1068 20.4234 53.2979C19.6244 52.4891 19.1298 51.7195 18.717 50.6399C18.4038 49.8259 18.0334 48.6001 17.9323 46.3455C17.8217 43.9079 17.7996 43.1757 17.7996 37.0002C17.7996 30.8247 17.8235 30.0945 17.9323 27.6549C18.0336 25.4003 18.4068 24.1769 18.717 23.3605C19.1317 22.2808 19.6255 21.5105 20.4234 20.7006C21.2213 19.8906 21.9805 19.3893 23.0474 18.9708C23.8504 18.6534 25.0596 18.2778 27.2837 18.1753C29.6884 18.0632 30.4107 18.0408 36.5 18.0408C42.5893 18.0408 43.3124 18.0651 45.719 18.1753C47.9431 18.278 49.15 18.6563 49.9554 18.9708C51.0204 19.3893 51.7804 19.8918 52.5793 20.7006C53.3783 21.5094 53.8711 22.2808 54.2857 23.3605C54.5989 24.1745 54.9694 25.4003 55.0705 27.6549C55.1811 30.0945 55.2031 30.8247 55.2031 37.0002C55.2031 43.1757 55.1811 43.9059 55.0705 46.3455C54.9692 48.6001 54.5969 49.8255 54.2857 50.6399C53.8711 51.7195 53.3772 52.4899 52.5793 53.2979C51.7815 54.106 51.0204 54.6074 49.9554 55.0277C49.1524 55.3452 47.9431 55.7207 45.719 55.8232C43.3144 55.9353 42.592 55.9577 36.5 55.9577C30.408 55.9577 29.6876 55.9353 27.2837 55.8232ZM27.0949 14.015C24.6663 14.1272 23.0069 14.5175 21.5576 15.0892C20.0567 15.6795 18.7862 16.4715 17.5165 17.7565C16.2469 19.0415 15.4676 20.3315 14.8852 21.8529C14.3213 23.323 13.9362 25.0042 13.8257 27.466C13.7132 29.9317 13.6875 30.72 13.6875 37C13.6875 43.28 13.7132 44.0683 13.8257 46.534C13.9362 48.996 14.3213 50.6771 14.8852 52.1471C15.4676 53.6676 16.2471 54.9591 17.5165 56.2435C18.786 57.528 20.0567 58.3188 21.5576 58.9108C23.0096 59.4825 24.6663 59.8728 27.0949 59.985C29.5285 60.0971 30.3049 60.125 36.5 60.125C42.6951 60.125 43.4728 60.0989 45.9051 59.985C48.3338 59.8728 49.9922 59.4825 51.4424 58.9108C52.9423 58.3188 54.2138 57.5285 55.4835 56.2435C56.7531 54.9585 57.5308 53.6676 58.1148 52.1471C58.6787 50.6771 59.0656 48.9958 59.1743 46.534C59.2849 44.0664 59.3107 43.28 59.3107 37C59.3107 30.72 59.2849 29.9317 59.1743 27.466C59.0638 25.004 58.6787 23.322 58.1148 21.8529C57.5308 20.3324 56.7511 19.0435 55.4835 17.7565C54.2158 16.4694 52.9423 15.6795 51.4442 15.0892C49.9922 14.5175 48.3337 14.1253 45.907 14.015C43.4746 13.9029 42.697 13.875 36.5018 13.875C30.3067 13.875 29.5285 13.9011 27.0949 14.015Z" fill="white"/>
</svg>
