<!--
  - Изменено: 09 сентября 2021, четверг
  - Автор: Артамонов Денис <software.engineer@internet.ru>
  - copyright (c) 2021
  -->

<svg width="12" height="13" viewBox="0 0 12 13" fill="none" xmlns="http://www.w3.org/2000/svg">
    <path d="M6 0.583313C7.39239 0.583313 8.72774 1.13644 9.71231 2.121C10.6969 3.10557 11.25 4.44093 11.25 5.83331C11.25 8.00681 9.59333 10.2841 6.35 12.7166C6.24903 12.7924 6.12622 12.8333 6 12.8333C5.87378 12.8333 5.75097 12.7924 5.65 12.7166C2.40667 10.2841 0.75 8.00681 0.75 5.83331C0.75 4.44093 1.30312 3.10557 2.28769 2.121C3.27226 1.13644 4.60761 0.583313 6 0.583313ZM6 4.08331C5.53587 4.08331 5.09075 4.26769 4.76256 4.59588C4.43437 4.92407 4.25 5.36918 4.25 5.83331C4.25 6.29744 4.43437 6.74256 4.76256 7.07075C5.09075 7.39894 5.53587 7.58331 6 7.58331C6.46413 7.58331 6.90925 7.39894 7.23744 7.07075C7.56563 6.74256 7.75 6.29744 7.75 5.83331C7.75 5.36918 7.56563 4.92407 7.23744 4.59588C6.90925 4.26769 6.46413 4.08331 6 4.08331Z"
          fill="white"/>
</svg>
