<!--
  - Изменено: 06 декабря 2021, понедельник
  - Автор: Артамонов Денис <software.engineer@internet.ru>
  - copyright (c) 2021
  -->

<svg width="49" height="31" viewBox="0 0 49 31" fill="none" xmlns="http://www.w3.org/2000/svg">
    <path d="M30.8695 27.0509H18.0957V3.95654H30.8695V27.0509Z" fill="#FF5F00"/>
    <path d="M18.9138 15.502C18.9138 10.8172 21.0942 6.64407 24.4896 3.95477C22.0066 1.98822 18.8729 0.814455 15.4673 0.814455C7.40475 0.814455 0.869141 7.39017 0.869141 15.502C0.869141 23.6137 7.40475 30.1895 15.4673 30.1895C18.8729 30.1895 22.0066 29.0157 24.4896 27.0491C21.0942 24.3598 18.9138 20.1868 18.9138 15.502Z"
          fill="#EB001B"/>
    <path d="M48.0979 15.502C48.0979 23.6137 41.5623 30.1895 33.4998 30.1895C30.0942 30.1895 26.9605 29.0157 24.4766 27.0491C27.8729 24.3598 30.0533 20.1868 30.0533 15.502C30.0533 10.8172 27.8729 6.64407 24.4766 3.95477C26.9605 1.98822 30.0942 0.814455 33.4998 0.814455C41.5623 0.814455 48.0979 7.39017 48.0979 15.502Z"
          fill="#F79E1B"/>
    <path d="M11.8542 15.5948C11.8542 14.9533 12.2721 14.4262 12.955 14.4262C13.6075 14.4262 14.048 14.9306 14.048 15.5948C14.048 16.2591 13.6075 16.7634 12.955 16.7634C12.2721 16.7634 11.8542 16.2364 11.8542 15.5948ZM14.7917 15.5948V13.7698H14.0028V14.213C13.7526 13.8843 13.3729 13.6781 12.8568 13.6781C11.8394 13.6781 11.0418 14.4804 11.0418 15.5948C11.0418 16.7101 11.8394 17.5116 12.8568 17.5116C13.3729 17.5116 13.7526 17.3053 14.0028 16.9767V17.4198H14.7917V15.5948ZM41.451 15.5948C41.451 14.9533 41.8689 14.4262 42.5518 14.4262C43.2052 14.4262 43.6448 14.9306 43.6448 15.5948C43.6448 16.2591 43.2052 16.7634 42.5518 16.7634C41.8689 16.7634 41.451 16.2364 41.451 15.5948ZM44.3894 15.5948V12.3041H43.5996V14.213C43.3494 13.8843 42.9697 13.6781 42.4536 13.6781C41.4362 13.6781 40.6386 14.4804 40.6386 15.5948C40.6386 16.7101 41.4362 17.5116 42.4536 17.5116C42.9697 17.5116 43.3494 17.3053 43.5996 16.9767V17.4198H44.3894V15.5948ZM24.5843 14.3887C25.0926 14.3887 25.4193 14.7094 25.5027 15.2741H23.6199C23.7042 14.747 24.0222 14.3887 24.5843 14.3887ZM24.6 13.6781C23.5365 13.6781 22.7928 14.4568 22.7928 15.5948C22.7928 16.7556 23.5669 17.5116 24.653 17.5116C25.1994 17.5116 25.6999 17.3744 26.1404 17.0003L25.7538 16.4121C25.4497 16.6559 25.0622 16.794 24.6981 16.794C24.1899 16.794 23.7268 16.5571 23.613 15.8999H26.3072C26.315 15.8011 26.3229 15.7015 26.3229 15.5948C26.315 14.4568 25.6165 13.6781 24.6 13.6781ZM34.1258 15.5948C34.1258 14.9533 34.5438 14.4262 35.2267 14.4262C35.8792 14.4262 36.3197 14.9306 36.3197 15.5948C36.3197 16.2591 35.8792 16.7634 35.2267 16.7634C34.5438 16.7634 34.1258 16.2364 34.1258 15.5948ZM37.0634 15.5948V13.7698H36.2745V14.213C36.0234 13.8843 35.6446 13.6781 35.1285 13.6781C34.1111 13.6781 33.3135 14.4804 33.3135 15.5948C33.3135 16.7101 34.1111 17.5116 35.1285 17.5116C35.6446 17.5116 36.0234 17.3053 36.2745 16.9767V17.4198H37.0634V15.5948ZM29.6705 15.5948C29.6705 16.7022 30.4368 17.5116 31.6062 17.5116C32.1527 17.5116 32.5168 17.3892 32.9112 17.0763L32.5324 16.4348C32.2361 16.6489 31.9251 16.7634 31.5828 16.7634C30.9529 16.7556 30.4898 16.2976 30.4898 15.5948C30.4898 14.8921 30.9529 14.4341 31.5828 14.4262C31.9251 14.4262 32.2361 14.5407 32.5324 14.7549L32.9112 14.1133C32.5168 13.8004 32.1527 13.6781 31.6062 13.6781C30.4368 13.6781 29.6705 14.4874 29.6705 15.5948ZM39.8419 13.6781C39.3866 13.6781 39.0904 13.8922 38.8853 14.213V13.7698H38.1034V17.4198H38.8931V15.3737C38.8931 14.7697 39.1512 14.4341 39.6673 14.4341C39.8271 14.4341 39.994 14.4568 40.1608 14.5259L40.404 13.7777C40.2294 13.7086 40.0018 13.6781 39.8419 13.6781ZM18.6936 14.06C18.3139 13.8083 17.7909 13.6781 17.214 13.6781C16.2948 13.6781 15.7031 14.1212 15.7031 14.8466C15.7031 15.4419 16.1436 15.809 16.9551 15.9235L17.3278 15.9768C17.7605 16.038 17.9647 16.1525 17.9647 16.3587C17.9647 16.6411 17.6762 16.8019 17.1375 16.8019C16.591 16.8019 16.1966 16.6262 15.9307 16.4199L15.5589 17.0379C15.9915 17.3586 16.538 17.5116 17.1297 17.5116C18.1775 17.5116 18.7848 17.0151 18.7848 16.3203C18.7848 15.6787 18.307 15.3431 17.5172 15.2286L17.1454 15.1744C16.8039 15.129 16.5302 15.0608 16.5302 14.8161C16.5302 14.5486 16.7883 14.3887 17.2209 14.3887C17.684 14.3887 18.1324 14.5643 18.3522 14.7016L18.6936 14.06ZM28.8729 13.6781C28.4176 13.6781 28.1213 13.8922 27.9172 14.213V13.7698H27.1352V17.4198H27.9241V15.3737C27.9241 14.7697 28.1822 14.4341 28.6982 14.4341C28.8581 14.4341 29.0249 14.4568 29.1917 14.5259L29.435 13.7777C29.2604 13.7086 29.0327 13.6781 28.8729 13.6781ZM22.1403 13.7698H20.8501V12.6624H20.0525V13.7698H19.3166V14.4953H20.0525V16.1603C20.0525 17.0073 20.3792 17.5116 21.3123 17.5116C21.6546 17.5116 22.0491 17.405 22.2993 17.2293L22.0716 16.5493C21.8362 16.6865 21.5782 16.7556 21.3731 16.7556C20.9787 16.7556 20.8501 16.5108 20.8501 16.1446V14.4953H22.1403V13.7698ZM10.3441 17.4198V15.129C10.3441 14.2663 9.79763 13.6859 8.91664 13.6781C8.45355 13.6702 7.97569 13.8153 7.64119 14.3275C7.39096 13.9228 6.99651 13.6781 6.4422 13.6781C6.0547 13.6781 5.67589 13.7926 5.37961 14.22V13.7698H4.58984V17.4198H5.38656V15.3964C5.38656 14.7627 5.73583 14.4262 6.27538 14.4262C6.79929 14.4262 7.06428 14.7697 7.06428 15.3886V17.4198H7.86187V15.3964C7.86187 14.7627 8.22591 14.4262 8.74982 14.4262C9.2885 14.4262 9.54654 14.7697 9.54654 15.3886V17.4198H10.3441Z"
          fill="white"/>
</svg>
