<svg width="31" height="37" viewBox="0 0 31 37" fill="none" xmlns="http://www.w3.org/2000/svg">
<path d="M0.366626 9.24998C0.366626 8.89415 0.50798 8.55289 0.759591 8.30128C1.0112 8.04967 1.35246 7.90831 1.70829 7.90831H23.2916C23.6475 7.90831 23.9887 8.04967 24.2403 8.30128C24.4919 8.55289 24.6333 8.89415 24.6333 9.24998C24.6333 9.60581 24.4919 9.94707 24.2403 10.1987C23.9887 10.4503 23.6475 10.5916 23.2916 10.5916H1.70829C1.35246 10.5916 1.0112 10.4503 0.759591 10.1987C0.50798 9.94707 0.366626 9.60581 0.366626 9.24998Z" fill="#B19E86" stroke="white" stroke-width="0.4"/>
<path d="M0.366626 27.75C0.366626 27.3941 0.50798 27.0529 0.759591 26.8013C1.0112 26.5497 1.35246 26.4083 1.70829 26.4083H23.2916C23.6475 26.4083 23.9887 26.5497 24.2403 26.8013C24.4919 27.0529 24.6333 27.3941 24.6333 27.75C24.6333 28.1058 24.4919 28.4471 24.2403 28.6987C23.9887 28.9503 23.6475 29.0916 23.2916 29.0916H1.70829C1.35246 29.0916 1.0112 28.9503 0.759591 28.6987C0.50798 28.4471 0.366626 28.1058 0.366626 27.75Z" fill="#B19E86" stroke="white" stroke-width="0.4"/>
<path d="M0.759591 17.5513C1.0112 17.2997 1.35246 17.1583 1.70829 17.1583H14.0416C14.3975 17.1583 14.7387 17.2997 14.9903 17.5513C15.2419 17.8029 15.3833 18.1441 15.3833 18.5C15.3833 18.8558 15.2419 19.1971 14.9903 19.4487C14.7387 19.7003 14.3975 19.8416 14.0416 19.8416H1.70829C1.35246 19.8416 1.0112 19.7003 0.759591 19.4487C0.50798 19.1971 0.366626 18.8558 0.366626 18.5C0.366626 18.1441 0.50798 17.8029 0.759591 17.5513Z" fill="#B19E86" stroke="white" stroke-width="0.4"/>
</svg>
