<svg width="28" height="28" viewBox="0 0 28 28" fill="none" xmlns="http://www.w3.org/2000/svg">
<rect width="28" height="28" rx="14" fill="#EE8208"/>
<path d="M14.0001 7.49008C15.1 7.49008 15.9947 8.3848 15.9947 9.48475C15.9947 10.5838 15.0998 11.4785 14.0001 11.4785C12.9008 11.4785 12.0059 10.5838 12.0059 9.48475C12.0056 8.38457 12.901 7.49008 14.0001 7.49008ZM14.0001 14.3005C16.657 14.3005 18.8177 12.1405 18.8177 9.48475C18.8177 6.82758 16.6572 4.66666 14.0001 4.66666C11.3434 4.66666 9.18244 6.82781 9.18244 9.48475C9.18244 12.1405 11.3434 14.3005 14.0001 14.3005ZM15.9491 18.2301C16.9401 18.0044 17.8859 17.6128 18.7464 17.0718C19.0632 16.8725 19.2879 16.5555 19.371 16.1906C19.454 15.8256 19.3887 15.4426 19.1894 15.1258C19.0909 14.9688 18.9623 14.8328 18.8111 14.7255C18.6599 14.6182 18.489 14.5418 18.3083 14.5005C18.1275 14.4593 17.9404 14.4542 17.7577 14.4853C17.5749 14.5165 17.4001 14.5834 17.2432 14.6822C15.2695 15.923 12.7292 15.9221 10.7572 14.6822C10.6003 14.5834 10.4255 14.5165 10.2428 14.4853C10.06 14.4541 9.87293 14.4593 9.69218 14.5005C9.51143 14.5417 9.34058 14.6181 9.18941 14.7254C9.03824 14.8327 8.90971 14.9688 8.81118 15.1258C8.6118 15.4426 8.5464 15.8255 8.62934 16.1904C8.71228 16.5554 8.93678 16.8724 9.25346 17.0718C10.1139 17.6126 11.0595 18.0042 12.0504 18.2301L9.35723 20.9237C9.09257 21.1885 8.94392 21.5475 8.94398 21.9219C8.94405 22.2962 9.09282 22.6552 9.35758 22.9199C9.62233 23.1846 9.98138 23.3332 10.3557 23.3331C10.7301 23.3331 11.0891 23.1843 11.3537 22.9196L13.9996 20.2732L16.6471 22.9198C16.778 23.0509 16.9335 23.1549 17.1046 23.2258C17.2757 23.2968 17.4592 23.3333 17.6444 23.3333C17.8297 23.3333 18.0131 23.2968 18.1843 23.2258C18.3554 23.1549 18.5109 23.0509 18.6418 22.9198C18.773 22.7889 18.8772 22.6334 18.9483 22.4622C19.0194 22.2909 19.0559 22.1074 19.0559 21.922C19.0559 21.7366 19.0194 21.553 18.9483 21.3818C18.8772 21.2106 18.773 21.0551 18.6418 20.9242L15.9491 18.2301Z" fill="white"/>
</svg>
