<svg width="73" height="74" viewBox="0 0 73 74" fill="none" xmlns="http://www.w3.org/2000/svg">
<rect width="73" height="74" rx="24" fill="#F2BF74"/>
<path d="M36.5 19.7952C39.3677 19.7952 41.7004 22.1598 41.7004 25.0668C41.7004 27.9714 39.3671 30.336 36.5 30.336C33.6341 30.336 31.3009 27.9714 31.3009 25.0668C31.3003 22.1592 33.6347 19.7952 36.5 19.7952ZM36.5 37.7943C43.427 37.7943 49.0603 32.0857 49.0603 25.0668C49.0603 18.0443 43.4276 12.3333 36.5 12.3333C29.5736 12.3333 23.9398 18.0449 23.9398 25.0668C23.9398 32.0857 29.5736 37.7943 36.5 37.7943ZM41.5814 48.1797C44.1652 47.5831 46.631 46.5482 48.8745 45.1185C49.7004 44.5917 50.2861 43.7539 50.5027 42.7894C50.7193 41.8249 50.549 40.8127 50.0294 39.9754C49.7724 39.5605 49.4372 39.2009 49.043 38.9174C48.6489 38.6338 48.2034 38.4318 47.7321 38.3229C47.2609 38.214 46.7731 38.2003 46.2966 38.2827C45.8201 38.365 45.3643 38.5418 44.9553 38.8029C39.8096 42.0823 33.1868 42.0798 28.0454 38.8029C27.6364 38.5418 27.1807 38.3649 26.7042 38.2825C26.2278 38.2001 25.74 38.2138 25.2687 38.3227C24.7975 38.4316 24.3521 38.6336 23.9579 38.9172C23.5638 39.2008 23.2287 39.5604 22.9718 39.9754C22.452 40.8125 22.2815 41.8245 22.4978 42.789C22.714 43.7535 23.2993 44.5914 24.1249 45.1185C26.3683 46.5476 28.8336 47.5826 31.4169 48.1797L24.3955 55.2985C23.7055 55.9982 23.3179 56.9471 23.3181 57.9364C23.3183 58.9258 23.7061 59.8746 24.3964 60.574C25.0866 61.2735 26.0227 61.6664 26.9987 61.6662C27.9747 61.666 28.9106 61.2728 29.6007 60.5731L36.4988 53.5792L43.4012 60.5737C43.7425 60.9202 44.1478 61.195 44.594 61.3826C45.0401 61.5701 45.5184 61.6666 46.0014 61.6666C46.4844 61.6666 46.9626 61.5701 47.4088 61.3826C47.855 61.195 48.2603 60.9202 48.6016 60.5737C48.9438 60.2278 49.2154 59.8168 49.4007 59.3643C49.586 58.9118 49.6814 58.4267 49.6814 57.9367C49.6814 57.4468 49.586 56.9616 49.4007 56.5091C49.2154 56.0566 48.9438 55.6456 48.6016 55.2997L41.5814 48.1797Z" fill="white"/>
</svg>
