<!--
  - Изменено: 17 декабря 2021, пятница
  - Автор: Артамонов Денис <software.engineer@internet.ru>
  - copyright (c) 2021
  -->

<svg width="6" height="10" viewBox="0 0 6 10" fill="none" xmlns="http://www.w3.org/2000/svg">
    <path d="M0.740094 9.8C0.667859 9.73303 0.609524 9.65248 0.56842 9.56297C0.527316 9.47345 0.504248 9.37672 0.500533 9.27828C0.496819 9.17985 0.512531 9.08165 0.546772 8.98929C0.581013 8.89693 0.633112 8.81222 0.700094 8.74L4.22709 5L0.700094 1.26C0.63312 1.18777 0.581028 1.10306 0.546792 1.0107C0.512556 0.918342 0.496847 0.820143 0.500561 0.721713C0.504275 0.623283 0.527341 0.526547 0.56844 0.437032C0.609539 0.347516 0.667867 0.266971 0.740094 0.199997C0.812321 0.133023 0.897033 0.0809307 0.989392 0.0466948C1.08175 0.0124588 1.17995 -0.00325108 1.27838 0.000463486C1.37681 0.00417805 1.47354 0.0272427 1.56306 0.0683422C1.65258 0.109442 1.73312 0.167769 1.80009 0.239997L5.80009 4.49C5.92872 4.62868 6.00019 4.81085 6.00019 5C6.00019 5.18915 5.92872 5.37131 5.80009 5.51L1.80009 9.76C1.73313 9.83223 1.65258 9.89057 1.56307 9.93167C1.47355 9.97278 1.37681 9.99584 1.27838 9.99956C1.17995 10.0033 1.08175 9.98756 0.989387 9.95332C0.897027 9.91908 0.812317 9.86698 0.740094 9.8Z"
          fill="#898989"/>
</svg>
