<!--
  - Изменено: 06 декабря 2021, понедельник
  - Автор: Артамонов Денис <software.engineer@internet.ru>
  - copyright (c) 2021
  -->

<svg width="48" height="20" viewBox="0 0 48 20" fill="none" xmlns="http://www.w3.org/2000/svg">
    <path fill-rule="evenodd" clip-rule="evenodd"
          d="M23.9245 0.000148113C28.2648 0.000148113 31.7834 3.49217 31.7834 7.79971C31.7834 8.14811 31.7133 15.2836 31.7133 15.2836H28.792V8.0164C28.792 7.87035 28.7843 7.72594 28.7714 7.58333V7.57765H28.771C28.5477 5.15396 26.4951 3.25518 23.9946 3.25518C21.3453 3.25518 19.1974 5.38692 19.1974 8.0164C19.1974 10.6457 21.3537 12.4025 24.0032 12.4025H25.0002L24.9937 15.2476C24.6296 15.2536 24.3053 15.2425 23.9245 15.2346C19.5851 15.1435 16.0654 12.1071 16.0654 7.79971C16.0654 3.49217 19.5842 0 23.9245 0V0.000148113ZM8.68213 0.46861C12.5793 0.879726 15.2455 3.76979 15.2455 7.79941C15.2455 12.107 12.1982 15.1435 7.85891 15.2345C7.47792 15.2424 6.68133 15.2534 6.31719 15.2474L6.31057 12.4023H7.64569C10.1127 12.4023 12.1335 10.4169 12.1133 7.96846C12.0925 5.45487 10.4392 4.2045 9.43538 3.6763C9.0258 3.46081 8.56777 3.3527 8.10433 3.3527H2.90603V19.5053H0V3.88582C0 1.99883 1.54157 0.469057 3.44291 0.469057H8.68228L8.68213 0.46861ZM45.0138 0.937519H48L38.7055 20H35.7194L45.0139 0.937519H45.0138ZM38.8049 8.39496L37.3125 11.4563L32.1767 0.93722H35.1626L38.8049 8.39496Z"
          fill="white"/>
</svg>
