<svg width="100" height="100" viewBox="0 0 100 100" fill="none" xmlns="http://www.w3.org/2000/svg">
<g clip-path="url(#clip0_1645_999)">
<path d="M50.1613 2.56118L50.1613 2.56119L50.1673 2.5648C50.1631 2.56231 50.1655 2.56379 50.1748 2.56966C50.1997 2.5855 50.2751 2.63329 50.4084 2.721C50.5757 2.83105 50.8108 2.98862 51.1034 3.19067C51.6887 3.59485 52.4984 4.1734 53.4498 4.90174C54.7007 5.85929 56.1843 7.06644 57.7189 8.46792C55.2828 9.81531 52.5973 11.506 49.9467 13.5384C47.2944 11.5051 44.6075 9.81395 42.1703 8.46626C43.7044 7.0654 45.1875 5.85869 46.4379 4.90142C47.3892 4.17317 48.1989 3.59465 48.784 3.19046C49.0766 2.9884 49.3117 2.83081 49.479 2.72073C49.6131 2.63247 49.6888 2.58447 49.7136 2.56877C49.7226 2.5631 49.7249 2.56163 49.7209 2.56401L49.7256 2.56118C49.8619 2.47958 50.0251 2.47963 50.1613 2.56118Z" fill="white" stroke="#81B751" stroke-width="5"/>
<path d="M72.7834 13.0509L70.8999 14.6948C71.1012 14.9255 74.9538 19.3912 78.03 25.657C75.5683 26.304 72.3753 27.3087 68.9323 28.811C65.6698 24.8925 62.2621 21.8409 59.7905 19.8456C65.2189 16.3897 70.1817 14.6606 70.4395 14.5725L70.4395 14.5725L70.4519 14.5682C70.5875 14.521 70.7802 14.5586 70.9054 14.7011L72.7834 13.0509ZM72.7834 13.0509C71.9966 12.1556 70.7408 11.8208 69.6306 12.2069L80.519 25.0612C77.2611 18.2373 73.0452 13.3508 72.7834 13.0509Z" fill="white" stroke="#81B751" stroke-width="5"/>
<path d="M21.8619 25.6607C24.9379 19.3949 28.7898 14.9287 28.9877 14.7033L28.9878 14.7031C29.1064 14.5687 29.3047 14.5218 29.455 14.5731L30.2619 12.2069L29.4533 14.5725C29.711 14.6605 34.6722 16.3891 40.0993 19.8433C37.6275 21.8384 34.2178 24.8909 30.9528 28.8116C27.5179 27.3137 24.3284 26.3092 21.8619 25.6607Z" fill="white" stroke="#81B751" stroke-width="5"/>
<path d="M59.297 34.2752C58.031 35.1992 56.7905 36.2094 55.5955 37.3116C54.0728 36.4365 52.3879 35.7817 49.9447 35.7819L59.297 34.2752ZM59.297 34.2752C54.8819 29.4045 50.4085 26.3572 50.186 26.208L59.297 34.2752ZM40.5934 34.2744C45.0069 29.4053 49.4782 26.3589 49.7029 26.2081L40.5934 34.2744ZM40.5934 34.2744C41.8596 35.1984 43.1002 36.2083 44.2952 37.3103C45.8167 36.4339 47.4934 35.7819 49.9445 35.7819L40.5934 34.2744ZM49.7032 26.2079C49.8511 26.109 50.0385 26.1092 50.1859 26.2079H49.7032Z" fill="white" stroke="#81B751" stroke-width="5"/>
<path d="M84.8448 35.6492L84.8459 35.652C84.8458 35.6517 84.8464 35.6532 84.8477 35.6566C84.849 35.6601 84.851 35.6654 84.8539 35.673L84.8758 35.7318C84.8942 35.7819 84.9196 35.8518 84.9511 35.9406C85.0141 36.1183 85.1008 36.3697 85.2048 36.688C85.4128 37.3247 85.6889 38.2257 85.9819 39.3349C86.4288 41.0269 86.911 43.1881 87.2535 45.6247C81.4585 46.4991 75.7703 47.9211 70.2587 49.8311C68.3775 47.6005 66.3978 45.6362 64.5133 43.9626C72.774 37.3568 83.6401 35.4941 84.3676 35.3776C84.5841 35.3483 84.7761 35.472 84.8448 35.6492Z" fill="white" stroke="#81B751" stroke-width="5"/>
<path d="M15.0415 35.651L15.0422 35.6492C15.1102 35.4736 15.3067 35.3485 15.5188 35.3775C16.2394 35.4927 27.1116 37.3547 35.3753 43.9623C33.4903 45.6361 31.5109 47.6002 29.6299 49.8304C24.1162 47.9192 18.427 46.4972 12.6335 45.6242C12.9758 43.189 13.4578 41.0289 13.9045 39.3373C14.1977 38.2274 14.4739 37.3259 14.682 36.6887C14.7861 36.3702 14.8728 36.1185 14.9359 35.9407C14.9674 35.8518 14.9928 35.7818 15.0113 35.7316L15.0333 35.6725C15.0387 35.6583 15.0413 35.6515 15.0415 35.651L15.0415 35.651Z" fill="white" stroke="#81B751" stroke-width="5"/>
<path d="M50.1673 46.7004L50.1673 46.7005L50.1777 46.7066C50.433 46.8578 55.1842 49.7408 59.726 54.3192C56.3924 55.9018 53.1101 57.6514 49.9497 59.6536C46.7891 57.6516 43.5072 55.9019 40.174 54.3193C44.7158 49.7413 49.4666 46.8579 49.7229 46.7058L49.7229 46.7059L49.732 46.7004C49.8682 46.6189 50.0312 46.6189 50.1673 46.7004Z" fill="white" stroke="#81B751" stroke-width="5"/>
<path d="M61.8988 92.2293L61.8985 92.2281C61.2167 88.8631 58.9049 85.4706 56.0836 82.4871C53.9558 80.237 51.6762 78.3634 49.9486 77.0772C48.1884 78.3865 45.8566 80.3043 43.6961 82.6084C40.8421 85.6519 38.5442 89.0989 37.9467 92.5L61.8988 92.2293ZM61.8988 92.2293C62.1481 93.4565 62.1308 94.6465 61.8716 95.8415C58.0866 96.9076 54.0921 97.4999 49.9494 97.4999C45.7978 97.4999 41.7954 96.9045 38.0034 95.834M61.8988 92.2293L38.0034 95.834M38.0034 95.834C37.7721 94.7349 37.7484 93.6343 37.9465 92.5014L38.0034 95.834Z" fill="white" stroke="#81B751" stroke-width="5"/>
<path d="M9.04547 56.0904L9.04547 56.0904L9.05533 56.0917C21.2897 57.6341 33.0073 61.8732 43.4061 68.4108C41.4965 69.8372 39.078 71.819 36.692 74.2419C32.639 78.3576 28.4132 84.0136 27.2503 90.6079L27.2502 90.6086C27.2202 90.7789 27.1927 90.9489 27.1676 91.1183C15.1801 83.7354 7.67498 70.7109 8.57275 56.4882C8.58041 56.3706 8.6364 56.2638 8.72295 56.1928L8.72297 56.1928L8.73251 56.1849C8.82283 56.11 8.94704 56.0776 9.04547 56.0904Z" fill="white" stroke="#81B751" stroke-width="5"/>
<path d="M91.1622 56.1849L91.1622 56.1849C91.07 56.1084 90.9576 56.0765 90.8436 56.0911L90.8394 56.0916C78.6074 57.6341 66.8883 61.8729 56.4894 68.4104C58.3538 69.8033 60.7026 71.7252 63.0324 74.0695C67.0308 78.0927 71.2265 83.6114 72.5376 90.0504L91.1622 56.1849ZM91.1622 56.1849L91.172 56.193C91.2587 56.2641 91.3145 56.3708 91.3219 56.4881C92.2202 70.7177 84.7083 83.7395 72.7205 91.12M91.1622 56.1849L72.7205 91.12M72.7205 91.12C72.6714 90.7668 72.611 90.4105 72.5378 90.0514L72.7205 91.12Z" fill="white" stroke="#81B751" stroke-width="5"/>
</g>
<defs>
<clipPath id="clip0_1645_999">
<rect width="1920" height="2628" fill="white" transform="translate(-764 -386)"/>
</clipPath>
</defs>
</svg>
