<svg width="29" height="28" viewBox="0 0 29 28" fill="none" xmlns="http://www.w3.org/2000/svg">
<rect width="29" height="28" rx="14" fill="#E60023"/>
<path d="M13.0015 20.2961C13.4713 21.1643 14.8484 21.8995 16.3106 21.8995C20.6646 21.8995 23.7995 18.0319 23.7995 13.2296C23.7995 8.62683 19.9072 5.18158 14.9011 5.18158C8.67173 5.18158 5.3667 9.21733 5.3667 13.6168C5.3667 15.662 6.49268 18.2039 8.29505 19.0134C8.57047 19.1386 8.71628 19.0838 8.77703 18.8296C8.82564 18.6341 9.06865 17.6916 9.17801 17.2497C9.21852 17.109 9.18206 16.9564 9.07676 16.8509C8.48136 16.1509 8.00343 14.8682 8.00343 13.6715C8.00343 10.5978 10.4133 7.6218 14.5203 7.6218C18.0684 7.6218 20.5512 9.95253 20.5512 13.2922C20.5512 17.062 18.5787 19.6743 16.0108 19.6743C14.5932 19.6743 13.5321 18.5442 13.8723 17.1559C14.2814 15.4978 15.0671 13.7106 15.0671 12.514C15.0671 11.4425 14.4717 10.5509 13.2404 10.5509C11.7904 10.5509 10.628 11.9978 10.628 13.9335C10.628 15.1693 11.0614 16.0023 11.0614 16.0023C11.0614 16.0023 9.63164 21.8408 9.36838 22.9279C9.06865 24.1793 9.20636 25.9743 9.33597 27.0693C9.63164 27.1788 9.92326 27.2883 10.227 27.3782C10.8143 26.4671 11.7621 24.8637 12.0983 23.6045C12.2765 22.9592 13.0015 20.2961 13.0015 20.2961Z" fill="white"/>
</svg>
