<svg width="63" height="63" viewBox="0 0 63 63" fill="none" xmlns="http://www.w3.org/2000/svg">
<path d="M18.375 18.375C21.2745 18.375 23.625 16.0245 23.625 13.125C23.625 10.2255 21.2745 7.875 18.375 7.875C15.4755 7.875 13.125 10.2255 13.125 13.125C13.125 16.0245 15.4755 18.375 18.375 18.375Z" stroke="#81B751" stroke-width="4" stroke-linecap="round" stroke-linejoin="round"/>
<path d="M13.125 57.75V44.625L10.5 42V31.5C10.5 30.8038 10.7766 30.1362 11.2688 29.6439C11.7611 29.1516 12.4288 28.875 13.125 28.875H23.625C24.3212 28.875 24.9889 29.1516 25.4812 29.6439C25.9734 30.1362 26.25 30.8038 26.25 31.5V42L23.625 44.625V57.75" stroke="#81B751" stroke-width="4" stroke-linecap="round" stroke-linejoin="round"/>
<path d="M44.625 18.375C47.5245 18.375 49.875 16.0245 49.875 13.125C49.875 10.2255 47.5245 7.875 44.625 7.875C41.7255 7.875 39.375 10.2255 39.375 13.125C39.375 16.0245 41.7255 18.375 44.625 18.375Z" stroke="#81B751" stroke-width="4" stroke-linecap="round" stroke-linejoin="round"/>
<path d="M39.375 57.75V47.25H34.125L39.375 31.5C39.375 30.8038 39.6516 30.1362 40.1438 29.6439C40.6361 29.1516 41.3038 28.875 42 28.875H47.25C47.9462 28.875 48.6139 29.1516 49.1062 29.6439C49.5984 30.1362 49.875 30.8038 49.875 31.5L55.125 47.25H49.875V57.75" stroke="#81B751" stroke-width="4" stroke-linecap="round" stroke-linejoin="round"/>
</svg>
