<svg width="63" height="63" viewBox="0 0 63 63" fill="none" xmlns="http://www.w3.org/2000/svg">
<path d="M15.75 55.125C18.6495 55.125 21 52.7745 21 49.875C21 46.9755 18.6495 44.625 15.75 44.625C12.8505 44.625 10.5 46.9755 10.5 49.875C10.5 52.7745 12.8505 55.125 15.75 55.125Z" stroke="#81B751" stroke-width="4" stroke-linecap="round" stroke-linejoin="round"/>
<path d="M44.625 55.125C47.5245 55.125 49.875 52.7745 49.875 49.875C49.875 46.9755 47.5245 44.625 44.625 44.625C41.7255 44.625 39.375 46.9755 39.375 49.875C39.375 52.7745 41.7255 55.125 44.625 55.125Z" stroke="#81B751" stroke-width="4" stroke-linecap="round" stroke-linejoin="round"/>
<path d="M44.625 44.625H15.75V7.875H10.5" stroke="#81B751" stroke-width="4" stroke-linecap="round" stroke-linejoin="round"/>
<path d="M52.5 15.75L49.875 34.125H15.75" stroke="#81B751" stroke-width="4" stroke-linecap="round" stroke-linejoin="round"/>
<path d="M26.25 26.25L42 10.5" stroke="#81B751" stroke-width="4" stroke-linecap="round" stroke-linejoin="round"/>
<path d="M27.5625 13.125C28.2874 13.125 28.875 12.5374 28.875 11.8125C28.875 11.0876 28.2874 10.5 27.5625 10.5C26.8376 10.5 26.25 11.0876 26.25 11.8125C26.25 12.5374 26.8376 13.125 27.5625 13.125Z" stroke="#81B751" stroke-width="4" stroke-linecap="round" stroke-linejoin="round"/>
<path d="M40.6875 26.25C41.4124 26.25 42 25.6624 42 24.9375C42 24.2126 41.4124 23.625 40.6875 23.625C39.9626 23.625 39.375 24.2126 39.375 24.9375C39.375 25.6624 39.9626 26.25 40.6875 26.25Z" stroke="#81B751" stroke-width="4" stroke-linecap="round" stroke-linejoin="round"/>
</svg>
