<svg id="Layer_1" data-name="Layer 1" xmlns="http://www.w3.org/2000/svg" viewBox="0 0 313 150"><defs><style>.cls-1{fill:#00d800;}.cls-2{fill:#fff;}</style></defs><path class="cls-1" d="M75.33,149.45H237.47a74.55,74.55,0,0,0,0-149.1H75.33a74.55,74.55,0,0,0,0,149.1Z"/><path class="cls-2" d="M156.81,82.82V99.53h-9.58V45.88h17.85c16.94,0,24.14,6.06,24.14,18.17,0,12.49-8.43,18.77-24.14,18.77Zm0-28.12V74h9c8.89,0,13.49-2.91,13.49-10.19,0-6.59-4-9.12-13.33-9.12Z"/><path class="cls-2" d="M194.28,63.89C196.8,62,201.4,60.44,208,60.44c11.19,0,16.71,3.84,16.71,13.8V99.53h-8.43v-6.9c-1.84,4.44-6.51,7.51-12.65,7.51-7.74,0-12.33-4.37-12.33-11.88,0-8.74,6.36-11.19,15.78-11.19h8.66V75.39c0-5.44-2.6-7.13-7.74-7.13-7.05,0-11.11,2.76-13.71,6.82ZM215.73,86V82.9h-7.58c-5.29,0-7.82,1-7.82,4.44,0,2.91,2.14,4.75,6.13,4.75C212.51,92.09,215.35,88.64,215.73,86Z"/><path class="cls-2" d="M229.14,61.21h10l10.5,26.28,8.58-26.28h9.5l-15.32,42.38c-3.38,9.19-6.82,11.26-11.88,11.26-2.38,0-5-.69-6.13-1.68v-8.36a6.76,6.76,0,0,0,4.6,1.92c2.75,0,4.82-1.84,6.28-7Z"/><path class="cls-2" d="M59.51,63.93V75.7l15.6,9.78L112.46,58a41,41,0,0,0-4.92-8.15L75.11,73.71Z"/><path class="cls-2" d="M106.62,74c0,.28,0,.57,0,.85a31.55,31.55,0,1,1-13.75-26l8-5.87A41,41,0,1,0,116.1,74.87a41.43,41.43,0,0,0-.66-7.35Z"/></svg>