<svg width="26" height="25" viewBox="0 0 26 25" fill="none" xmlns="http://www.w3.org/2000/svg">
<path d="M20.3171 6.39969H16.4696V5.31302C16.4696 4.1602 15.9291 3.0546 14.967 2.23943C14.005 1.42426 12.7002 0.966309 11.3396 0.966309C9.97903 0.966309 8.67419 1.42426 7.71213 2.23943C6.75007 3.0546 6.20959 4.1602 6.20959 5.31302V6.39969H2.36209C2.02195 6.39969 1.69574 6.51418 1.45523 6.71797C1.21471 6.92177 1.07959 7.19817 1.07959 7.48637V19.4398C1.07959 20.3044 1.48495 21.1336 2.2065 21.745C2.92804 22.3564 3.90667 22.6998 4.92709 22.6998H17.7521C18.7725 22.6998 19.7511 22.3564 20.4727 21.745C21.1942 21.1336 21.5996 20.3044 21.5996 19.4398V7.48637C21.5996 7.19817 21.4645 6.92177 21.224 6.71797C20.9834 6.51418 20.6572 6.39969 20.3171 6.39969ZM8.77459 5.31302C8.77459 4.73661 9.04483 4.18381 9.52586 3.77622C10.0069 3.36864 10.6593 3.13966 11.3396 3.13966C12.0199 3.13966 12.6723 3.36864 13.1533 3.77622C13.6343 4.18381 13.9046 4.73661 13.9046 5.31302V6.39969H8.77459V5.31302ZM19.0346 19.4398C19.0346 19.728 18.8995 20.0044 18.659 20.2082C18.4184 20.412 18.0922 20.5265 17.7521 20.5265H4.92709C4.58695 20.5265 4.26074 20.412 4.02023 20.2082C3.77971 20.0044 3.64459 19.728 3.64459 19.4398V8.57305H6.20959V9.65972C6.20959 9.94793 6.34471 10.2243 6.58523 10.4281C6.82574 10.6319 7.15195 10.7464 7.49209 10.7464C7.83223 10.7464 8.15844 10.6319 8.39895 10.4281C8.63947 10.2243 8.77459 9.94793 8.77459 9.65972V8.57305H13.9046V9.65972C13.9046 9.94793 14.0397 10.2243 14.2802 10.4281C14.5207 10.6319 14.8469 10.7464 15.1871 10.7464C15.5272 10.7464 15.8534 10.6319 16.094 10.4281C16.3345 10.2243 16.4696 9.94793 16.4696 9.65972V8.57305H19.0346V19.4398Z" fill="#81B751" stroke="#81B751" stroke-width="0.5"/>
</svg>
