<svg width="33" height="33" viewBox="0 0 33 33" fill="none" xmlns="http://www.w3.org/2000/svg">
<path d="M29.2652 11.3793L21.0829 10.1901L17.4252 2.77482C17.3253 2.57179 17.1609 2.40743 16.9579 2.30753C16.4487 2.05616 15.83 2.26564 15.5754 2.77482L11.9177 10.1901L3.73534 11.3793C3.50975 11.4115 3.3035 11.5179 3.14559 11.679C2.95469 11.8752 2.84949 12.1392 2.85312 12.4129C2.85674 12.6867 2.9689 12.9478 3.16493 13.1389L9.08495 18.9107L7.68632 27.0608C7.65352 27.2503 7.6745 27.4453 7.74688 27.6236C7.81926 27.8019 7.94014 27.9563 8.09581 28.0694C8.25149 28.1824 8.43574 28.2496 8.62765 28.2633C8.81957 28.277 9.01148 28.2366 9.18163 28.1468L16.5003 24.2989L23.8189 28.1468C24.0187 28.2531 24.2508 28.2886 24.4731 28.2499C25.0339 28.1532 25.4109 27.6215 25.3142 27.0608L23.9156 18.9107L29.8356 13.1389C29.9968 12.981 30.1031 12.7747 30.1353 12.5491C30.2223 11.9852 29.8292 11.4631 29.2652 11.3793Z" fill="#81B751"/>
</svg>
