<svg width="24" height="24" viewBox="0 0 24 24" fill="none" xmlns="http://www.w3.org/2000/svg">
<path d="M14.8849 7.63217L15.0012 7.86797L15.2614 7.90578L21.2106 8.77039C21.2108 8.77043 21.211 8.77046 21.2112 8.77049C21.3527 8.79186 21.4428 8.92022 21.4227 9.05036L21.4227 9.05036L21.4219 9.05589C21.4143 9.10892 21.3893 9.15874 21.3493 9.19809C21.3492 9.1982 21.349 9.1983 21.3489 9.1984L17.0444 13.3952L16.8562 13.5787L16.9006 13.8377L17.9178 19.7651L17.9179 19.7655C17.9411 19.8999 17.8509 20.029 17.714 20.0526L17.7132 20.0527C17.6588 20.0622 17.6031 20.053 17.5581 20.029L17.5558 20.0278L12.2331 17.2294L12.0005 17.107L11.7678 17.2294L6.44513 20.0278L6.44436 20.0282C6.40324 20.0499 6.35686 20.0597 6.31049 20.0564C6.26411 20.053 6.21958 20.0368 6.18196 20.0095C6.14434 19.9822 6.11512 19.9448 6.09763 19.9018L5.63436 20.0899L6.09763 19.9018C6.08014 19.8587 6.07507 19.8116 6.083 19.7657L6.08311 19.7651L7.1003 13.8377L7.14476 13.5787L6.95654 13.3952L2.65108 9.1975L2.65104 9.19747C2.60337 9.151 2.5761 9.08751 2.57522 9.02094C2.57434 8.95467 2.59969 8.89075 2.64571 8.84311C2.68502 8.80328 2.73471 8.77835 2.78759 8.7708L2.78879 8.77062L8.73957 7.90578L8.99976 7.86797L9.11607 7.63217L11.775 2.24162C11.7752 2.24132 11.7753 2.24102 11.7755 2.24072C11.8386 2.11565 11.9902 2.06639 12.1119 2.12651L12.1125 2.1268C12.1612 2.15073 12.2006 2.19013 12.2245 2.23876L12.2247 2.2392L14.8849 7.63217Z" fill="white" stroke="#81B751"/>
</svg>
