<!--
  - Изменено: 06 декабря 2021, понедельник
  - Автор: Артамонов Денис <software.engineer@internet.ru>
  - copyright (c) 2021
  -->

<svg width="33" height="33" viewBox="0 0 33 33" fill="none" xmlns="http://www.w3.org/2000/svg">
    <path d="M4.125 5.5C3.39565 5.5 2.69618 5.78973 2.18046 6.30546C1.66473 6.82118 1.375 7.52065 1.375 8.25V23.375H4.125C4.125 24.469 4.5596 25.5182 5.33318 26.2918C6.10677 27.0654 7.15598 27.5 8.25 27.5C9.34402 27.5 10.3932 27.0654 11.1668 26.2918C11.9404 25.5182 12.375 24.469 12.375 23.375H20.625C20.625 24.469 21.0596 25.5182 21.8332 26.2918C22.6068 27.0654 23.656 27.5 24.75 27.5C25.844 27.5 26.8932 27.0654 27.6668 26.2918C28.4404 25.5182 28.875 24.469 28.875 23.375H31.625V16.5L27.5 11H23.375V5.5H4.125ZM13.75 8.25L19.25 13.75L13.75 19.25V15.125H5.5V12.375H13.75V8.25ZM23.375 13.0625H26.8125L29.5212 16.5H23.375V13.0625ZM8.25 21.3125C8.79701 21.3125 9.32161 21.5298 9.70841 21.9166C10.0952 22.3034 10.3125 22.828 10.3125 23.375C10.3125 23.922 10.0952 24.4466 9.70841 24.8334C9.32161 25.2202 8.79701 25.4375 8.25 25.4375C7.70299 25.4375 7.17839 25.2202 6.79159 24.8334C6.4048 24.4466 6.1875 23.922 6.1875 23.375C6.1875 22.828 6.4048 22.3034 6.79159 21.9166C7.17839 21.5298 7.70299 21.3125 8.25 21.3125ZM24.75 21.3125C25.297 21.3125 25.8216 21.5298 26.2084 21.9166C26.5952 22.3034 26.8125 22.828 26.8125 23.375C26.8125 23.922 26.5952 24.4466 26.2084 24.8334C25.8216 25.2202 25.297 25.4375 24.75 25.4375C24.203 25.4375 23.6784 25.2202 23.2916 24.8334C22.9048 24.4466 22.6875 23.922 22.6875 23.375C22.6875 22.828 22.9048 22.3034 23.2916 21.9166C23.6784 21.5298 24.203 21.3125 24.75 21.3125Z"
          fill="#81B751"/>
</svg>
