<svg width="29" height="28" viewBox="0 0 29 28" fill="none" xmlns="http://www.w3.org/2000/svg">
<rect width="29" height="28" rx="14" fill="#1DA1F2"/>
<path d="M21.6063 10.974C21.6063 11.1271 21.6063 11.2802 21.6063 11.4115C21.6063 15.9396 18.0267 21.1677 11.5017 21.1677C9.48525 21.1677 7.62744 20.599 6.0415 19.6365C6.31338 19.6583 6.60791 19.6802 6.87978 19.6802C8.53369 19.6802 10.0743 19.1333 11.2978 18.2146C9.73447 18.1927 8.42041 17.1865 7.98994 15.8302C8.2165 15.874 8.42041 15.8958 8.66963 15.8958C8.98682 15.8958 9.304 15.8521 9.59853 15.7646C7.96728 15.4583 6.74385 14.0802 6.74385 12.4177C6.74385 12.3958 6.74385 12.3958 6.74385 12.374C7.21963 12.6365 7.76338 12.7896 8.35244 12.8115C7.40088 12.199 6.7665 11.149 6.7665 9.94584C6.7665 9.31147 6.94775 8.72084 7.24229 8.21772C8.98682 10.2958 11.6149 11.6521 14.5603 11.8052C14.4923 11.5646 14.4696 11.2802 14.4696 11.0177C14.4696 9.11459 16.0556 7.58334 18.0267 7.58334C19.0462 7.58334 19.9751 7.99897 20.6095 8.65522C21.4251 8.50209 22.1728 8.21772 22.8751 7.82397C22.6032 8.63334 22.0368 9.28959 21.3118 9.72709C22.0368 9.63959 22.7165 9.46459 23.3509 9.18022C22.8978 9.88022 22.3087 10.4927 21.6063 10.974Z" fill="white"/>
</svg>
