<svg width="28" height="28" viewBox="0 0 28 28" fill="none" xmlns="http://www.w3.org/2000/svg">
<rect width="28" height="28" rx="14" fill="#5181B8"/>
<path fill-rule="evenodd" clip-rule="evenodd" d="M22.9049 9.6452C23.0347 9.21255 22.9049 8.89456 22.2873 8.89456H20.2451C19.7259 8.89456 19.4866 9.16923 19.3568 9.4722C19.3568 9.4722 18.3182 12.0034 16.847 13.6476C16.371 14.1236 16.1547 14.2749 15.8951 14.2749C15.7653 14.2749 15.5774 14.1236 15.5774 13.691V9.6452C15.5774 9.12591 15.4267 8.89456 14.9939 8.89456H11.7848C11.4604 8.89456 11.2653 9.13553 11.2653 9.36396C11.2653 9.85627 12.0007 9.96975 12.0766 11.3543V14.3617C12.0766 15.021 11.9575 15.1406 11.6979 15.1406C11.0056 15.1406 9.32172 12.5978 8.32282 9.68852C8.12706 9.12299 7.93072 8.89456 7.40881 8.89456H5.36667C4.7832 8.89456 4.6665 9.16923 4.6665 9.4722C4.6665 10.0131 5.35894 12.6959 7.89017 16.2439C9.57786 18.6668 11.9552 19.9805 14.1187 19.9805C15.4169 19.9805 15.5774 19.6887 15.5774 19.1862V17.3549C15.5774 16.7714 15.7004 16.655 16.1113 16.655C16.4144 16.655 16.9335 16.8064 18.1452 17.9747C19.5298 19.3591 19.7579 19.9805 20.5369 19.9805H22.579C23.1625 19.9805 23.4542 19.6887 23.2859 19.113C23.1018 18.5392 22.4407 17.7068 21.5635 16.7199C21.0875 16.1573 20.3735 15.5515 20.1573 15.2487C19.8544 14.8592 19.9409 14.6862 20.1573 14.3402C20.1573 14.3402 22.6452 10.8353 22.9049 9.64534V9.6452Z" fill="white"/>
</svg>
