<svg width="73" height="74" viewBox="0 0 73 74" fill="none" xmlns="http://www.w3.org/2000/svg">
<rect width="73" height="74" rx="24" fill="#6396B6"/>
<path fill-rule="evenodd" clip-rule="evenodd" d="M59.718 25.491C60.0565 24.3475 59.718 23.5071 58.1079 23.5071H52.7837C51.4298 23.5071 50.8062 24.233 50.4677 25.0337C50.4677 25.0337 47.76 31.7234 43.9243 36.0689C42.6834 37.3268 42.1194 37.7266 41.4425 37.7266C41.104 37.7266 40.6142 37.3268 40.6142 36.1834V25.491C40.6142 24.1186 40.2213 23.5071 39.093 23.5071H30.7265C29.8807 23.5071 29.3718 24.144 29.3718 24.7477C29.3718 26.0488 31.2893 26.3487 31.4871 30.0079V37.9559C31.4871 39.6984 31.1767 40.0145 30.4998 40.0145C28.6949 40.0145 24.3048 33.2944 21.7005 25.6055C21.1901 24.1108 20.6783 23.5071 19.3176 23.5071H13.9934C12.4722 23.5071 12.168 24.233 12.168 25.0337C12.168 26.4632 13.9732 33.5534 20.5725 42.9305C24.9726 49.3338 31.1707 52.8056 36.8112 52.8056C40.1959 52.8056 40.6142 52.0346 40.6142 50.7066V45.8665C40.6142 44.3245 40.9348 44.0169 42.0061 44.0169C42.7963 44.0169 44.1498 44.417 47.3089 47.5045C50.9187 51.1634 51.5135 52.8056 53.5443 52.8056H58.8685C60.3896 52.8056 61.1502 52.0346 60.7114 50.513C60.2314 48.9965 58.5079 46.7968 56.2208 44.1884C54.9799 42.7015 53.1184 41.1005 52.5548 40.3002C51.7649 39.2709 51.9904 38.8137 52.5548 37.8993C52.5548 37.8993 59.0411 28.6363 59.718 25.4913V25.491Z" fill="white"/>
</svg>
