<?xml version="1.0" standalone="no"?>
<!--
  - Изменено: 08 сентября 2021, среда
  - Автор: Артамонов Денис <software.engineer@internet.ru>
  - copyright (c) 2021
  -->

<!DOCTYPE svg PUBLIC "-//W3C//DTD SVG 20010904//EN"
        "http://www.w3.org/TR/2001/REC-SVG-20010904/DTD/svg10.dtd">
<svg version="1.0" xmlns="http://www.w3.org/2000/svg"
     width="700.000000pt" height="700.000000pt" viewBox="0 0 700.000000 700.000000"
     preserveAspectRatio="xMidYMid meet">
    <metadata>
        Created by potrace 1.14, written by Peter Selinger 2001-2017
    </metadata>
    <g transform="translate(0.000000,700.000000) scale(0.100000,-0.100000)"
       fill="#000000" stroke="none">
        <path d="M3427 6994 c-1 -1 -65 -4 -141 -8 -77 -4 -142 -9 -145 -10 -3 -2 -37
-7 -76 -11 -38 -3 -88 -10 -110 -15 -22 -4 -47 -8 -55 -8 -8 0 -49 -7 -90 -17
-41 -9 -82 -18 -90 -20 -8 -2 -41 -10 -72 -18 -31 -8 -59 -12 -62 -9 -3 3 -6
1 -6 -5 0 -5 -6 -10 -12 -11 -82 -5 -436 -141 -648 -247 -172 -87 -387 -223
-566 -359 -22 -17 -43 -35 -49 -41 -5 -6 -23 -21 -40 -34 -85 -65 -315 -289
-396 -386 -19 -22 -40 -46 -47 -53 -7 -8 -25 -30 -40 -50 -15 -21 -29 -39 -32
-42 -28 -28 -134 -177 -195 -274 -60 -95 -138 -231 -156 -268 -11 -24 -24 -50
-29 -58 -5 -8 -21 -42 -35 -75 -15 -33 -33 -73 -41 -90 -53 -120 -122 -311
-155 -435 -7 -25 -14 -49 -15 -55 -36 -122 -85 -405 -102 -580 -15 -161 -5
-714 13 -745 1 -3 6 -31 9 -63 6 -48 25 -158 42 -242 2 -11 6 -33 10 -50 3
-16 8 -37 11 -45 3 -8 7 -22 9 -30 45 -224 210 -632 359 -886 118 -201 291
-439 434 -598 92 -102 280 -282 351 -336 18 -14 44 -35 59 -48 53 -47 230
-172 347 -245 193 -121 399 -221 624 -304 140 -52 264 -91 345 -109 6 -1 28
-6 50 -12 22 -6 51 -13 65 -16 14 -3 39 -8 55 -12 17 -3 39 -7 50 -9 11 -1 36
-5 55 -8 70 -14 96 -17 150 -23 30 -2 64 -7 75 -9 109 -23 629 -23 740 0 11 2
43 6 70 9 49 6 241 38 300 51 98 21 163 38 270 70 66 20 127 38 135 42 8 3 20
7 25 8 25 6 278 113 355 151 47 22 89 41 94 42 5 0 12 4 15 9 3 4 23 17 43 28
190 103 383 236 573 394 83 69 300 281 370 361 211 243 371 483 509 764 75
153 164 362 170 398 1 7 4 18 8 23 6 9 66 210 73 245 2 8 11 47 20 85 9 39 18
77 20 85 1 8 6 33 10 55 5 22 9 49 10 60 2 11 5 34 8 50 27 145 43 377 41 585
-2 219 -11 324 -49 555 -49 293 -144 601 -268 865 -12 25 -22 47 -22 50 -4 29
-220 402 -236 408 -5 2 -9 8 -9 14 0 5 -8 20 -17 33 -10 12 -25 33 -33 45
-116 174 -391 479 -560 620 -36 30 -67 57 -70 61 -37 40 -284 216 -430 305
-196 120 -546 278 -740 334 -41 12 -94 28 -117 36 -23 7 -52 16 -65 18 -13 3
-54 12 -93 21 -38 9 -81 18 -95 21 -14 2 -47 9 -75 14 -50 10 -68 12 -180 25
-33 4 -68 9 -78 11 -37 7 -423 23 -430 18z m348 -59 c55 -4 108 -9 118 -11 11
-2 45 -6 76 -10 31 -3 65 -8 76 -10 10 -2 35 -6 55 -9 20 -3 47 -8 60 -11 14
-3 36 -7 50 -10 14 -3 41 -9 60 -14 19 -5 48 -11 63 -14 15 -3 54 -12 85 -21
31 -10 64 -18 72 -20 32 -7 258 -89 318 -116 34 -15 62 -26 62 -24 0 2 78 -35
173 -83 164 -84 357 -197 398 -235 10 -10 19 -15 19 -12 0 3 17 -7 37 -22 21
-15 42 -31 48 -35 21 -16 232 -188 260 -213 49 -43 186 -178 239 -236 64 -69
249 -299 272 -339 10 -16 22 -30 26 -30 4 0 8 -4 8 -9 0 -5 27 -50 60 -100 33
-50 60 -92 60 -94 0 -2 22 -42 48 -88 55 -97 93 -174 167 -344 23 -53 83 -209
93 -245 6 -19 20 -66 32 -105 21 -70 26 -89 34 -123 2 -9 9 -35 14 -57 6 -22
13 -53 16 -70 3 -16 7 -41 10 -55 3 -13 8 -42 12 -65 3 -22 9 -60 14 -85 5
-24 6 -48 4 -52 -3 -5 -2 -8 3 -8 4 0 8 -12 8 -27 1 -16 5 -71 10 -123 16
-164 9 -687 -9 -720 -2 -3 -7 -34 -10 -69 -4 -36 -8 -67 -10 -70 -2 -3 -7 -26
-10 -51 -3 -25 -8 -56 -11 -70 -15 -72 -17 -86 -18 -97 0 -7 -4 -13 -9 -13 -5
0 -7 -4 -4 -8 7 -11 -44 -202 -88 -329 -41 -119 -136 -342 -194 -453 -46 -89
-80 -148 -195 -335 -18 -29 -201 -276 -227 -305 -118 -135 -283 -304 -360
-370 -124 -106 -229 -189 -313 -246 -39 -26 -75 -53 -79 -59 -5 -6 -8 -6 -8 0
0 6 -3 5 -8 -1 -26 -40 -408 -241 -602 -317 -143 -56 -338 -121 -397 -132 -10
-2 -18 -4 -18 -5 0 -1 -8 -3 -19 -5 -10 -2 -39 -9 -65 -15 -25 -6 -56 -12 -69
-15 -13 -2 -31 -6 -40 -9 -9 -3 -37 -8 -62 -11 -45 -5 -85 -12 -85 -15 0 -1
-20 -3 -45 -5 -25 -2 -59 -6 -75 -9 -141 -26 -610 -27 -800 -2 -11 2 -47 6
-80 11 -33 4 -69 9 -80 11 -36 7 -90 17 -110 20 -11 1 -20 3 -20 4 0 1 -13 4
-30 6 -111 17 -461 125 -583 180 -29 13 -54 24 -56 24 -2 0 -25 10 -52 22 -27
12 -51 23 -54 23 -17 3 -219 112 -317 171 -69 41 -247 161 -277 185 -6 5 -40
32 -76 60 -164 129 -364 321 -497 479 -86 103 -203 258 -248 330 -15 25 -33
48 -39 52 -6 5 -7 8 -1 8 6 0 6 3 0 8 -26 17 -161 270 -248 462 -46 102 -157
424 -170 495 -2 11 -7 27 -10 35 -5 13 -9 30 -22 105 -2 11 -4 21 -5 23 -3 3
-5 11 -14 60 -13 73 -17 96 -19 125 -1 15 -4 27 -7 27 -3 0 -5 12 -6 28 0 15
-4 52 -7 82 -25 226 -26 565 -3 750 3 19 7 58 11 85 9 82 14 119 20 141 2 12
7 39 11 60 11 77 64 286 100 396 148 457 354 824 678 1212 54 66 268 279 335
336 30 25 64 55 77 68 13 12 27 22 33 22 5 0 11 3 13 8 2 4 28 26 58 49 30 24
60 46 65 51 6 4 33 23 60 42 28 19 53 40 57 45 5 7 8 7 8 0 0 -5 6 -3 13 5 7
8 24 21 37 29 14 8 72 42 130 76 203 119 442 224 680 301 103 33 230 67 258
67 12 1 22 4 22 7 0 4 6 7 13 8 6 1 28 4 47 6 19 2 35 5 35 6 0 2 35 10 70 15
17 3 41 7 55 10 14 3 48 7 75 10 28 3 64 7 80 10 17 2 77 7 135 11 58 3 106 7
107 8 5 5 328 -2 418 -9z"/>
        <path d="M3276 6882 c-2 -2 -35 -5 -72 -7 -66 -5 -201 -21 -254 -31 -14 -2
-43 -7 -65 -10 -107 -16 -468 -119 -585 -167 -14 -5 -30 -11 -35 -12 -22 -5
-229 -98 -293 -132 -134 -71 -285 -157 -318 -182 -12 -9 -32 -23 -44 -31 -212
-140 -474 -369 -637 -557 -26 -30 -58 -66 -71 -79 -32 -36 -164 -211 -198
-264 -16 -25 -32 -47 -35 -50 -14 -12 -147 -245 -200 -350 -46 -91 -152 -336
-157 -360 0 -3 -3 -12 -6 -20 -49 -140 -109 -360 -121 -437 -3 -22 -10 -54
-15 -72 -5 -17 -9 -34 -9 -36 -1 -3 -1 -6 -2 -7 0 -2 -2 -21 -4 -43 -3 -21 -7
-55 -10 -75 -4 -19 -8 -55 -10 -80 -3 -25 -7 -72 -11 -105 -8 -72 -11 -505 -4
-505 3 0 6 -21 6 -47 1 -45 7 -100 20 -183 2 -19 7 -53 9 -75 3 -22 7 -51 10
-65 2 -14 10 -50 16 -80 25 -128 93 -368 126 -450 3 -8 7 -19 8 -25 8 -31 91
-228 134 -317 266 -546 681 -1022 1179 -1352 53 -35 113 -73 132 -84 19 -11
69 -39 110 -62 132 -76 413 -203 475 -216 11 -2 29 -8 40 -13 81 -40 419 -126
572 -147 26 -3 57 -8 68 -10 11 -3 43 -7 70 -10 28 -2 70 -7 95 -10 57 -7 562
-13 574 -6 5 3 29 6 55 8 57 4 125 12 231 28 183 27 498 112 655 177 17 7 33
13 38 14 4 2 9 4 12 5 3 1 8 3 13 4 4 1 29 12 56 24 27 12 50 22 52 22 6 0
232 113 274 137 215 123 368 230 575 403 38 32 289 282 337 336 20 23 77 95
127 160 50 66 100 131 111 146 11 14 20 29 20 33 0 3 5 11 10 18 32 38 177
291 220 382 12 28 38 82 56 120 61 132 159 423 194 580 7 28 14 58 16 68 12
52 15 65 19 97 2 19 6 45 9 56 11 50 26 167 31 232 2 26 4 47 5 47 1 0 4 74 6
165 3 91 6 173 8 183 2 9 1 17 -2 17 -4 0 -7 37 -8 83 -1 76 -7 159 -20 267
-9 82 -13 105 -18 130 -4 14 -8 39 -10 55 -4 29 -8 47 -42 190 -66 283 -200
618 -349 875 -21 36 -43 75 -49 87 -6 13 -14 23 -18 23 -5 0 -8 7 -8 15 0 8
-4 15 -10 15 -5 0 -10 6 -10 13 0 12 -163 240 -210 294 -14 15 -45 53 -70 83
-93 114 -330 342 -470 452 -128 100 -348 248 -369 248 -6 0 -11 5 -11 10 0 6
-6 10 -14 10 -8 0 -16 3 -18 8 -4 10 -266 142 -368 185 -73 30 -287 106 -385
136 -47 15 -236 59 -275 65 -19 3 -46 8 -60 11 -14 3 -41 8 -60 10 -19 2 -44
6 -56 9 -26 5 -119 16 -209 23 -78 6 -494 10 -499 5z m519 -186 c17 -3 55 -7
85 -10 30 -3 64 -8 75 -10 11 -2 43 -7 70 -10 28 -4 57 -9 65 -11 8 -2 29 -7
45 -10 17 -2 41 -7 55 -10 14 -4 34 -7 46 -9 11 -2 25 -6 31 -9 5 -3 23 -9 39
-12 16 -3 34 -7 39 -9 6 -1 27 -6 48 -11 20 -4 37 -11 37 -17 0 -5 4 -7 9 -4
10 7 140 -37 271 -91 206 -85 386 -180 572 -305 48 -32 90 -57 92 -56 3 2 11
-4 18 -13 7 -8 45 -40 83 -69 126 -97 319 -275 405 -375 19 -23 57 -66 83 -97
26 -30 73 -89 103 -129 30 -41 61 -81 68 -89 34 -42 182 -292 230 -387 67
-133 144 -318 185 -439 37 -114 96 -341 106 -410 2 -16 7 -40 9 -54 3 -13 8
-42 11 -65 3 -22 8 -56 10 -75 16 -116 19 -190 20 -405 0 -132 -4 -278 -9
-325 -5 -47 -10 -95 -10 -107 -1 -13 -3 -23 -6 -23 -3 0 -5 -10 -6 -22 -1 -59
-55 -317 -85 -410 -11 -35 -21 -70 -23 -78 -4 -19 -6 -24 -68 -190 -80 -212
-221 -485 -334 -643 -19 -26 -34 -49 -34 -52 0 -5 -78 -108 -130 -171 -213
-260 -445 -472 -712 -650 -62 -41 -118 -78 -123 -83 -6 -4 -15 -10 -20 -12 -6
-2 -46 -24 -90 -49 -44 -25 -82 -45 -85 -45 -3 -1 -32 -15 -65 -32 -144 -74
-482 -201 -547 -206 -10 -1 -18 -5 -18 -10 0 -4 -4 -5 -10 -2 -5 3 -16 3 -22
-2 -7 -4 -15 -8 -18 -8 -6 -1 -93 -18 -100 -20 -44 -11 -131 -28 -150 -30 -14
-2 -56 -8 -95 -14 -182 -27 -551 -36 -730 -18 -44 5 -93 10 -110 11 -16 2 -50
7 -75 11 -25 5 -56 9 -70 10 -14 1 -36 5 -50 8 -25 7 -69 16 -105 22 -11 2
-32 8 -47 14 -16 6 -28 9 -28 6 0 -4 -90 20 -120 32 -8 3 -24 7 -35 8 -36 5
-228 76 -365 137 -289 128 -548 290 -794 497 -44 36 -324 318 -365 366 -205
244 -404 574 -524 870 -59 146 -128 360 -141 437 -3 15 -7 31 -9 35 -3 5 -8
24 -11 43 -3 19 -10 60 -16 90 -6 30 -12 66 -14 80 -3 14 -8 45 -12 70 -8 51
-9 56 -20 195 -13 167 -7 537 10 633 2 9 6 35 10 57 21 143 24 165 31 195 3
14 8 41 11 60 3 19 8 38 11 43 2 4 6 20 9 35 11 63 89 305 136 421 86 212 235
493 321 604 16 20 26 37 23 37 -6 0 15 28 41 55 7 8 13 16 13 19 0 3 6 14 14
23 8 10 31 38 52 63 20 25 53 65 73 90 112 140 401 405 571 526 30 21 57 42
58 46 2 5 8 8 13 8 6 0 36 17 67 38 113 77 364 212 392 212 6 0 10 3 10 8 0 4
15 12 33 19 17 6 97 36 177 67 80 31 154 59 165 61 11 3 61 16 110 30 50 14
99 27 110 30 38 8 60 12 95 19 19 3 46 8 60 11 14 3 41 8 60 11 19 3 49 8 65
11 37 6 62 9 190 18 55 4 102 9 104 11 6 5 415 -5 456 -10z"/>
        <path d="M3264 6641 c-2 -3 -28 -6 -57 -8 -52 -2 -118 -9 -127 -13 -3 -1 -9
-2 -14 -1 -5 1 -34 -4 -65 -10 -31 -7 -60 -12 -64 -11 -15 4 -301 -68 -397
-99 -203 -67 -440 -171 -591 -260 -41 -24 -77 -42 -81 -41 -5 1 -8 -3 -8 -8 0
-6 -10 -15 -22 -21 -47 -21 -58 -28 -194 -128 -274 -200 -574 -507 -733 -751
-20 -30 -39 -57 -42 -60 -12 -11 -127 -211 -169 -295 -25 -49 -49 -93 -53 -96
-5 -3 -9 -10 -9 -15 0 -11 -8 -31 -43 -114 -69 -163 -161 -451 -151 -476 3 -8
2 -14 -2 -14 -9 0 -32 -103 -47 -210 -1 -14 -4 -25 -5 -25 -1 0 -3 -11 -5 -25
-1 -14 -5 -45 -8 -70 -27 -197 -28 -638 -1 -773 2 -12 6 -43 9 -68 3 -25 8
-56 10 -70 3 -13 8 -40 11 -59 3 -19 10 -55 16 -80 5 -25 11 -52 13 -60 2 -8
8 -35 14 -60 7 -25 14 -55 17 -68 8 -39 113 -334 123 -346 5 -6 9 -13 10 -16
1 -33 147 -323 228 -453 71 -113 202 -292 288 -393 146 -171 414 -412 595
-535 36 -24 66 -47 68 -51 2 -5 7 -8 11 -8 5 0 48 -24 97 -53 156 -94 390
-209 437 -216 4 0 21 -8 37 -16 87 -45 467 -151 607 -170 13 -2 40 -6 60 -9
150 -25 224 -29 483 -29 267 1 285 2 470 29 25 4 53 7 63 8 9 0 17 4 17 9 0 4
4 6 10 2 5 -3 38 1 74 9 35 9 75 17 88 20 84 15 397 119 518 172 3 1 15 5 28
9 12 4 22 12 22 18 0 6 3 7 7 4 3 -4 65 24 137 62 307 160 538 331 787 580
266 267 456 534 615 865 35 74 64 138 64 141 0 4 7 21 15 38 31 67 120 343
140 435 29 132 46 216 49 248 3 22 8 55 11 74 32 209 33 618 1 820 -2 14 -7
52 -11 85 -4 33 -9 62 -10 65 -2 3 -6 24 -9 46 -4 23 -10 55 -15 72 -5 17 -7
33 -3 36 3 3 1 6 -4 6 -5 0 -10 10 -10 23 -3 63 -122 424 -164 499 -6 10 -10
25 -10 33 0 8 -4 15 -10 15 -5 0 -10 6 -10 14 0 22 -141 295 -167 323 -6 7
-15 22 -18 33 -3 11 -11 20 -16 20 -5 0 -8 3 -7 8 3 7 -59 105 -99 157 -13 17
-27 35 -31 40 -145 198 -388 447 -595 610 -232 182 -533 352 -817 460 -174 66
-434 136 -595 160 -16 3 -43 7 -60 10 -44 8 -102 15 -170 21 -78 7 -524 11
-531 5z m194 -45 c6 -4 12 -4 12 1 0 10 103 9 120 -2 9 -6 11 -4 5 5 -5 9 -4
11 3 6 6 -4 56 -9 110 -11 55 -2 113 -6 128 -9 16 -3 54 -8 84 -11 30 -3 62
-8 70 -10 8 -2 29 -6 45 -9 17 -3 46 -8 65 -11 122 -21 503 -134 564 -168 12
-6 26 -12 32 -13 25 -4 268 -125 361 -179 291 -171 529 -366 773 -634 41 -45
77 -88 79 -94 2 -7 11 -19 20 -27 9 -8 38 -44 64 -80 27 -36 55 -73 63 -83 8
-9 14 -20 14 -23 0 -3 11 -20 25 -38 14 -18 25 -36 25 -39 0 -3 13 -25 29 -49
68 -101 223 -414 230 -461 0 -4 7 -20 14 -35 52 -104 151 -462 171 -617 3 -22
7 -50 10 -62 5 -24 15 -114 23 -208 11 -134 4 -480 -12 -597 -3 -24 -8 -61
-11 -83 -2 -22 -11 -74 -19 -115 -8 -41 -16 -87 -19 -101 -7 -45 -56 -219 -87
-314 -35 -105 -36 -107 -39 -120 -1 -5 -6 -16 -12 -23 -6 -6 -7 -12 -2 -12 5
0 4 -4 -1 -8 -6 -4 -16 -24 -24 -46 -26 -74 -162 -346 -190 -380 -8 -9 -10
-16 -7 -16 4 0 2 -6 -4 -12 -6 -7 -43 -62 -82 -123 -39 -60 -74 -112 -78 -115
-3 -3 -17 -21 -30 -40 -13 -19 -27 -37 -30 -40 -3 -3 -25 -30 -50 -60 -122
-150 -284 -310 -448 -444 -7 -6 -18 -16 -25 -21 -53 -44 -240 -176 -298 -210
-112 -65 -167 -95 -248 -135 -120 -59 -162 -78 -181 -82 -8 -2 -17 -6 -20 -9
-18 -23 -440 -150 -590 -178 -298 -56 -645 -69 -920 -37 -19 3 -62 7 -95 11
-33 3 -67 8 -75 10 -8 2 -31 7 -50 10 -19 3 -47 8 -62 11 -97 16 -448 120
-490 144 -10 5 -22 10 -28 10 -23 0 -333 149 -424 204 -32 20 -62 36 -67 36
-5 0 -9 5 -9 10 0 6 -7 10 -15 10 -8 0 -15 3 -15 8 0 4 -12 13 -27 19 -24 11
-220 153 -264 190 -8 7 -32 28 -53 45 -81 67 -281 266 -344 343 -37 44 -69 82
-72 85 -16 16 -133 176 -172 236 -89 136 -198 338 -251 464 -8 19 -21 51 -30
70 -15 35 -51 131 -53 140 0 3 -17 58 -38 122 -53 167 -96 364 -111 513 -3 28
-8 62 -10 77 -3 16 -7 80 -10 144 -2 64 -5 118 -7 120 -2 1 -2 27 -1 56 2 29
5 107 8 173 2 66 7 131 9 145 3 13 8 54 12 90 3 36 7 67 9 70 2 3 6 26 10 50
6 39 29 153 40 200 35 142 132 432 149 442 6 4 8 8 4 8 -15 0 110 256 194 400
46 78 173 268 187 280 3 3 28 34 56 70 73 95 97 122 235 260 135 134 146 144
260 236 105 84 199 150 315 221 147 90 402 218 455 228 13 3 26 8 29 12 3 5
11 9 16 10 6 1 63 20 127 42 101 35 189 61 261 77 9 2 25 6 35 8 58 14 178 36
242 45 141 19 155 21 255 26 54 3 100 7 102 9 5 5 38 0 51 -8z"/>
        <path d="M3276 6354 c-6 -15 12 -30 39 -36 19 -3 20 -11 21 -213 0 -116 -1
-215 -3 -221 -2 -6 -15 -10 -28 -8 -28 3 -40 -10 -28 -29 6 -9 40 -12 121 -12
111 -1 112 0 112 23 0 18 -5 23 -22 20 -21 -3 -23 1 -26 57 -3 58 -1 62 40
111 79 93 98 118 99 128 1 6 4 -2 8 -19 4 -16 6 -83 6 -148 -1 -89 -5 -121
-15 -127 -8 -5 -18 -6 -22 -4 -11 7 -23 -25 -13 -34 3 -4 58 -7 120 -8 103 -1
114 1 118 17 3 13 0 19 -11 20 -10 1 -24 2 -32 3 -13 1 -15 34 -18 224 l-2
222 31 0 c26 0 30 3 27 22 -3 21 -8 22 -108 23 -58 0 -110 -1 -117 -3 -20 -6
-7 -37 16 -36 14 0 21 -6 23 -20 2 -33 -3 -70 -11 -76 -3 -3 -35 -40 -70 -82
-35 -43 -65 -78 -67 -78 -1 0 -2 55 -1 123 2 119 3 122 25 125 17 3 22 9 20
25 -3 20 -8 21 -115 22 -79 0 -114 -3 -117 -11z"/>
        <path d="M3008 6335 c-3 -3 -14 -7 -24 -10 -55 -12 -170 -47 -178 -55 -13 -13
7 -35 33 -35 14 0 25 -7 27 -15 1 -8 27 -100 57 -205 30 -104 52 -193 48 -197
-3 -4 -17 -9 -31 -12 -14 -3 -40 -9 -58 -15 -24 -7 -34 -7 -38 2 -9 26 -114
398 -114 407 0 5 9 12 20 15 22 7 28 45 8 45 -7 0 -58 -14 -112 -30 -55 -17
-101 -30 -103 -30 -2 0 1 -9 7 -19 7 -13 18 -18 33 -15 21 3 25 -2 37 -49 8
-28 15 -54 15 -57 1 -6 29 -104 54 -190 39 -131 41 -124 -30 -144 -34 -9 -63
-15 -65 -13 -2 2 -30 97 -62 211 l-59 207 23 9 c25 10 29 17 16 37 -6 10 -34
5 -117 -18 -61 -17 -111 -32 -113 -34 -1 -1 1 -10 4 -20 5 -12 14 -15 34 -12
23 5 28 1 40 -31 8 -20 15 -43 16 -51 2 -12 11 -44 19 -71 1 -3 7 -25 14 -50
6 -25 21 -76 32 -115 12 -38 23 -78 26 -87 3 -13 -1 -18 -16 -18 -11 0 -25 -9
-31 -20 -6 -11 -9 -20 -8 -21 17 -5 55 -5 63 0 6 3 12 6 15 6 21 3 77 19 85
23 6 4 15 7 22 8 6 1 110 30 230 64 120 34 231 62 247 62 31 -1 61 -27 85 -74
23 -45 52 -71 64 -59 6 6 10 50 9 102 -1 117 -11 131 -77 108 -49 -18 -61 -13
-68 31 -2 14 -7 32 -10 40 -17 40 -95 335 -91 342 3 4 13 8 23 8 24 0 30 8 24
31 -5 19 -15 24 -25 14z"/>
        <path d="M3995 6285 c-49 -17 -121 -93 -130 -138 -4 -17 -10 -36 -13 -41 -8
-14 -8 -76 1 -76 4 0 7 -6 6 -12 -1 -7 3 -26 9 -41 7 -16 12 -33 12 -38 0 -5
5 -9 10 -9 6 0 10 -11 10 -25 0 -14 4 -25 9 -25 4 0 5 -17 1 -39 -6 -36 -5
-40 24 -53 17 -8 54 -21 83 -28 67 -17 136 -3 201 41 25 17 57 35 70 40 13 5
22 15 19 22 -3 11 -96 41 -164 53 -37 6 -51 -10 -29 -35 15 -16 14 -19 -8 -40
-26 -24 -76 -39 -114 -33 -20 3 -23 8 -17 30 4 15 9 69 10 121 2 64 7 96 17
102 20 13 62 11 82 -4 16 -12 16 -14 2 -26 -16 -14 -22 -41 -8 -41 4 0 39 -9
77 -20 89 -25 101 -25 108 0 3 13 0 20 -9 20 -8 0 -19 11 -24 24 -13 35 -40
65 -74 83 -34 18 -103 24 -128 11 -10 -5 -19 -4 -23 2 -10 16 43 118 68 132
47 25 108 3 127 -47 6 -14 2 -26 -12 -41 -21 -24 -14 -35 26 -41 11 -2 46 -10
78 -19 32 -8 63 -12 68 -9 15 9 12 32 -4 38 -7 3 -23 26 -36 51 -36 75 -113
117 -220 122 -37 2 -82 -3 -105 -11z"/>
        <path d="M4700 6080 c-6 -11 -7 -20 -2 -20 4 0 16 -6 26 -13 17 -12 10 -27
-93 -200 -62 -103 -114 -187 -117 -187 -3 0 -15 5 -26 11 -16 9 -24 8 -36 -4
-13 -14 -11 -18 19 -36 19 -11 39 -25 46 -30 7 -6 16 -11 20 -11 4 0 28 -14
53 -30 25 -16 48 -30 51 -30 14 0 17 41 3 47 -21 8 -19 14 40 112 l53 90 22
-23 c36 -38 38 -93 5 -165 -20 -47 -32 -61 -44 -58 -9 2 -21 -3 -27 -12 -9
-14 1 -23 56 -56 36 -22 68 -42 71 -46 3 -3 17 -9 31 -12 20 -5 26 -3 26 11 0
9 -5 20 -11 24 -7 4 -4 26 8 65 31 95 19 162 -39 231 -15 18 -26 34 -24 36 2
2 27 18 55 35 66 40 95 40 133 -1 l30 -32 40 45 40 44 -30 27 c-59 50 -126 38
-243 -46 -36 -25 -67 -42 -70 -38 -2 4 16 43 41 86 32 54 49 74 56 67 16 -16
37 -13 43 4 6 14 -30 54 -49 55 -4 0 -36 18 -71 40 -35 22 -66 40 -69 40 -4 0
-11 -9 -17 -20z"/>
        <path d="M2025 5983 c-39 -25 -71 -50 -73 -55 -2 -4 -8 -8 -13 -8 -16 0 -178
-120 -189 -139 -14 -28 5 -73 43 -102 26 -20 43 -24 97 -24 61 1 74 3 125 20
17 6 18 5 5 -7 -71 -61 -93 -168 -53 -261 12 -28 13 -41 5 -49 -8 -8 -8 -17
-1 -30 9 -17 11 -17 37 -1 15 10 29 20 32 23 3 3 28 21 57 40 42 27 50 37 42
51 -5 10 -16 15 -27 13 -19 -6 -53 52 -66 113 -9 39 7 94 33 117 17 16 21 12
80 -73 51 -74 59 -91 46 -98 -12 -7 -13 -12 -3 -26 12 -15 21 -11 101 44 82
57 103 82 75 92 -7 2 -23 -2 -34 -10 -24 -15 -10 -31 -171 200 -18 26 -49 69
-68 96 l-34 50 26 21 c23 18 25 23 12 35 -13 13 -23 9 -84 -32z m-11 -161 c21
-29 36 -58 33 -66 -7 -18 -63 -26 -102 -15 -30 8 -68 43 -72 66 -1 5 11 23 27
38 17 16 30 25 30 21 0 -4 7 0 16 9 19 18 16 20 68 -53z"/>
        <path d="M5181 5689 c-18 -6 -39 -16 -46 -22 -7 -7 -22 -19 -35 -27 -38 -26
-71 -94 -76 -157 -7 -93 -13 -119 -34 -146 l-20 -25 46 -51 c26 -29 65 -61 88
-73 43 -22 139 -31 187 -17 15 4 31 3 36 -2 6 -6 15 -4 22 5 11 13 8 20 -16
41 -15 15 -49 47 -75 71 -46 44 -47 44 -58 23 -10 -17 -9 -23 1 -30 21 -13
-40 -31 -85 -26 -21 3 -48 15 -60 26 -20 21 -20 21 -1 40 31 31 38 41 74 114
39 76 60 84 104 43 27 -25 28 -60 2 -50 -7 3 -15 -2 -18 -10 -4 -10 17 -36 61
-75 36 -34 70 -61 74 -61 14 0 23 33 10 38 -8 2 -9 10 -3 20 18 36 -11 114
-57 152 -20 16 -40 30 -44 30 -4 0 -19 5 -34 10 l-26 10 28 28 c46 43 91 61
128 51 54 -16 83 -77 56 -119 -5 -8 -10 -11 -10 -7 0 4 -10 3 -22 -4 -20 -11
-18 -15 53 -80 65 -60 76 -67 89 -54 11 11 11 18 2 27 -7 7 -9 27 -5 54 11 82
-61 185 -166 239 -41 21 -125 28 -170 14z"/>
        <path d="M1539 5618 c-131 -133 -135 -137 -116 -156 17 -16 19 -16 28 1 14 24
19 22 75 -29 27 -25 60 -56 74 -68 14 -12 31 -29 39 -39 12 -16 9 -16 -50 -12
-160 12 -181 16 -200 38 -15 19 -16 24 -3 38 11 13 12 19 1 33 -12 16 -18 13
-69 -41 -96 -98 -108 -116 -97 -130 12 -14 49 0 49 18 0 19 17 6 126 -96 59
-55 129 -120 156 -145 35 -33 47 -51 42 -63 -3 -9 -10 -17 -15 -17 -15 0 -10
-30 6 -36 9 -4 34 15 67 52 29 31 63 68 76 80 25 26 27 35 10 52 -8 8 -15 7
-28 -8 -16 -18 -18 -18 -62 23 -133 122 -168 156 -168 161 0 5 126 -1 195 -9
29 -4 50 -16 78 -44 35 -35 38 -40 26 -59 -11 -18 -11 -24 -1 -34 11 -11 28 3
93 70 43 46 79 88 79 93 0 19 -33 22 -46 5 -7 -10 -17 -16 -23 -15 -10 4 -192
171 -274 252 -48 48 -48 49 -28 66 17 15 18 21 8 35 -12 17 -16 15 -48 -16z"/>
        <path d="M3318 5405 c-4 -4 -24 -9 -45 -11 -87 -7 -140 -15 -203 -29 -14 -4
-34 -7 -46 -9 -11 -2 -25 -6 -31 -9 -5 -3 -24 -9 -41 -12 -44 -7 -185 -57
-272 -95 -258 -113 -495 -287 -681 -501 -57 -65 -179 -223 -179 -232 0 -2 -29
-55 -65 -118 -36 -63 -65 -118 -65 -124 0 -5 -7 -23 -15 -38 -30 -58 -109
-308 -120 -380 -2 -15 -7 -45 -10 -65 -3 -21 -7 -47 -9 -59 -17 -87 -24 -332
-12 -420 3 -21 8 -67 12 -103 3 -36 8 -69 11 -73 3 -5 -2 -16 -10 -25 -17 -19
-22 -37 -32 -135 l-7 -66 -22 32 c-29 42 -52 95 -60 133 -8 34 -44 58 -73 47
-68 -25 -47 -119 62 -278 26 -37 43 -71 38 -75 -9 -8 -91 -41 -113 -45 -8 -1
-37 -6 -65 -9 -50 -6 -160 -41 -182 -58 -6 -5 -21 -28 -33 -50 -17 -32 -22
-62 -24 -147 -4 -109 -17 -180 -42 -215 -44 -63 31 -122 90 -71 15 13 46 39
68 57 23 18 46 38 52 43 18 17 130 99 151 111 64 35 125 69 160 89 50 30 121
54 177 61 24 3 48 7 55 9 6 2 32 -32 57 -75 147 -253 384 -492 650 -657 305
-189 649 -285 1024 -287 65 -1 92 -4 92 -13 0 -19 40 -36 71 -29 24 5 29 2 29
-14 0 -29 36 -61 62 -56 13 3 26 5 29 5 10 2 30 52 24 62 -4 5 -4 9 0 9 3 0
19 -29 35 -64 36 -77 50 -90 89 -81 52 11 55 47 10 138 -35 72 -36 78 -20 87
14 7 23 4 36 -10 10 -11 29 -20 43 -20 14 0 33 -7 42 -15 24 -22 55 -26 77
-10 26 20 31 19 38 -15 4 -17 17 -38 30 -46 40 -26 95 4 95 52 0 17 6 24 18
24 24 0 52 31 56 61 6 44 29 87 57 103 21 12 27 23 25 45 -2 25 4 33 38 52 55
29 231 154 281 198 152 134 314 326 406 481 60 101 61 102 117 48 92 -88 141
-108 175 -70 25 28 21 61 -12 89 -21 19 -27 30 -21 42 5 9 11 24 14 34 3 10
10 15 16 12 14 -9 60 40 60 65 0 14 4 19 12 14 42 -26 98 3 98 50 0 25 -35 57
-75 69 -29 9 -97 20 -117 19 -21 -1 -22 8 -7 40 13 30 -4 78 -27 78 -14 0 -16
7 -11 38 10 64 13 71 29 89 18 22 29 61 18 68 -4 3 -10 15 -13 27 -5 16 3 30
30 55 42 41 47 77 12 107 -23 20 -24 27 -26 156 -1 116 -6 191 -17 262 -1 10
-5 20 -9 24 -3 4 2 19 13 34 31 43 26 76 -16 98 -13 7 -26 31 -35 65 -14 50
-14 56 3 76 25 32 11 91 -21 91 -10 0 -25 6 -35 13 -16 11 -11 15 38 36 31 12
67 36 80 52 14 16 34 29 45 29 32 0 54 29 48 65 -4 25 -1 33 16 41 22 9 30 37
21 67 -9 29 -46 37 -108 23 -50 -12 -73 -7 -46 9 28 17 -3 95 -38 95 -6 0 -13
8 -17 19 -3 10 -14 26 -24 35 -17 16 -18 21 -6 50 12 29 12 36 -3 57 -20 29
-24 65 -10 101 15 41 -13 82 -53 76 -20 -3 -34 1 -46 14 -16 18 -73 26 -73 10
0 -17 -59 -43 -84 -36 -17 4 -35 -1 -56 -16 -22 -16 -30 -18 -30 -7 0 22 -36
49 -62 45 -12 -2 -31 -16 -42 -33 l-19 -30 -47 42 c-63 59 -193 162 -203 163
-4 0 -16 8 -27 18 -10 9 -36 26 -57 37 -21 11 -40 23 -43 26 -16 19 -325 158
-390 174 -122 32 -213 54 -245 59 -22 3 -53 8 -70 11 -80 16 -360 25 -387 13
-9 -5 -18 -3 -20 3 -2 6 -6 7 -10 4z m1842 -514 c0 -5 -7 -17 -16 -25 -8 -9
-12 -16 -8 -16 4 0 1 -6 -8 -12 -8 -7 -34 -49 -57 -93 -31 -59 -36 -73 -19
-55 26 27 75 100 97 142 16 32 41 45 41 21 0 -14 2 -14 20 2 30 27 48 6 25
-29 -13 -19 -14 -30 -7 -39 8 -9 5 -24 -8 -55 -11 -23 -15 -42 -11 -42 5 0 11
7 15 15 7 19 25 19 32 0 8 -19 -67 -137 -121 -190 -22 -22 -63 -56 -92 -75
-33 -22 -61 -51 -75 -78 -23 -42 -49 -52 -54 -20 -1 9 8 32 21 50 13 19 58 95
100 169 43 73 82 137 89 141 7 5 7 8 0 8 -5 0 -23 -18 -40 -40 -16 -22 -32
-40 -36 -40 -5 0 -8 -5 -8 -10 0 -6 -9 -21 -21 -33 -11 -12 -33 -42 -49 -67
-16 -25 -34 -50 -40 -57 -5 -7 -10 -14 -10 -16 0 -3 -10 -26 -22 -53 -12 -27
-23 -57 -25 -67 -5 -31 -24 -58 -36 -54 -13 5 -13 7 -3 51 l7 28 -35 -37 c-19
-20 -40 -52 -46 -71 -12 -35 -40 -47 -40 -17 0 15 -1 15 -13 -2 -20 -26 -39
-11 -27 20 5 14 8 25 6 25 -3 0 4 24 15 52 10 29 19 57 19 63 -1 12 -41 -63
-45 -84 -2 -9 -4 -17 -5 -18 -2 -2 -4 -7 -5 -13 -1 -5 -4 -13 -5 -17 -1 -5 -2
-11 -1 -15 0 -5 -3 -8 -9 -8 -5 0 -9 -3 -9 -7 1 -5 -2 -23 -6 -40 -7 -29 -15
-37 -36 -35 -4 1 -9 -10 -12 -24 -4 -24 -4 -24 20 -9 50 33 132 80 243 138 63
33 118 65 121 70 4 5 18 10 32 10 14 0 28 6 31 14 3 8 2 12 -3 9 -9 -6 -38 21
-30 28 2 1 33 27 69 57 36 30 76 64 89 74 13 11 33 30 46 41 34 33 65 48 78
35 7 -7 -4 -23 -38 -53 -66 -58 -125 -115 -97 -93 12 10 22 15 22 12 0 -4 34
11 75 33 82 44 108 50 103 23 -2 -11 -32 -32 -75 -53 -40 -19 -72 -38 -72 -42
-1 -5 12 -8 27 -8 15 0 33 -5 40 -12 8 -8 15 -8 27 2 8 7 15 10 15 7 0 -3 19
0 43 5 114 26 159 26 143 -1 -4 -5 -28 -13 -54 -17 -26 -4 -55 -10 -65 -13
-17 -6 -16 -8 5 -18 13 -6 35 -14 51 -17 35 -8 36 -36 1 -36 -14 0 -34 5 -45
10 -14 8 -19 7 -20 -2 -2 -18 -1 -21 6 -39 11 -28 -122 -84 -242 -102 -12 -2
-26 -6 -29 -10 -8 -8 -2 -9 71 -12 28 -2 54 -3 58 -4 5 -1 7 -9 5 -18 -3 -15
-15 -18 -71 -19 -37 0 -67 3 -67 7 0 4 -8 6 -17 5 -10 -2 -45 3 -78 11 -33 8
-69 16 -80 18 -11 2 -20 4 -20 5 0 1 -12 3 -26 4 -14 2 -31 6 -37 10 -13 8
-44 -7 -157 -75 -194 -117 -268 -175 -470 -372 -159 -155 -210 -195 -310 -242
-100 -47 -198 -64 -410 -71 -203 -7 -248 -10 -278 -23 -16 -6 -34 -11 -42 -11
-7 0 -15 -4 -17 -9 -1 -5 -61 -39 -133 -76 -197 -102 -196 -100 -73 -99 57 0
130 -6 162 -13 33 -7 73 -15 90 -18 17 -2 31 -4 31 -5 0 -2 21 -6 65 -14 19
-4 42 -9 50 -11 34 -9 100 -15 100 -9 0 10 -49 145 -67 182 -12 26 -13 36 -4
45 15 14 25 -1 57 -83 l22 -55 7 43 c4 23 12 45 17 49 13 7 29 -18 23 -37 -2
-8 -7 -47 -11 -86 l-6 -71 31 -12 c52 -22 65 -10 57 57 -9 77 -16 125 -21 139
-5 14 21 37 29 25 2 -4 8 -32 12 -61 7 -53 7 -54 21 -27 16 31 29 33 36 6 3
-11 0 -20 -6 -20 -6 0 -8 -3 -4 -6 3 -4 -2 -28 -12 -55 -10 -26 -16 -51 -12
-54 3 -4 6 -20 6 -37 0 -26 5 -32 40 -43 22 -8 47 -24 55 -36 49 -70 46 -69
192 -64 73 3 142 7 153 9 11 3 35 5 52 5 32 1 32 1 15 22 -9 12 -31 36 -48 53
-21 22 -29 38 -24 51 6 16 11 14 48 -20 23 -20 42 -35 42 -31 0 3 0 8 0 11 0
3 20 44 45 92 25 48 45 93 45 99 0 6 6 17 14 23 11 10 16 8 24 -5 9 -16 11
-16 23 4 8 12 19 22 25 22 17 0 25 -28 11 -37 -16 -10 -128 -186 -122 -191 4
-4 70 55 170 154 29 29 64 60 78 69 16 10 29 30 33 51 7 38 24 56 42 45 12 -7
5 -38 -35 -160 -3 -9 12 11 33 44 64 99 98 145 111 145 28 0 21 -25 -26 -90
-28 -38 -51 -72 -51 -75 0 -2 -34 -61 -76 -130 -54 -89 -82 -125 -95 -125 -24
0 -24 6 2 77 25 71 31 87 29 91 0 1 6 15 15 32 26 49 17 50 -32 3 -167 -158
-213 -207 -205 -215 13 -13 125 -12 182 0 63 14 135 5 168 -21 8 -7 12 -5 12
7 0 9 -5 15 -11 14 -28 -7 -15 22 32 73 28 29 58 70 66 89 8 19 23 53 33 75 9
22 20 48 23 58 8 22 37 22 37 0 0 -11 8 -6 25 17 37 50 115 121 126 115 16
-10 10 -33 -14 -52 -19 -15 -61 -66 -115 -138 -4 -6 -27 -36 -51 -68 -42 -57
-101 -160 -101 -177 0 -5 24 -2 52 7 29 8 64 17 78 20 59 10 117 24 140 34 24
9 26 15 27 72 0 34 4 77 7 96 11 55 64 161 81 161 20 0 19 -13 -6 -63 -24 -46
-41 -97 -32 -97 3 0 14 11 24 24 36 46 99 90 111 78 9 -9 -5 -27 -50 -69 -53
-50 -92 -110 -92 -142 0 -10 42 -2 50 10 3 4 25 31 50 60 48 56 87 102 159
188 37 44 46 50 54 36 6 -11 4 -22 -5 -33 -8 -9 -42 -50 -76 -90 -34 -40 -62
-75 -62 -77 0 -8 8 -6 22 8 7 6 33 23 58 36 25 14 71 41 102 62 74 49 98 56
98 32 0 -12 -20 -31 -52 -52 -139 -86 -191 -122 -173 -117 78 20 143 25 169
13 24 -12 6 -31 -32 -34 -57 -3 -125 -15 -150 -25 -15 -5 -38 -12 -51 -14 -41
-8 -142 -53 -175 -77 -26 -20 -69 -38 -98 -41 -12 -1 -2 -45 12 -56 4 -3 12
-14 18 -25 11 -20 11 -20 12 2 0 12 -5 25 -10 28 -16 10 -4 22 58 62 80 51
131 72 213 87 75 15 109 12 109 -10 0 -12 -12 -16 -90 -28 -72 -11 -163 -47
-195 -77 -13 -13 -4 -11 46 6 24 9 64 21 89 26 161 37 174 39 189 24 12 -12
11 -15 -10 -24 -22 -10 -116 -30 -164 -36 -11 -1 -33 -8 -50 -15 -31 -13 -51
-18 -72 -19 -7 -1 -13 -5 -13 -11 0 -14 218 -9 263 6 20 7 37 11 37 8 0 -2 10
2 23 10 25 17 51 7 42 -16 -6 -14 -82 -41 -150 -53 -57 -10 -220 -5 -282 9
-26 5 -29 0 -10 -18 6 -6 32 -12 57 -13 25 -1 119 -3 210 -6 91 -2 181 -7 200
-10 19 -4 51 -9 71 -12 70 -9 113 -35 92 -56 -5 -5 -27 -3 -53 5 -75 22 -178
32 -295 27 -65 -3 -19 -20 82 -30 101 -11 149 -26 157 -48 10 -24 0 -27 -46
-13 -24 7 -63 15 -88 17 l-45 5 45 -33 c68 -49 73 -56 54 -67 -13 -7 -29 -1
-66 25 -27 20 -51 33 -53 31 -7 -6 104 -121 138 -142 31 -21 36 -46 9 -46 -21
0 -102 65 -145 118 -31 38 -39 41 -97 33 -2 -1 1 -6 8 -13 7 -7 12 -18 12 -25
0 -26 -30 -12 -71 32 -23 25 -46 45 -50 45 -4 0 -2 -16 4 -35 7 -25 7 -39 0
-46 -19 -19 -42 19 -49 81 -4 37 -12 61 -21 64 -8 3 -12 2 -10 -2 3 -4 8 -40
11 -80 4 -40 13 -93 22 -118 8 -24 12 -49 9 -54 -24 -40 -61 40 -71 155 -2 28
-6 62 -8 77 -4 28 14 53 30 40 5 -4 -2 5 -15 20 -13 15 -34 31 -45 34 -12 4
-39 25 -60 48 -21 22 -33 33 -26 24 7 -10 10 -18 7 -18 -8 0 17 -64 72 -181
31 -66 40 -106 21 -94 -5 3 -10 2 -10 -4 0 -5 5 -13 10 -16 13 -8 13 -45 0
-45 -5 0 -15 7 -22 16 -31 38 -76 84 -82 84 -4 0 7 -26 24 -57 27 -52 55 -123
64 -163 2 -8 13 -41 24 -72 20 -57 19 -68 -4 -68 -13 0 -40 74 -36 95 2 6 -6
0 -15 -13 -18 -21 -23 -22 -145 -19 -84 2 -132 8 -142 17 -9 7 -16 8 -16 2 0
-5 7 -15 15 -22 9 -7 14 -19 11 -25 -2 -7 16 -28 41 -46 48 -36 47 -36 93 -38
19 -1 30 -6 30 -16 0 -16 -15 -19 -93 -16 -57 2 -61 -15 -9 -39 43 -20 34 -36
-19 -32 -31 2 -47 -2 -55 -13 -11 -15 -17 -13 -51 18 -51 45 -70 51 -94 28
l-21 -19 23 -26 c12 -14 28 -26 35 -26 14 0 28 -35 19 -49 -3 -5 -18 -10 -33
-10 -15 0 -45 -7 -67 -15 l-40 -15 36 -1 c20 0 56 6 81 14 48 14 74 8 66 -15
-5 -14 -138 -52 -138 -39 0 5 -9 6 -20 3 -24 -6 -25 -21 -4 -52 12 -17 14 -25
5 -34 -9 -9 -17 -6 -32 13 -10 14 -22 35 -25 48 -3 12 -9 23 -13 23 -3 1 -22
3 -41 5 -19 2 -41 6 -47 9 -17 6 -16 -6 2 -32 9 -12 15 -26 14 -30 -8 -31 18
-63 77 -98 35 -21 64 -42 64 -47 0 -17 -29 -19 -59 -3 -36 18 -36 17 -16 -31
8 -19 12 -41 9 -49 -11 -27 -33 -2 -60 66 -23 60 -44 94 -44 75 0 -9 31 -88
56 -144 28 -61 30 -82 9 -82 -9 0 -28 28 -46 68 -17 37 -37 81 -45 97 -7 17
-14 24 -14 18 0 -30 -30 -10 -44 30 -14 38 -15 39 -12 10 6 -48 42 -151 76
-217 32 -61 36 -81 19 -92 -10 -6 -33 10 -34 24 -1 4 -14 34 -29 67 -16 33
-32 70 -37 83 -15 38 -25 17 -24 -47 1 -40 -3 -62 -11 -65 -21 -8 -31 16 -29
67 1 34 -3 53 -16 69 -11 11 -19 29 -19 39 0 10 -19 36 -42 58 -42 38 -59 46
-42 19 5 -7 9 -17 10 -23 1 -5 9 -28 17 -50 8 -22 12 -46 10 -52 -3 -7 5 -26
16 -42 25 -34 27 -51 6 -51 -8 0 -31 26 -51 57 -48 77 -130 151 -122 111 2 -7
-6 -13 -17 -13 -11 0 -21 6 -21 13 -1 6 -2 18 -3 26 0 8 -15 25 -32 37 -28 20
-30 20 -21 3 5 -10 25 -53 45 -94 19 -41 60 -127 91 -191 31 -64 56 -124 56
-133 0 -46 -32 0 -99 140 -41 85 -79 158 -84 161 -6 4 -8 0 -4 -9 3 -9 9 -58
12 -109 4 -52 9 -96 11 -99 1 -3 -1 -12 -6 -20 -22 -36 -34 12 -45 185 -2 28
-4 50 -5 50 -1 0 -4 20 -6 45 -9 119 -12 133 -37 157 -40 41 -47 24 -20 -52
13 -38 25 -83 26 -100 3 -47 -24 -37 -39 15 -7 25 -20 70 -28 100 -9 30 -14
62 -11 70 4 12 -10 23 -53 43 -66 31 -73 32 -67 15 2 -7 6 -35 9 -63 5 -44 16
-105 31 -170 3 -12 13 -46 24 -76 19 -55 16 -85 -6 -71 -12 7 -49 111 -55 152
-2 14 -7 31 -11 38 -5 6 -6 16 -2 21 3 5 0 13 -6 17 -15 9 -4 -100 17 -173 15
-53 14 -83 -4 -83 -11 0 -41 103 -50 165 -7 53 -6 163 1 195 3 14 8 34 11 45
2 11 6 25 7 30 2 6 -13 28 -34 50 -20 21 -37 42 -37 46 0 3 -10 18 -21 33
l-21 27 -54 -108 c-29 -59 -56 -121 -59 -138 -3 -16 -8 -37 -10 -45 -2 -8 -4
-25 -4 -37 -1 -16 -7 -23 -20 -23 -21 0 -21 11 -5 90 12 62 9 130 -7 130 -5 0
-7 -4 -4 -10 3 -5 2 -10 -4 -10 -5 0 -26 -29 -46 -64 -25 -45 -41 -63 -51 -59
-19 7 -18 11 10 59 20 36 21 42 8 51 -14 8 -13 15 6 56 12 25 23 52 24 59 2 7
7 16 13 20 5 4 6 10 2 15 -13 12 -85 -77 -109 -134 -21 -52 -42 -72 -51 -50
-9 24 50 134 97 180 34 35 40 44 21 35 -14 -6 -25 -15 -25 -20 0 -4 -4 -8 -9
-8 -15 0 -104 -61 -127 -88 -16 -18 -27 -22 -44 -17 -18 6 -28 0 -50 -25 -15
-18 -33 -29 -39 -26 -16 10 -14 23 7 44 9 10 49 54 87 97 l70 80 -53 -45 c-92
-77 -102 -84 -114 -72 -12 12 -11 12 104 114 46 42 100 83 188 145 14 10 28
17 32 16 3 -1 1 11 -5 27 -14 37 -25 37 -64 3 -17 -16 -57 -51 -90 -80 -32
-29 -87 -79 -123 -111 -56 -52 -90 -68 -90 -43 0 7 136 135 213 201 40 35 33
44 -13 15 -22 -14 -42 -25 -45 -25 -8 0 -73 -48 -109 -82 -33 -29 -62 -28 -46
2 12 22 130 115 130 103 0 -4 4 -3 8 3 10 15 97 59 150 74 44 14 49 19 31 37
-7 7 -24 5 -58 -7 -73 -28 -177 -77 -219 -104 -27 -17 -43 -21 -53 -15 -19 13
14 38 113 86 43 21 78 41 78 44 0 10 -111 2 -143 -10 -37 -14 -37 -14 -37 7 0
27 65 43 171 43 48 0 91 4 94 9 8 12 -60 56 -126 82 -37 14 -85 22 -154 24
-55 3 -115 9 -133 15 -18 6 -65 37 -105 70 -39 33 -86 63 -102 68 -39 10 -91
3 -106 -15 -6 -8 -16 -14 -21 -14 -6 0 -22 -9 -37 -19 -46 -33 -244 -128 -311
-150 -69 -22 -89 -27 -155 -36 -116 -17 -176 -39 -307 -114 -21 -11 -55 -31
-75 -42 -50 -28 -97 -61 -101 -71 -2 -4 -8 -8 -13 -8 -9 0 -34 -19 -73 -55
-114 -105 -166 -127 -130 -56 27 54 35 100 39 209 5 168 32 198 207 228 51 9
101 20 110 25 10 5 18 7 18 3 0 -3 7 -1 15 6 8 6 35 17 60 23 l45 12 -71 105
c-92 137 -119 198 -100 229 11 17 30 6 29 -17 -2 -28 31 -91 109 -204 77 -112
87 -118 130 -78 37 33 60 40 120 34 65 -7 117 12 161 59 23 26 47 28 129 11
26 -5 40 1 87 36 31 23 56 44 56 47 0 19 -24 43 -39 38 -43 -13 -172 189 -215
336 -37 126 -43 179 -22 179 9 0 16 -3 17 -7 4 -45 37 -172 55 -213 33 -75 69
-145 77 -148 4 -2 7 -10 7 -17 0 -7 3 -15 8 -17 4 -1 17 -16 30 -32 15 -20 22
-24 22 -12 0 9 -5 16 -11 16 -5 0 -8 4 -5 8 2 4 -2 21 -9 37 -8 17 -35 89 -61
160 -43 118 -48 140 -52 241 -4 96 -2 112 12 117 19 8 18 14 21 -104 3 -80 9
-114 40 -205 21 -60 42 -120 48 -134 6 -14 11 -30 12 -35 7 -32 49 -114 55
-110 7 4 6 40 0 40 -1 0 -3 18 -6 40 -7 78 -12 120 -14 120 -2 0 -10 54 -15
105 -5 52 -12 102 -26 179 -13 79 -12 111 6 111 8 0 15 -3 16 -7 0 -5 2 -17 4
-28 2 -11 6 -40 9 -65 3 -25 8 -56 10 -70 8 -45 19 -124 21 -155 1 -16 5 -43
8 -60 4 -16 9 -52 12 -80 3 -27 10 -85 17 -128 11 -77 12 -78 37 -72 41 10 69
32 106 83 18 26 44 53 56 61 65 40 112 62 189 89 137 49 368 156 425 198 81
59 196 95 317 98 47 1 83 7 93 16 17 14 75 121 75 138 0 14 -96 41 -170 48
-36 4 -72 8 -80 10 -8 1 -18 3 -22 3 -5 1 -8 8 -8 17 0 14 11 15 81 9 45 -4
94 -11 110 -15 21 -6 27 -5 23 5 -7 17 -50 46 -73 50 -9 1 -17 9 -19 18 -4 21
23 22 61 3 37 -20 34 -11 -11 32 -44 42 -76 87 -86 120 -11 33 20 29 38 -5 8
-16 27 -42 42 -60 33 -35 156 -143 164 -143 4 0 14 24 25 53 10 28 22 58 28
65 5 6 6 12 1 12 -5 0 -2 5 6 10 9 6 10 10 3 10 -7 0 -17 -9 -23 -21 -8 -13
-17 -18 -28 -14 -13 5 -14 3 -5 -6 6 -6 9 -17 7 -24 -4 -9 -18 -6 -55 11 -27
13 -49 28 -49 33 0 19 21 22 45 7 13 -9 26 -12 29 -7 3 5 0 11 -7 14 -21 8
-70 85 -63 102 8 22 21 18 37 -12 14 -28 69 -90 69 -78 0 3 -17 32 -38 63 -55
80 -112 186 -112 205 0 33 30 4 70 -67 64 -112 82 -141 90 -146 4 -3 12 -15
19 -27 6 -13 16 -23 22 -23 6 0 7 5 4 10 -3 6 0 10 7 11 10 0 10 2 1 6 -7 2
-13 9 -13 15 0 6 -12 35 -27 63 -17 34 -23 59 -19 71 6 16 11 13 32 -21 13
-22 27 -50 30 -62 8 -28 16 -29 32 -3 16 26 -1 102 -21 94 -23 -8 -117 112
-154 198 -9 20 -9 30 0 42 10 14 17 6 46 -54 18 -38 37 -70 42 -70 5 0 9 -5 9
-10 0 -6 11 -22 25 -36 32 -32 31 -27 -5 39 -36 66 -40 103 -10 87 17 -9 19
-8 13 7 -3 10 -9 23 -14 28 -4 6 -11 27 -17 47 -8 30 -7 38 5 42 18 7 35 -2
28 -14 -3 -5 -1 -11 5 -15 6 -4 8 -11 5 -16 -4 -5 -1 -9 4 -9 6 0 10 -3 9 -7
-5 -14 41 -110 59 -124 16 -12 17 -12 7 1 -6 8 -17 33 -24 55 -7 22 -17 46
-23 53 -5 7 -7 15 -4 18 3 3 -5 29 -17 57 -24 54 -24 77 -1 77 13 0 34 -48 71
-159 15 -48 25 -57 30 -28 1 7 5 30 8 52 19 116 32 160 46 160 18 0 18 -11 -6
-140 -24 -132 -24 -193 -2 -209 10 -7 17 -15 15 -18 -4 -9 79 79 118 125 22
26 46 47 53 47 20 0 14 -29 -13 -56 -35 -35 -31 -38 15 -14 38 20 60 20 60 0
0 -10 -64 -48 -95 -56 -14 -3 -25 -10 -25 -15 0 -5 -7 -9 -14 -9 -8 0 -37 -21
-63 -46 -26 -26 -41 -43 -33 -39 23 13 74 49 80 57 11 14 149 77 193 89 84 21
75 -11 -12 -42 -57 -20 -140 -59 -157 -74 -7 -5 -23 -18 -38 -29 -63 -45 -63
-46 -11 -30 52 16 202 27 209 15 12 -19 -16 -30 -84 -33 -41 -3 -107 -14 -146
-25 -39 -11 -85 -19 -101 -17 -24 3 -31 -1 -40 -26 -8 -23 -8 -27 2 -23 8 2
16 11 19 18 3 9 20 12 55 10 27 -1 76 4 108 11 110 27 125 28 121 8 -3 -18
-81 -43 -145 -47 -17 -1 -29 -5 -26 -10 3 -5 39 -7 80 -6 43 1 78 -2 81 -8 4
-6 16 -12 27 -14 11 -3 21 -11 23 -19 2 -12 -15 -15 -100 -17 -101 -1 -198
-10 -206 -18 -8 -8 91 -46 126 -49 20 -2 51 3 68 9 17 7 37 9 44 5 36 -22 -50
-55 -124 -47 -48 5 -125 37 -161 67 -13 11 -14 10 -10 -1 9 -20 112 -83 174
-105 49 -17 72 -37 58 -50 -18 -18 -257 102 -257 129 0 5 -7 4 -15 -3 -8 -7
-15 -20 -15 -29 0 -9 -4 -21 -8 -26 -4 -6 -16 -35 -27 -65 -10 -30 -23 -66
-28 -80 -9 -23 -11 -44 -8 -84 1 -11 20 -13 92 -10 91 4 134 11 224 42 73 24
118 55 202 138 42 41 77 74 78 74 1 0 22 20 47 44 26 24 74 63 107 86 34 22
61 43 61 45 0 12 -24 55 -32 55 -4 0 -7 3 -6 8 1 4 -5 21 -14 37 -33 63 -61
167 -74 275 -3 25 -7 56 -9 70 -2 14 -8 52 -14 85 -5 33 -10 65 -11 70 -7 30
0 38 18 22 10 -10 19 -23 19 -30 3 -57 57 -354 72 -398 32 -94 69 -155 55 -91
-3 15 -14 77 -24 137 -10 61 -21 124 -24 140 -3 17 -8 47 -11 69 -4 21 -8 46
-10 55 -16 86 -16 121 -2 121 17 0 22 -15 41 -140 3 -19 8 -46 10 -60 3 -14 7
-41 10 -60 3 -19 7 -44 10 -55 2 -11 7 -41 10 -68 4 -26 10 -57 14 -70 4 -12
7 -31 7 -42 -1 -11 3 -25 8 -32 5 -7 6 -16 4 -21 -3 -4 -2 -14 3 -22 7 -11 11
-11 24 -1 13 11 13 15 2 27 -8 7 -12 28 -11 46 2 18 -2 60 -9 93 -10 52 -11
98 -4 153 1 8 9 11 20 9 16 -5 18 1 18 44 0 41 3 49 19 49 17 0 18 -8 15 -107
-4 -141 -13 -259 -21 -279 -5 -13 0 -13 33 4 21 11 48 27 59 35 20 15 19 16
-7 26 -16 6 -28 14 -29 18 -1 5 -2 31 -4 58 -2 28 -6 90 -10 139 -4 48 -4 113
0 142 5 44 10 54 26 54 16 0 18 -5 13 -32 -6 -32 -7 -154 -1 -190 7 -43 12
-20 13 55 1 124 19 330 30 349 3 4 12 8 21 8 12 0 14 -7 9 -31 -5 -27 -4 -30
9 -19 9 7 19 10 22 6 12 -11 12 -36 0 -36 -5 0 -8 -3 -5 -6 4 -3 -1 -22 -9
-42 l-15 -37 21 19 c11 10 18 23 15 27 -3 5 -1 9 3 9 5 0 17 16 27 35 19 35
46 47 46 21 0 -16 -60 -119 -72 -124 -5 -2 -8 -9 -8 -17 0 -7 -7 -18 -16 -25
-28 -24 -41 -74 -43 -165 -1 -49 -4 -92 -7 -96 -2 -4 0 -10 5 -14 6 -3 15 14
21 37 57 214 176 503 222 536 10 7 18 18 18 23 0 5 7 26 16 47 13 31 17 34 25
20 5 -10 6 -30 2 -45 -4 -15 -8 -30 -8 -33 -1 -3 -5 -12 -8 -20 -4 -8 -8 -24
-10 -35 -1 -11 -6 -27 -11 -35 -5 -8 28 23 72 70 65 69 83 83 93 72 11 -10 4
-22 -36 -64 -139 -144 -157 -175 -207 -341 -25 -80 -41 -144 -36 -141 4 3 8
11 8 17 0 15 78 167 96 188 8 8 14 20 14 25 0 5 9 20 21 34 11 14 51 70 89
125 39 55 74 105 80 112 6 7 15 24 22 38 6 14 17 25 23 25 7 0 18 7 25 15 14
17 40 20 40 6z m-1295 -472 c-4 -17 -9 -39 -10 -48 -2 -9 -4 -16 -6 -16 -1 0
-3 -9 -5 -20 -1 -11 -6 -33 -9 -50 -4 -16 -8 -37 -10 -45 -2 -8 -4 -16 -5 -17
-2 -2 -3 -7 -4 -12 0 -5 -5 -13 -9 -17 -12 -12 -27 18 -21 42 3 11 6 27 8 35
1 8 8 32 14 54 6 22 14 55 17 74 7 43 12 51 31 51 12 0 14 -7 9 -31z m135 -15
c0 -9 -8 -18 -17 -21 -10 -2 -36 -29 -58 -58 -66 -89 -99 -67 -50 32 24 47 28
51 55 46 18 -2 30 0 30 6 0 6 9 11 20 11 12 0 20 -7 20 -16z m887 -269 c12 -3
31 -8 42 -10 12 -3 31 -7 44 -10 72 -18 240 -24 309 -12 27 5 47 -16 27 -29
-40 -24 -290 -16 -365 13 -37 13 3 -22 58 -52 45 -25 66 -29 133 -31 100 -2
97 -2 93 -16 -3 -7 -20 -15 -39 -18 l-34 -6 33 -17 c17 -10 32 -15 32 -11 0 4
6 1 13 -5 8 -6 17 -8 20 -4 4 3 7 1 7 -5 0 -7 5 -12 10 -12 23 0 100 -43 100
-56 0 -8 -5 -14 -10 -14 -6 0 -78 29 -161 65 -140 59 -157 64 -231 66 -44 1
-106 7 -138 14 -42 9 -57 9 -54 1 6 -15 119 -96 133 -96 6 0 11 -4 11 -10 0
-5 3 -9 8 -8 4 1 21 -5 37 -12 17 -7 33 -14 38 -15 14 -4 17 -5 20 -4 1 0 16
-5 32 -11 17 -7 43 -14 59 -16 39 -5 59 -23 46 -39 -14 -16 -133 13 -223 54
-59 27 -157 94 -204 140 -13 12 -23 20 -23 17 0 -15 97 -141 132 -170 52 -45
176 -105 248 -121 78 -17 175 -46 184 -55 16 -16 -13 -31 -36 -19 -10 5 -18 7
-18 4 0 -4 -6 -3 -12 1 -7 5 -19 9 -28 10 -8 1 -48 12 -89 23 -49 15 -77 18
-85 12 -7 -6 -23 -9 -36 -7 -28 3 -164 53 -195 71 -18 11 -135 19 -135 10 0
-6 149 -76 170 -80 49 -12 121 -33 127 -38 11 -12 -19 -38 -32 -27 -6 5 -14 8
-17 5 -13 -13 -177 52 -280 112 -31 18 -59 33 -62 33 -4 0 12 -25 34 -55 41
-56 50 -85 26 -85 -15 0 -178 214 -179 234 -1 45 1 45 97 -4 85 -43 157 -66
156 -51 -1 8 -69 51 -81 51 -5 0 -9 3 -9 8 0 4 -18 18 -40 32 -38 23 -48 39
-34 52 7 7 64 -24 64 -34 0 -5 7 -8 15 -8 8 0 15 -4 15 -10 0 -5 6 -10 13 -10
7 0 22 -8 33 -17 11 -10 31 -24 45 -32 89 -52 142 -81 150 -81 6 0 24 -7 40
-16 17 -8 33 -13 36 -11 2 3 -11 13 -30 22 -19 9 -53 32 -75 51 -22 19 -43 30
-47 25 -15 -25 -110 47 -160 122 -27 40 -32 54 -23 65 12 14 11 15 68 -55 6
-7 10 -15 10 -18 0 -8 37 -43 60 -55 17 -9 14 -1 -16 44 -20 31 -40 56 -44 56
-4 0 -12 11 -18 25 -10 22 -9 25 8 25 10 0 24 -8 30 -17 8 -14 9 -12 4 11 l-7
29 49 -6 c27 -3 74 -10 104 -16 76 -14 130 -19 125 -12 -2 4 -33 27 -69 51
-36 25 -68 51 -71 58 -7 20 4 34 23 28 10 -2 27 -7 39 -11z m-520 -322 c11
-10 62 -74 113 -143 83 -110 180 -220 195 -220 11 0 65 -44 65 -52 0 -4 -9 -8
-21 -8 -43 0 -145 94 -237 220 -81 110 -88 113 -43 17 23 -51 22 -64 -3 -54
-17 7 -45 64 -71 147 -10 30 -21 59 -26 65 -11 12 -12 45 -1 45 5 0 18 -8 29
-17z m-2113 -148 c7 -64 14 -128 22 -185 3 -19 7 -60 10 -89 2 -30 7 -57 10
-60 4 -4 3 78 -1 180 -5 139 -4 189 5 194 6 4 15 3 20 -1 9 -10 27 -306 20
-339 -1 -5 -3 -21 -3 -35 -2 -18 -7 -25 -20 -23 -17 1 -18 -5 -12 -79 6 -73 5
-79 -12 -76 -20 4 -28 37 -38 145 -3 40 -8 82 -10 93 -2 12 -7 51 -11 88 -3
36 -7 73 -9 82 -2 8 -6 44 -10 80 -4 36 -9 68 -11 72 -6 10 30 28 38 20 3 -4
9 -34 12 -67z m932 38 c-4 -16 -9 -50 -12 -78 -7 -75 -13 -95 -28 -95 -29 0
-49 133 -21 144 8 3 20 17 27 31 16 35 42 34 34 -2z m44 -109 c0 -38 -3 -45
-17 -42 -19 4 -27 64 -10 85 16 22 27 4 27 -43z m-485 -48 c-47 -63 -109 -144
-121 -159 -8 -10 -40 -59 -71 -108 -30 -49 -60 -88 -67 -86 -13 4 -25 60 -21
96 2 14 6 60 10 101 3 41 7 84 10 95 2 11 4 30 4 43 1 16 7 22 22 22 21 0 21
-3 16 -57 -4 -32 -9 -68 -11 -80 -7 -33 8 -28 21 7 15 41 37 39 30 -2 -3 -18
-8 -44 -12 -58 -5 -17 2 -11 24 20 53 78 66 95 74 98 4 2 7 8 7 13 0 6 17 28
37 50 25 27 40 36 47 29 7 -7 7 -15 1 -24z m1270 -156 c4 -6 -9 -38 -29 -71
-27 -45 -31 -57 -17 -49 11 5 21 15 24 22 3 10 9 9 21 -3 15 -14 12 -20 -39
-72 -30 -32 -55 -52 -55 -46 0 23 -37 -21 -61 -72 -13 -27 -27 -49 -32 -49 -4
0 -17 -21 -28 -47 -17 -41 -22 -45 -34 -32 -13 13 -12 24 9 89 40 128 70 225
71 230 5 27 19 67 27 78 12 14 42 -3 32 -19 -13 -22 -42 -139 -34 -139 5 0 12
9 15 20 3 11 11 20 16 20 5 0 8 3 7 8 -1 4 15 37 37 74 39 65 57 80 70 58z
m-2159 -38 c6 -4 35 -56 64 -116 29 -59 82 -151 116 -203 35 -52 66 -98 69
-104 4 -5 -1 -12 -9 -15 -20 -8 -117 38 -171 79 -48 38 -115 103 -115 112 0 3
-10 16 -22 29 -50 51 -98 117 -98 132 0 31 28 10 85 -62 85 -109 155 -177 222
-217 l38 -22 -19 30 c-11 17 -30 46 -43 65 -12 19 -23 40 -23 46 0 7 -3 14 -7
16 -9 4 -47 75 -43 80 2 2 -8 21 -21 43 -53 87 -64 135 -23 107z m3054 -68 c0
-9 -13 -36 -30 -61 -16 -24 -30 -48 -30 -52 0 -5 -6 -14 -14 -21 -8 -6 -27
-43 -42 -81 -15 -38 -33 -69 -41 -69 -31 0 -3 77 76 207 53 87 81 114 81 77z
m-210 -36 c0 -9 -62 -98 -95 -135 -5 -6 -32 -41 -60 -77 -49 -64 -75 -82 -75
-50 0 14 56 91 86 119 6 6 34 43 63 83 48 66 81 90 81 60z m-3008 -29 c-2 -8
-5 -21 -7 -29 -2 -8 -13 -55 -25 -105 -12 -49 -23 -101 -25 -115 -1 -14 -4
-25 -5 -25 -1 0 -4 -11 -5 -25 -2 -14 -6 -34 -9 -45 -2 -11 -5 -28 -5 -38 -1
-24 -50 -72 -61 -61 -12 12 -14 101 -5 189 9 90 13 105 31 105 16 0 16 4 -1
-165 -5 -56 11 -22 19 39 4 27 9 53 11 56 2 4 7 22 10 41 3 19 14 69 25 111
11 43 20 80 20 83 0 4 8 5 18 3 9 -2 15 -11 14 -19z m767 -497 c5 -10 11 -54
13 -98 2 -65 0 -79 -12 -79 -15 0 -16 4 -19 50 -2 37 -16 30 -40 -17 -30 -61
-58 -91 -76 -84 -13 5 -9 15 20 58 19 29 35 58 35 65 0 7 5 13 10 13 6 0 10
11 10 23 0 13 3 27 8 31 4 4 7 11 8 14 2 17 17 42 25 42 4 0 13 -8 18 -18z
m1053 -802 c9 -37 57 -192 90 -295 29 -90 32 -115 13 -115 -8 0 -17 6 -19 13
-2 6 -8 28 -15 47 -7 19 -14 42 -16 50 -2 8 -21 71 -43 140 -22 69 -43 143
-47 164 -7 33 -5 38 11 34 11 -2 21 -16 26 -38z"/>
        <path d="M5165 4719 c-4 -6 -5 -12 -2 -15 2 -3 7 2 10 11 7 17 1 20 -8 4z"/>
        <path d="M5129 4653 c-12 -21 -22 -42 -21 -46 1 -4 -5 -10 -13 -13 -8 -4 -15
-15 -15 -25 0 -10 -4 -19 -9 -19 -5 0 -11 -8 -15 -17 -3 -10 -9 -24 -12 -31
-5 -10 1 -9 19 3 24 15 61 78 69 115 2 8 6 17 9 20 8 7 22 50 16 50 -3 0 -15
-17 -28 -37z"/>
        <path d="M4766 4601 c-15 -35 -26 -64 -24 -67 7 -7 60 104 56 117 -2 7 -17
-16 -32 -50z"/>
        <path d="M4905 4540 c-25 -39 -45 -74 -45 -79 0 -5 -4 -11 -9 -13 -5 -1 -11
-10 -13 -18 -2 -8 -7 -18 -13 -22 -5 -4 -7 -10 -3 -13 3 -4 24 20 47 53 22 33
37 62 34 66 -4 3 -1 6 6 6 7 0 10 4 7 9 -4 5 -3 11 1 13 9 4 44 68 37 68 -2 0
-24 -32 -49 -70z"/>
        <path d="M5135 4391 c-6 -5 -19 -11 -30 -14 -13 -3 -9 -5 13 -6 22 -1 32 4 32
14 0 17 -2 18 -15 6z"/>
        <path d="M5216 4353 c-3 -3 -18 -7 -33 -9 -93 -13 -110 -18 -128 -34 -11 -9
-29 -22 -40 -28 -25 -14 -5 -15 50 -2 22 5 54 11 70 14 17 3 41 8 55 12 14 3
39 7 55 9 17 2 30 4 30 5 0 1 11 4 24 6 28 5 37 11 28 20 -7 7 -104 13 -111 7z"/>
        <path d="M5240 4274 c-30 -7 -66 -15 -80 -18 -14 -2 -45 -9 -70 -14 -91 -21
-138 -24 -142 -9 -2 11 -9 10 -33 -5 l-30 -18 109 1 c120 2 220 19 290 50 74
32 55 38 -44 13z"/>
        <path d="M3663 4188 c12 -24 21 -45 22 -48 1 -3 5 -16 9 -29 l8 -24 14 24 c16
29 18 42 4 34 -5 -3 -10 -2 -10 4 0 5 -11 22 -25 37 -14 15 -25 31 -25 35 0 5
-4 9 -9 9 -5 0 0 -19 12 -42z"/>
        <path d="M5075 4170 c-3 -5 -1 -10 4 -10 6 0 11 5 11 10 0 6 -2 10 -4 10 -3 0
-8 -4 -11 -10z"/>
        <path d="M3760 4129 c0 -5 5 -7 10 -4 6 3 10 8 10 11 0 2 -4 4 -10 4 -5 0 -10
-5 -10 -11z"/>
        <path d="M3730 4055 c-7 -8 -8 -15 -2 -15 5 0 15 7 22 15 7 8 8 15 2 15 -5 0
-15 -7 -22 -15z"/>
        <path d="M3667 3921 c-6 -25 1 -32 22 -22 9 4 31 7 49 7 27 -1 30 1 16 11 -9
6 -22 9 -29 7 -7 -3 -16 -1 -20 5 -10 18 -32 13 -38 -8z"/>
        <path d="M4204 3788 c-126 -119 -163 -156 -157 -162 4 -3 -1 -6 -10 -6 -9 0
-17 -4 -17 -9 0 -16 -144 -81 -224 -101 -93 -23 -274 -29 -286 -10 -4 7 -6 31
-3 54 l4 41 -17 -30 c-41 -74 -65 -85 -184 -90 -98 -4 -192 -32 -257 -76 -76
-53 -336 -177 -438 -209 -71 -23 -180 -76 -205 -101 -14 -13 -37 -41 -50 -62
-23 -35 -39 -45 -145 -92 -22 -10 -42 -21 -45 -24 -11 -15 -156 -124 -183
-138 -31 -16 -81 -22 -213 -27 -69 -3 -90 -8 -135 -34 -65 -37 -159 -73 -171
-66 -4 3 -8 0 -8 -5 0 -6 -3 -10 -7 -9 -5 1 -26 -7 -48 -17 -48 -22 -58 -24
-113 -29 -24 -3 -56 -9 -70 -15 -15 -5 -46 -15 -69 -21 -37 -9 -43 -15 -49
-45 -3 -18 -3 -38 0 -44 4 -5 2 -12 -4 -16 -6 -4 -7 -13 -1 -23 12 -22 12 -22
-3 -86 -15 -65 -17 -65 84 19 36 30 75 58 88 61 12 3 22 10 22 14 0 4 17 15
38 24 20 9 73 39 117 66 44 27 85 49 92 50 6 0 18 6 25 13 7 7 28 19 46 26 17
7 32 18 32 24 0 6 3 8 6 5 3 -4 38 9 77 28 40 18 122 49 182 68 136 43 174 57
205 77 99 64 180 88 253 76 27 -4 28 -3 21 22 -9 34 -6 79 6 94 6 7 18 21 28
33 36 43 128 90 242 123 41 12 96 33 123 46 129 68 152 80 157 85 9 9 65 34
73 32 4 -1 7 3 7 8 0 6 4 10 9 10 5 0 38 16 73 36 105 60 127 65 316 69 95 2
185 6 200 9 15 3 47 8 72 10 159 16 292 83 425 214 108 107 179 182 173 182
-3 0 -41 -33 -84 -72z m-2704 -1186 c0 -4 -28 -22 -62 -40 -35 -18 -96 -53
-136 -78 -41 -24 -76 -44 -78 -44 -3 0 -10 -5 -17 -10 -38 -32 -60 -50 -63
-50 -2 0 -2 28 -1 62 l2 61 55 19 c30 11 71 21 90 22 54 5 103 17 126 33 12 7
32 16 44 18 13 2 25 7 28 10 8 7 12 6 12 -3z"/>
        <path d="M3457 3778 c11 -13 29 -34 41 -47 12 -14 24 -22 27 -19 3 2 -13 23
-36 46 -42 44 -67 58 -32 20z"/>
        <path d="M2866 3162 c-2 -1 -23 -4 -47 -7 -59 -6 -102 -19 -106 -32 -3 -8 7
-10 29 -7 156 23 223 28 321 24 26 -2 51 0 54 4 4 3 -6 7 -20 7 -26 1 -44 4
-49 8 -5 3 -179 6 -182 3z"/>
        <path d="M2907 3104 c-4 -4 -112 -16 -172 -20 -33 -2 -62 -4 -65 -5 -3 -1 -8
-1 -13 0 -16 3 -151 -40 -180 -57 -33 -19 -41 -42 -31 -93 5 -26 76 -106 86
-98 3 2 11 -1 19 -7 18 -14 101 -35 186 -46 39 -5 155 -55 185 -78 l37 -30 24
47 c13 27 32 70 42 97 20 53 83 126 103 119 19 -7 14 -23 -14 -46 -24 -19 -60
-84 -79 -145 -7 -23 -6 -23 24 -8 37 19 47 20 54 3 3 -9 -18 -26 -61 -48 -63
-32 -65 -34 -36 -39 16 -4 39 -12 51 -18 19 -11 27 -5 88 61 37 39 74 87 83
105 15 31 35 41 46 23 5 -8 -30 -67 -75 -125 l-23 -29 50 28 c27 16 59 37 72
46 21 16 52 16 52 0 -1 -15 -191 -131 -242 -148 -35 -11 -13 -43 25 -36 21 4
25 8 17 18 -11 13 0 27 25 31 53 9 104 17 122 18 12 1 25 4 28 8 10 10 45 -3
45 -18 0 -17 -7 -21 -60 -28 -69 -11 -127 -24 -110 -25 8 -1 26 -17 40 -35 14
-19 49 -46 78 -60 29 -14 55 -33 58 -41 5 -12 18 -14 64 -9 33 3 67 7 77 9 10
2 24 4 31 4 6 1 12 8 12 16 0 20 83 143 124 185 24 24 15 25 -50 5 -52 -15
-54 -18 -93 -107 -12 -26 -26 -50 -32 -54 -21 -13 -27 19 -10 50 29 53 32 66
13 59 -9 -4 -26 -13 -38 -20 -18 -11 -23 -11 -33 1 -10 12 -6 18 18 32 16 9
27 23 25 29 -6 15 36 111 70 161 29 43 27 55 -4 26 -28 -26 -54 -19 -39 9 6
11 21 25 35 31 13 6 24 15 24 19 0 10 -35 -2 -83 -28 -17 -9 -34 -18 -37 -18
-3 0 -19 -9 -37 -18 -39 -21 -53 -21 -53 -2 0 9 32 30 78 52 42 20 79 39 82
42 3 3 10 7 15 8 6 1 31 12 56 25 l47 24 -26 23 c-52 46 -132 74 -277 97 -22
4 -51 8 -65 10 -74 12 -364 26 -373 18z"/>
        <path d="M3696 2911 c-3 -5 1 -11 9 -15 9 -3 15 0 15 9 0 16 -16 20 -24 6z"/>
        <path d="M4666 2903 c-13 -14 -74 -17 -226 -13 -36 1 -78 -1 -95 -5 -16 -4
-68 -8 -115 -10 -179 -7 -220 -10 -220 -16 0 -3 13 -6 28 -7 39 -1 46 -3 118
-38 l65 -30 107 27 c59 15 108 26 110 24 2 -2 19 3 38 11 19 8 34 11 34 7 0
-4 5 -2 11 4 9 9 16 8 27 -3 8 -9 11 -19 6 -24 -5 -4 -70 -23 -144 -41 l-135
-32 35 -15 c24 -10 81 -15 187 -16 l151 -2 12 45 c7 25 14 52 16 59 5 18 1 16
-45 -28 -40 -38 -71 -51 -71 -30 0 16 110 121 120 115 6 -3 10 1 10 9 0 17
-12 21 -24 9z"/>
        <path d="M4715 2860 c-4 -17 -9 -41 -10 -53 -19 -112 -19 -104 10 -111 38 -10
30 -39 -13 -40 -17 -1 -32 3 -32 8 0 5 -3 7 -6 4 -3 -3 9 -36 26 -73 21 -44
41 -72 61 -83 31 -18 39 -42 13 -42 -8 0 -49 16 -90 36 -41 20 -76 35 -78 33
-2 -2 7 -28 20 -57 16 -37 31 -55 51 -63 27 -11 91 -21 125 -21 22 1 32 -27
13 -34 -9 -4 -29 -4 -45 -2 -17 3 -35 -1 -41 -8 -8 -9 7 -12 68 -10 72 1 78 3
75 21 -7 38 -54 150 -84 197 -31 50 -34 91 -7 96 9 2 24 -4 32 -13 9 -8 20
-15 26 -15 6 0 11 -4 11 -10 0 -5 7 -10 15 -10 8 0 15 -5 15 -12 0 -6 2 -9 5
-6 3 2 -8 31 -23 64 -16 32 -40 87 -53 122 l-24 63 -5 -73 c-4 -56 -8 -73 -20
-73 -12 0 -15 18 -16 93 -1 99 -8 123 -19 72z"/>
        <path d="M3948 2862 c-21 -2 -38 -7 -38 -13 0 -8 70 -2 79 7 8 7 -4 9 -41 6z"/>
        <path d="M1905 2823 l-39 -35 44 3 c44 3 100 26 100 42 0 4 -1 7 -3 7 -1 0
-16 4 -33 9 -27 7 -35 4 -69 -26z"/>
        <path d="M2265 2850 c-16 -7 -17 -9 -3 -9 9 -1 20 4 23 9 7 11 7 11 -20 0z"/>
        <path d="M3720 2845 c-20 -24 -6 -28 15 -5 10 11 13 20 8 20 -6 0 -16 -7 -23
-15z"/>
        <path d="M3660 2842 c0 -6 -9 -14 -20 -17 -11 -4 -18 -11 -15 -16 4 -5 2 -9
-3 -9 -5 0 -17 -16 -28 -35 -10 -19 -22 -35 -27 -35 -4 0 -5 -4 -2 -10 3 -5 1
-10 -4 -10 -6 0 -10 -3 -9 -7 1 -5 -4 -21 -11 -37 -14 -36 -11 -40 17 -20 12
8 22 26 22 39 0 14 7 26 18 29 10 4 29 20 41 37 19 25 21 33 10 40 -11 6 -9
12 6 28 10 12 15 24 12 28 -4 3 -7 1 -7 -5z"/>
        <path d="M2222 2828 c-7 -7 -12 -9 -12 -5 0 4 -19 -5 -42 -19 -76 -49 -217
-104 -330 -129 -9 -2 -26 -9 -37 -15 -12 -6 -21 -7 -21 -3 0 4 -4 2 -9 -5 -4
-7 -14 -15 -22 -17 -40 -9 -58 -18 -53 -26 3 -5 8 -7 12 -5 4 2 25 7 46 10
104 17 231 69 374 153 40 24 76 43 81 43 5 0 14 7 21 15 15 18 9 20 -8 3z"/>
        <path d="M2406 2831 c34 -32 133 -110 154 -121 14 -8 64 -15 117 -16 93 -3
189 -24 232 -51 32 -20 24 4 -10 29 -32 23 -62 28 -242 42 -70 6 -150 41 -204
90 -22 20 -44 36 -49 36 -4 0 -4 -4 2 -9z"/>
        <path d="M3743 2799 c-65 -45 -56 -47 35 -7 23 10 40 23 37 28 -10 16 -28 11
-72 -21z"/>
        <path d="M3951 2813 c-31 -4 -32 -5 -15 -18 24 -16 224 -78 231 -71 3 3 19 -2
35 -10 35 -18 128 -35 128 -23 0 5 -12 12 -27 15 -16 4 -69 29 -119 55 -94 50
-154 63 -233 52z"/>
        <path d="M3838 2763 c-7 -21 -13 -42 -13 -48 0 -5 -4 -16 -8 -22 -13 -21 5
-15 32 11 15 14 38 31 53 39 l27 14 -39 22 -38 21 -14 -37z"/>
        <path d="M5038 2748 c59 -28 75 -49 51 -64 -11 -6 52 -34 79 -34 9 0 -40 85
-63 108 -2 2 -18 5 -37 8 -18 2 -46 6 -63 8 -22 3 -13 -4 33 -26z"/>
        <path d="M2600 2760 c8 -5 22 -9 30 -9 10 0 8 3 -5 9 -27 12 -43 12 -25 0z"/>
        <path d="M3725 2724 c-27 -13 -63 -28 -79 -34 -55 -19 -17 -23 51 -5 62 16 93
35 93 57 0 12 -9 9 -65 -18z"/>
        <path d="M3954 2708 c5 -46 16 -64 16 -25 0 25 8 32 38 28 27 -4 10 16 -23 26
l-34 11 3 -40z"/>
        <path d="M4040 2715 c0 -10 65 -121 74 -127 7 -5 7 -8 1 -8 -6 0 -6 -3 0 -8 6
-4 18 -19 28 -34 22 -34 30 -35 47 -3 12 22 10 31 -20 87 -18 35 -34 64 -36
66 -4 6 -94 31 -94 27z"/>
        <path d="M4340 2690 c0 -3 20 -12 45 -21 44 -16 52 -15 37 7 -7 12 -82 25 -82
14z"/>
        <path d="M5028 2693 c7 -3 16 -2 19 1 4 3 -2 6 -13 5 -11 0 -14 -3 -6 -6z"/>
        <path d="M3844 2649 c-60 -50 -83 -86 -28 -44 56 42 89 74 83 79 -3 3 -27 -13
-55 -35z"/>
        <path d="M4470 2681 c0 -5 5 -13 10 -16 6 -3 10 -2 10 4 0 5 -4 13 -10 16 -5
3 -10 2 -10 -4z"/>
        <path d="M4530 2679 c0 -34 35 -79 81 -102 27 -15 49 -22 49 -17 0 5 -14 35
-31 68 -29 53 -35 59 -65 60 -19 1 -34 -3 -34 -9z"/>
        <path d="M4208 2652 c12 -34 52 -57 52 -31 0 8 4 8 14 -1 8 -6 13 -17 10 -23
-2 -7 19 -25 49 -41 51 -28 55 -29 78 -13 30 22 39 21 39 -2 0 -11 -9 -23 -22
-27 l-23 -8 25 -6 c19 -4 25 -12 24 -30 -2 -40 -3 -41 -23 -30 -11 5 -22 6
-25 1 -3 -5 -22 -16 -41 -26 -36 -16 -36 -17 -16 -34 11 -10 17 -21 14 -25 -4
-4 0 -4 10 0 9 3 28 -1 41 -9 22 -15 23 -14 22 1 0 9 5 16 12 14 10 -2 10 2 2
17 -14 26 -13 31 5 31 9 0 25 9 36 19 20 18 20 19 1 32 -12 9 -19 26 -19 45 0
78 -58 128 -161 140 -26 3 -61 9 -79 14 -27 7 -31 6 -25 -8z"/>
        <path d="M4030 2628 c11 -46 20 -67 48 -112 18 -29 21 -41 12 -50 -12 -12 -37
13 -69 73 l-18 34 -7 -64 c-9 -91 -24 -139 -43 -139 -13 0 -14 8 -9 50 8 60 0
63 -54 20 -21 -17 -62 -40 -92 -51 -97 -38 -96 -38 -68 -37 36 1 132 -12 144
-20 12 -7 30 -9 101 -12 85 -3 85 -3 107 48 11 26 26 54 33 62 25 29 26 56 4
81 -11 13 -37 52 -56 87 -19 34 -36 62 -38 62 -2 0 1 -15 5 -32z"/>
        <path d="M1331 2638 c-11 -4 -29 -5 -41 -3 -11 2 -20 -1 -20 -7 0 -7 16 -8 48
-3 51 8 94 25 55 22 -12 0 -31 -5 -42 -9z"/>
        <path d="M3922 2633 c-10 -19 -37 -103 -45 -141 -5 -20 -3 -22 11 -10 50 39
54 47 67 132 5 28 3 36 -9 36 -8 0 -19 -8 -24 -17z"/>
        <path d="M1191 2614 c-10 -7 -21 -11 -23 -8 -3 2 -11 -2 -17 -10 -11 -13 -9
-14 16 -7 15 5 40 14 54 19 15 6 30 9 33 6 3 -2 4 -1 1 3 -9 12 -45 10 -64 -3z"/>
        <path d="M3017 2607 c4 -6 17 -27 30 -46 22 -32 23 -33 23 -9 0 28 -17 52 -43
61 -13 5 -16 3 -10 -6z"/>
        <path d="M4490 2601 c0 -23 32 -97 47 -108 38 -29 42 -12 13 50 -18 38 -60 79
-60 58z"/>
        <path d="M3837 2570 c-29 -23 -43 -25 -50 -7 -5 12 -8 5 -22 -38 -2 -8 -12
-15 -21 -15 -12 0 -15 7 -12 25 6 29 5 30 -27 9 -14 -9 -25 -12 -25 -8 0 5 -7
0 -15 -10 -8 -11 -15 -16 -15 -11 0 6 -9 -7 -20 -28 -11 -20 -20 -39 -20 -41
0 -3 15 0 33 5 17 6 37 12 42 13 6 2 24 8 40 15 104 40 140 59 131 69 -3 2 -1
13 5 23 12 24 8 24 -24 -1z"/>
        <path d="M4263 2529 c17 -43 40 -57 62 -39 16 13 16 15 -2 28 -10 7 -30 20
-46 28 l-27 15 13 -32z"/>
        <path d="M3140 2521 l-35 -6 41 -40 c23 -22 43 -47 46 -55 5 -15 30 -16 148
-10 8 0 -10 14 -40 31 -30 16 -65 43 -78 59 -13 17 -29 29 -35 29 -7 -1 -28
-4 -47 -8z"/>
        <path d="M4211 2501 c-7 -12 -11 -29 -9 -39 2 -12 -3 -17 -19 -16 -13 1 -23
-4 -23 -12 0 -8 -3 -14 -7 -14 -5 0 -13 -11 -20 -25 -6 -14 -8 -23 -5 -22 27
14 132 81 132 83 0 2 -9 18 -19 35 -19 31 -19 31 -30 10z"/>
        <path d="M3096 2440 c14 -35 32 -69 40 -77 8 -8 14 -21 14 -29 0 -8 5 -12 10
-9 6 3 10 3 10 -2 0 -4 13 -17 28 -28 l27 -19 -27 36 c-24 31 -34 56 -37 91
-1 4 -21 28 -46 53 l-45 47 26 -63z"/>
        <path d="M3798 2471 c-6 -13 -197 -73 -240 -75 -9 0 -15 -3 -12 -7 6 -11 110
-2 200 17 6 1 33 11 59 23 37 16 46 24 37 33 -14 14 -40 19 -44 9z"/>
        <path d="M4335 2455 c-16 -14 -26 -25 -22 -25 14 0 67 34 67 42 0 14 -14 8
-45 -17z"/>
        <path d="M4550 2431 c0 -9 24 -21 43 -21 6 0 2 7 -9 15 -22 17 -34 19 -34 6z"/>
        <path d="M4506 2385 c4 -8 11 -15 16 -15 6 0 5 6 -2 15 -7 8 -14 15 -16 15 -2
0 -1 -7 2 -15z"/>
        <path d="M4257 2365 c-15 -8 -29 -14 -30 -13 -1 0 -18 -6 -37 -14 l-35 -15 50
-2 c28 -2 57 -3 65 -4 8 0 21 -8 28 -19 20 -28 31 -22 27 15 -7 68 -19 78 -68
52z"/>
        <path d="M3233 2356 c2 -5 12 -10 23 -11 28 -2 174 -36 174 -40 0 -2 -7 -10
-15 -18 -12 -13 -23 -12 -89 3 -84 19 -83 21 -24 -49 31 -36 29 -36 175 10
105 33 120 35 120 14 0 -10 -22 -22 -61 -35 l-61 -19 48 0 c26 -1 49 -2 52 -3
2 0 34 -7 70 -13 50 -10 65 -10 65 -1 0 7 -5 17 -11 23 -5 5 -12 32 -13 58
l-4 49 -48 -1 c-27 -1 -62 -8 -79 -17 -54 -28 -111 -14 -150 38 -18 24 -24 25
-97 24 -44 -2 -77 -7 -75 -12z"/>
        <path d="M3463 2342 c19 -21 42 -22 74 -3 15 9 11 10 -19 11 -20 0 -45 3 -55
7 -17 6 -17 6 0 -15z"/>
        <path d="M3019 2269 c-35 -40 -72 -84 -83 -98 l-20 -26 29 25 c15 14 55 51 88
83 47 44 63 55 73 46 8 -6 11 -15 8 -20 -6 -11 7 -12 23 -1 8 5 4 15 -12 35
-13 15 -28 27 -33 27 -5 0 -37 -32 -73 -71z"/>
        <path d="M4372 2290 c-3 -38 4 -46 32 -41 4 1 13 -2 20 -7 6 -5 22 -12 35 -15
20 -5 14 4 -29 49 -30 29 -55 54 -55 54 -1 0 -2 -18 -3 -40z"/>
        <path d="M3720 2288 c1 -18 9 -48 19 -66 15 -30 19 -32 30 -18 11 13 10 24 -6
63 -23 58 -43 68 -43 21z"/>
        <path d="M3795 2310 c-3 -5 -2 -17 3 -26 8 -14 10 -12 10 9 0 29 -3 33 -13 17z"/>
        <path d="M3845 2302 c-9 -6 -11 -35 -5 -52 1 -3 3 -22 4 -42 1 -26 17 -59 51
-108 56 -81 69 -94 89 -87 24 9 -14 113 -63 170 -22 27 -41 53 -41 57 0 19 18
18 38 0 26 -24 32 -25 32 -4 0 33 26 5 37 -40 15 -59 29 -76 17 -21 -4 22 -8
56 -8 75 l0 35 -60 3 c-32 1 -64 6 -70 11 -7 6 -16 7 -21 3z"/>
        <path d="M4516 2250 c29 -29 56 -51 61 -49 5 2 -18 26 -51 53 l-61 49 51 -53z"/>
        <path d="M4016 2283 c-3 -3 0 -15 6 -28 7 -15 16 -21 28 -18 13 3 20 -2 25
-19 4 -12 23 -57 42 -98 20 -41 39 -85 44 -97 10 -28 17 -28 48 -2 l24 20 -39
42 c-21 23 -49 51 -61 64 -13 12 -23 27 -23 33 0 5 -4 10 -8 10 -10 0 -33 61
-26 71 8 14 29 0 42 -29 7 -15 28 -45 48 -67 20 -22 47 -52 60 -67 24 -28 48
-36 58 -19 3 4 -6 18 -19 31 -13 12 -37 41 -52 64 -15 22 -30 43 -33 46 -3 3
-13 19 -22 35 -16 28 -21 30 -77 31 -33 1 -62 -1 -65 -3z"/>
        <path d="M4190 2278 c0 -13 81 -127 108 -151 30 -28 45 -11 16 18 -13 13 -24
31 -24 40 0 17 25 21 35 5 3 -5 11 -10 16 -10 21 0 -14 42 -47 56 -20 8 -34
21 -34 32 0 12 -9 18 -35 19 -19 1 -35 -3 -35 -9z"/>
        <path d="M3180 2250 c12 -8 12 -11 -2 -27 -20 -22 -70 -133 -60 -133 4 0 2 -4
-5 -8 -6 -4 -15 -21 -18 -37 l-7 -30 18 25 c10 14 27 34 37 45 10 11 20 29 23
40 7 28 12 57 13 73 1 6 10 12 21 12 19 0 20 -4 14 -37 -4 -21 -11 -48 -15
-61 -12 -32 -11 -65 1 -57 6 4 17 21 25 38 7 18 22 45 32 60 l18 29 -45 39
c-25 21 -49 39 -55 39 -5 0 -3 -4 5 -10z"/>
        <path d="M4046 2170 c10 -63 27 -109 40 -114 20 -8 17 8 -10 67 -12 29 -26 59
-29 67 -4 8 -4 -1 -1 -20z"/>
        <path d="M3702 2084 c-83 -84 -112 -103 -112 -74 0 5 27 37 60 70 33 33 60 63
60 65 0 19 -100 -11 -120 -36 -3 -4 -16 -10 -30 -14 -14 -4 -32 -13 -40 -20
-8 -7 -25 -16 -38 -20 -12 -3 -20 -10 -17 -15 11 -18 160 -80 200 -83 44 -3
44 -3 47 32 3 31 7 36 28 36 14 1 39 13 56 28 30 26 30 29 20 77 -5 28 -12 50
-15 50 -4 0 -48 -43 -99 -96z"/>
        <path d="M4514 2159 c29 -23 47 -19 26 6 -7 8 -22 15 -33 15 -18 0 -17 -2 7
-21z"/>
        <path d="M3379 2141 c11 -15 25 -40 31 -55 10 -28 30 -27 30 0 0 17 9 27 54
62 l29 22 -82 0 -82 0 20 -29z"/>
        <path d="M3560 2155 c-16 -19 -1 -19 24 0 16 12 17 15 4 15 -8 0 -21 -7 -28
-15z"/>
        <path d="M4390 2160 c0 -5 5 -10 11 -10 5 0 7 5 4 10 -3 6 -8 10 -11 10 -2 0
-4 -4 -4 -10z"/>
        <path d="M4360 2080 c0 -5 5 -10 11 -10 5 0 7 5 4 10 -3 6 -8 10 -11 10 -2 0
-4 -4 -4 -10z"/>
        <path d="M3873 2045 c0 -8 4 -15 9 -15 4 0 8 -11 8 -25 0 -23 18 -34 33 -19 6
6 -34 74 -44 74 -3 0 -6 -7 -6 -15z"/>
        <path d="M4381 2057 c2 -1 13 -9 24 -17 19 -14 19 -14 6 3 -7 9 -18 17 -24 17
-6 0 -8 -1 -6 -3z"/>
        <path d="M4296 2041 c-8 -13 4 -41 18 -41 6 0 21 3 34 6 22 6 22 8 6 25 -18
20 -49 25 -58 10z"/>
        <path d="M3820 2032 c0 -4 6 -16 14 -27 7 -11 14 -24 14 -28 0 -5 3 -11 5 -14
3 -3 4 3 2 14 -2 10 -4 25 -4 34 -1 16 -31 36 -31 21z"/>
        <path d="M4235 1990 c-18 -19 -18 -20 3 -20 24 0 38 18 25 31 -6 6 -16 2 -28
-11z"/>
        <path d="M3770 1968 c0 -12 3 -18 7 -15 3 4 12 2 20 -4 14 -13 17 -2 7 25 -9
24 -34 19 -34 -6z"/>
        <path d="M4086 1949 c1 -22 7 -45 13 -53 6 -7 8 -16 4 -19 -3 -4 -2 -7 4 -7 6
0 13 -10 16 -22 4 -13 13 -32 22 -43 14 -19 14 -18 4 10 -6 17 -13 39 -15 50
-21 108 -52 162 -48 84z"/>
        <path d="M3995 1970 c-3 -5 -2 -10 3 -10 5 0 17 -16 28 -35 29 -54 44 -49 18
6 -24 48 -37 59 -49 39z"/>
        <path d="M3947 1954 c-3 -4 4 -21 17 -38 27 -37 66 -120 66 -141 0 -8 5 -15
10 -15 17 0 11 48 -11 87 -32 58 -75 113 -82 107z"/>
        <path d="M3671 1920 c-10 -6 64 -90 79 -90 4 0 4 17 -1 38 -5 20 -9 40 -9 43
0 9 -57 17 -69 9z"/>
        <path d="M3901 1915 c0 -11 -1 -29 -3 -40 -2 -14 2 -19 14 -17 10 1 23 -6 30
-18 7 -11 16 -20 21 -20 8 0 -23 64 -47 95 l-15 20 0 -20z"/>
        <path d="M3794 1859 c6 -50 27 -89 48 -89 5 0 16 -7 24 -15 9 -8 21 -15 27
-15 7 0 6 4 -3 10 -8 5 -11 10 -6 10 5 0 3 7 -4 15 -7 8 -10 15 -7 15 3 0 -5
26 -17 58 -17 44 -27 58 -45 60 -22 4 -23 2 -17 -49z"/>
        <path d="M5721 5271 c-11 -7 -10 -15 8 -45 l22 -35 -33 -21 c-18 -11 -46 -21
-63 -21 -34 -2 -58 -5 -65 -8 -6 -3 -18 -6 -70 -15 -19 -4 -41 -8 -47 -8 -7
-1 -13 -5 -13 -10 0 -4 -4 -7 -8 -5 -5 1 -36 -11 -69 -27 l-61 -29 -25 29 -25
29 -26 -30 c-97 -111 -96 -109 -81 -124 12 -12 21 -12 65 2 45 15 55 15 78 3
28 -15 62 -50 62 -64 0 -4 8 -15 18 -24 69 -65 79 -124 31 -184 -27 -35 -29
-39 -14 -51 14 -9 25 -8 59 7 22 10 56 24 74 30 35 14 41 34 16 62 -16 16 -14
21 23 70 81 107 240 278 259 278 8 0 14 -4 14 -10 0 -12 10 -13 29 -1 12 8 10
16 -12 45 -15 19 -27 39 -27 45 0 6 -4 11 -8 11 -5 0 -26 25 -47 55 -40 58
-42 60 -64 46z m-71 -182 c0 -6 -18 -29 -39 -52 -22 -23 -63 -72 -91 -109 -29
-38 -56 -68 -60 -68 -9 0 -72 76 -88 106 -10 18 -8 26 11 46 23 25 125 65 190
75 18 3 33 6 34 7 8 7 43 3 43 -5z"/>
        <path d="M1224 5115 c-4 -9 -19 -15 -38 -15 -73 -1 -145 -56 -191 -147 -51
-103 -38 -209 35 -280 65 -63 92 -69 267 -62 40 2 67 -2 78 -11 13 -11 19 -9
41 11 14 13 39 48 56 77 25 43 30 65 30 115 1 37 -7 79 -17 104 -9 24 -15 49
-12 57 5 11 -11 26 -27 26 -7 0 -55 -80 -49 -80 5 0 3 -4 -3 -8 -7 -4 -21 -24
-32 -44 -17 -30 -18 -38 -7 -48 10 -8 17 -7 29 5 15 15 18 13 35 -25 19 -42
17 -76 -6 -115 -11 -19 -12 -19 -50 1 -21 12 -70 31 -109 43 -76 22 -83 29
-75 75 7 33 51 70 51 43 0 -9 8 -21 18 -26 16 -8 24 0 57 57 22 37 41 69 45
72 3 3 6 11 8 18 3 17 -27 27 -41 13 -6 -6 -22 -11 -34 -11 -62 0 -128 -65
-139 -135 -3 -25 -10 -48 -15 -50 -13 -9 -81 57 -96 93 -12 29 -12 37 3 67 23
50 104 73 104 30 0 -18 22 -25 35 -11 6 6 24 34 39 61 16 28 36 60 43 72 13
19 12 23 -6 33 -17 9 -22 8 -27 -5z"/>
        <path d="M5831 4680 c-68 -33 -128 -60 -132 -60 -5 0 -9 -4 -9 -10 0 -5 -9
-10 -20 -10 -11 0 -20 -4 -20 -8 0 -17 -42 -10 -47 8 -7 25 -32 34 -40 14 -6
-15 33 -113 50 -125 5 -3 9 -10 9 -15 0 -19 34 -79 46 -82 18 -3 25 23 12 47
-10 20 -6 24 65 58 64 30 81 34 108 26 28 -8 33 -14 38 -51 12 -95 114 -134
210 -80 91 51 93 192 4 284 -37 39 -92 65 -135 63 -8 0 -71 -27 -139 -59z
m263 -59 c8 -7 14 -23 12 -35 -3 -11 -5 -24 -5 -27 -1 -8 -78 -49 -110 -59
-34 -9 -61 4 -61 30 0 13 -7 20 -19 20 -56 0 -6 35 108 75 40 15 53 14 75 -4z"/>
        <path d="M875 4592 c-88 -18 -155 -171 -115 -259 31 -67 91 -106 255 -163 155
-55 146 -50 139 -74 -11 -36 -10 -41 10 -41 20 0 27 16 112 252 37 106 41 124
29 137 -8 7 -53 28 -101 45 -99 36 -103 35 -134 -38 -19 -42 -71 -101 -90
-101 -19 0 -19 35 -1 54 42 45 31 152 -17 171 -36 15 -68 21 -87 17z m33 -133
c24 -15 31 -64 10 -72 -10 -3 -10 -8 1 -21 25 -30 2 -30 -55 0 -64 33 -81 60
-57 94 17 24 61 24 101 -1z m287 -101 c17 -6 33 -16 37 -22 5 -7 -16 -78 -28
-94 -4 -6 -194 62 -194 69 0 4 20 22 46 42 48 38 57 38 139 5z"/>
        <path d="M6174 4374 c-6 -3 -8 -18 -6 -34 2 -17 0 -30 -4 -31 -5 0 -16 -2 -24
-4 -42 -10 -67 -16 -213 -49 -88 -20 -165 -36 -172 -36 -7 0 -16 11 -19 25 -4
17 -13 25 -27 25 -22 0 -23 -12 -4 -87 3 -13 7 -31 9 -40 3 -10 16 -72 31
-138 28 -128 45 -161 76 -145 10 6 22 10 26 9 4 -1 10 0 13 1 6 2 27 7 65 14
73 14 84 19 90 37 4 11 3 34 -1 52 -13 59 3 175 24 178 4 0 14 2 22 4 16 4 53
12 85 19 11 2 25 5 30 6 24 5 35 -1 35 -20 0 -22 26 -38 39 -24 10 12 -41 239
-54 240 -6 1 -15 0 -21 -2z m-211 -295 c-8 -51 -10 -55 -46 -67 -21 -6 -56
-15 -78 -18 -35 -6 -39 -4 -48 19 -17 44 -17 79 -1 82 8 2 34 8 57 14 23 6 45
11 50 10 4 -1 15 0 23 4 24 9 45 14 48 12 1 -1 -1 -26 -5 -56z"/>
        <path d="M742 4079 c-116 -25 -172 -256 -86 -358 21 -26 78 -50 89 -39 3 2 7
34 11 70 l6 65 -37 6 c-49 8 -65 23 -65 63 0 37 26 62 63 59 111 -8 141 -32
133 -109 -5 -45 -5 -46 23 -46 26 0 29 4 34 45 4 25 15 55 26 66 17 19 27 21
76 15 112 -12 127 -39 77 -140 -20 -38 -35 -83 -35 -98 0 -25 36 -78 52 -76 3
0 8 -1 11 -2 17 -8 70 -5 73 4 2 6 3 31 3 56 -1 39 -4 45 -22 46 -12 1 -26 4
-33 8 -13 8 -15 38 -3 52 18 19 44 107 44 144 -1 72 -49 132 -118 144 -66 13
-135 -28 -150 -90 -7 -27 -21 -22 -27 11 -8 39 -26 74 -46 84 -41 22 -67 27
-99 20z"/>
        <path d="M6271 3941 c-7 -5 -10 -18 -6 -34 6 -23 3 -27 -31 -36 -20 -6 -41 -8
-46 -5 -4 3 -8 1 -8 -5 0 -5 -8 -8 -17 -6 -10 1 -22 0 -28 -4 -5 -3 -14 -6
-20 -7 -5 -1 -24 -4 -42 -7 -17 -3 -36 -7 -40 -10 -5 -3 -27 -8 -49 -11 -23
-4 -56 -11 -75 -16 -58 -17 -79 -13 -79 14 0 18 -5 24 -24 24 l-23 0 19 -87
c10 -47 22 -101 25 -119 6 -36 14 -45 35 -37 10 4 13 16 10 35 -4 25 0 30 24
35 16 4 37 9 46 12 10 2 28 6 40 8 13 3 89 20 171 39 81 18 148 30 148 25 1
-5 3 -13 4 -19 1 -5 3 -14 4 -20 0 -5 10 -10 21 -10 22 0 25 16 10 70 -11 41
-19 80 -27 132 -6 38 -21 52 -42 39z"/>
        <path d="M4779 1549 c-101 -61 -112 -70 -103 -93 6 -15 9 -15 29 -2 22 15 24
14 43 -16 11 -17 18 -41 16 -52 -2 -12 -9 -59 -16 -106 -6 -47 -14 -88 -18
-92 -3 -4 -33 39 -67 97 -59 101 -61 105 -42 119 12 8 17 19 13 30 -8 21 -15
20 -55 -7 -19 -12 -51 -31 -72 -42 -65 -34 -94 -62 -80 -76 10 -10 18 -10 38
1 14 7 27 11 29 9 6 -6 115 -188 143 -237 13 -23 35 -59 48 -79 30 -43 31 -60
5 -81 -13 -12 -17 -21 -11 -31 10 -15 12 -14 136 58 41 25 75 51 75 58 0 19
-28 27 -45 13 -11 -9 -19 -3 -45 37 -33 52 -33 65 -10 210 6 32 10 62 10 67 0
5 7 3 15 -4 8 -7 15 -18 15 -26 0 -7 7 -20 16 -28 8 -9 13 -16 9 -16 -3 0 -1
-6 5 -12 6 -7 30 -45 54 -84 l44 -72 -21 -21 c-32 -31 -10 -48 34 -25 87 44
168 104 163 119 -8 19 -23 19 -44 0 -21 -19 -12 -30 -152 203 l-97 164 25 22
c22 18 24 24 12 34 -11 9 -31 1 -99 -39z"/>
        <path d="M2203 1475 c-34 -14 -63 -55 -177 -248 -56 -93 -59 -97 -80 -84 -24
16 -46 12 -46 -8 0 -11 81 -70 115 -84 6 -2 27 -15 49 -28 34 -22 40 -23 53
-10 13 12 11 17 -13 36 l-27 21 27 40 c14 22 26 44 26 49 0 11 56 55 82 64 11
4 22 -3 32 -18 61 -92 201 -59 237 57 16 51 4 98 -36 145 -62 73 -165 102
-242 68z m169 -56 c21 -20 14 -61 -17 -115 -33 -57 -67 -74 -94 -50 -15 14
-24 15 -40 7 -40 -22 -40 -9 5 64 65 107 106 134 146 94z"/>
        <path d="M4268 1291 c-78 -20 -98 -29 -98 -43 0 -13 8 -18 29 -18 30 0 41 -14
41 -54 0 -31 -97 -225 -104 -206 -2 8 -7 29 -10 45 -9 43 -15 68 -30 127 -13
52 -13 53 10 61 13 5 24 12 24 15 -1 18 -18 31 -35 28 -37 -8 -200 -49 -203
-52 -2 -1 -1 -12 3 -23 5 -17 10 -19 30 -11 14 5 27 5 30 0 7 -12 105 -397
105 -415 0 -8 -9 -15 -20 -15 -11 0 -23 -7 -27 -16 -10 -28 10 -34 62 -18 27
8 59 16 70 18 75 14 103 27 98 45 -3 14 -13 19 -31 18 -22 -2 -27 4 -38 47 -7
26 -11 55 -9 65 4 22 85 190 94 195 7 4 72 -244 71 -271 0 -7 -9 -13 -20 -13
-20 0 -26 -16 -12 -36 5 -8 38 -3 117 17 61 15 111 28 113 28 1 1 -2 10 -8 21
-8 15 -17 18 -39 14 -19 -4 -28 -2 -29 8 0 7 -3 23 -6 36 -3 12 -8 30 -10 40
-2 9 -9 37 -16 62 -7 25 -13 52 -15 60 -2 8 -13 53 -25 100 -30 117 -31 113 2
127 32 14 33 38 2 38 -10 1 -63 -11 -116 -24z"/>
        <path d="M2696 1289 c-191 -62 -283 -192 -236 -334 12 -36 71 -147 92 -172 16
-20 36 -16 123 24 107 50 149 84 178 145 36 75 29 126 -33 254 -28 57 -54 104
-58 103 -4 0 -34 -9 -66 -20z m20 -187 c24 -63 44 -126 44 -141 0 -34 -23 -67
-62 -87 -29 -15 -60 -13 -56 3 1 8 -9 36 -41 106 -25 56 -41 117 -36 142 2 11
4 24 4 28 1 5 15 22 33 38 51 49 64 39 114 -89z"/>
        <path d="M3077 1186 c-89 -32 -148 -113 -155 -213 -3 -45 3 -66 38 -140 27
-56 42 -102 41 -126 0 -47 18 -56 104 -53 102 4 183 53 226 138 11 21 25 38
32 38 7 0 13 9 14 20 1 14 -5 20 -20 21 -12 0 -31 3 -42 5 -11 2 -35 5 -52 7
-18 1 -33 5 -33 8 0 3 -10 5 -22 3 -13 -1 -26 -3 -30 -3 -15 -2 -8 -32 8 -38
35 -13 -18 -122 -75 -156 -32 -19 -69 -13 -51 8 6 7 9 71 8 161 -2 161 8 216
45 260 27 31 68 35 97 9 28 -26 27 -91 -2 -114 -37 -30 -22 -38 109 -53 5 -1
23 -5 41 -9 26 -5 35 -4 39 8 4 9 0 21 -9 27 -8 6 -18 27 -22 46 -10 54 -50
105 -99 129 -56 27 -140 34 -190 17z"/>
        <path d="M3645 1182 c-128 -22 -203 -99 -209 -214 -4 -77 28 -150 101 -226 19
-20 31 -45 37 -77 7 -36 10 -38 48 -38 73 0 144 31 194 85 37 38 67 94 59 108
-3 5 -1 11 5 15 6 4 8 11 5 16 -4 5 0 9 8 9 19 0 30 29 14 36 -8 3 -47 3 -88
0 -41 -2 -81 -4 -90 -5 -9 -1 -19 -10 -22 -21 -4 -15 0 -20 15 -20 18 0 20 -5
16 -44 -7 -60 -38 -117 -75 -139 l-31 -17 0 27 c0 28 -6 69 -15 108 -3 11 -13
47 -21 80 -45 171 -13 289 73 270 44 -10 81 -95 46 -109 -8 -3 -15 -15 -15
-26 0 -20 4 -21 68 -16 37 2 84 5 105 5 30 1 37 4 35 19 -2 9 -12 22 -23 28
-11 6 -19 16 -17 22 1 7 -3 12 -8 12 -5 0 -10 6 -10 14 0 7 -14 28 -32 45 -40
40 -116 63 -173 53z"/>
    </g>
</svg>
