<svg width="73" height="47" viewBox="0 0 73 47" fill="none" xmlns="http://www.w3.org/2000/svg">
<g id="ApplePay">
<g id="ApplePay_2">
<rect id="Rectangle" width="73" height="47" rx="3" fill="#383838"/>
<path id="Path" d="M18.897 14.9711C18.2468 15.7474 17.2064 16.3597 16.166 16.2723C16.036 15.2225 16.5453 14.1072 17.1414 13.4184C17.7916 12.6201 18.9295 12.0516 19.8507 12.0078C19.9591 13.1013 19.5364 14.1728 18.897 14.9711ZM19.8398 16.48C18.3335 16.3925 17.0438 17.3438 16.3286 17.3438C15.6025 17.3438 14.508 16.5237 13.3159 16.5456C11.7661 16.5675 10.3248 17.4532 9.53369 18.8637C7.90811 21.6848 9.11104 25.8618 10.6824 28.158C11.4519 29.2952 12.373 30.5417 13.5868 30.498C14.7355 30.4543 15.1907 29.7435 16.5779 29.7435C17.9758 29.7435 18.3768 30.498 19.5906 30.4761C20.8477 30.4543 21.6388 29.3389 22.4083 28.2018C23.2861 26.9115 23.6437 25.654 23.6654 25.5884C23.6437 25.5666 21.2378 24.6371 21.2162 21.8379C21.1945 19.4979 23.1127 18.3826 23.1994 18.317C22.1157 16.6987 20.425 16.5237 19.8398 16.48ZM28.5421 13.309V30.3558H31.1647V24.5278H34.7951C38.1113 24.5278 40.4413 22.2315 40.4413 18.9075C40.4413 15.5834 38.1547 13.309 34.8818 13.309H28.5421ZM31.1647 15.5396H34.1883C36.4641 15.5396 37.7645 16.7643 37.7645 18.9184C37.7645 21.0725 36.4641 22.3081 34.1774 22.3081H31.1647V15.5396ZM45.2313 30.4871C46.8786 30.4871 48.4066 29.6451 49.1002 28.3111H49.1544V30.3558H51.5819V21.8707C51.5819 19.4104 49.6312 17.8249 46.6293 17.8249C43.8442 17.8249 41.7851 19.4323 41.7093 21.6411H44.0718C44.2668 20.5914 45.2313 19.9025 46.5535 19.9025C48.1574 19.9025 49.0569 20.657 49.0569 22.0457V22.986L45.784 23.1828C42.7388 23.3687 41.0915 24.6262 41.0915 26.8131C41.0915 29.0218 42.793 30.4871 45.2313 30.4871ZM45.9358 28.4642C44.5378 28.4642 43.6491 27.7862 43.6491 26.7475C43.6491 25.6759 44.5053 25.0526 46.1417 24.9542L49.0569 24.7683V25.7306C49.0569 27.327 47.7131 28.4642 45.9358 28.4642ZM54.8223 34.9921C57.3798 34.9921 58.5828 34.008 59.634 31.0229L64.2398 17.989H61.5738L58.4852 28.0596H58.431L55.3424 17.989H52.6006L57.0439 30.3996L56.8055 31.1541C56.4045 32.4334 55.7542 32.9254 54.5947 32.9254C54.3888 32.9254 53.9878 32.9036 53.8252 32.8817V34.9265C53.977 34.9702 54.6272 34.9921 54.8223 34.9921Z" fill="white"/>
</g>
</g>
</svg>
