<svg width="37" height="37" viewBox="0 0 37 37" fill="none" xmlns="http://www.w3.org/2000/svg">
<path d="M20.3502 18.5L16.0915 13.8639C15.9173 13.6867 15.8197 13.4482 15.8197 13.1997C15.8197 12.9513 15.9173 12.7127 16.0915 12.5356C16.1775 12.4489 16.2798 12.3801 16.3926 12.3331C16.5053 12.2862 16.6262 12.262 16.7483 12.262C16.8704 12.262 16.9913 12.2862 17.104 12.3331C17.2167 12.3801 17.319 12.4489 17.405 12.5356L22.598 17.834C22.7725 18.0106 22.8704 18.2489 22.8704 18.4972C22.8704 18.7455 22.7725 18.9838 22.598 19.1604L17.405 24.4588C17.3193 24.546 17.2171 24.6152 17.1043 24.6624C16.9916 24.7097 16.8705 24.734 16.7483 24.734C16.626 24.734 16.505 24.7097 16.3923 24.6624C16.2795 24.6152 16.1773 24.546 16.0915 24.4588C15.917 24.2822 15.8191 24.0439 15.8191 23.7956C15.8191 23.5473 15.917 23.309 16.0915 23.1324L20.3502 18.5ZM18.5002 0.73999C20.8325 0.73999 23.142 1.19937 25.2967 2.09189C27.4514 2.98441 29.4093 4.29261 31.0585 5.94177C32.7076 7.59094 34.0158 9.54879 34.9083 11.7035C35.8009 13.8583 36.2602 16.1677 36.2602 18.5C36.2602 28.3105 28.3089 36.26 18.5002 36.26C8.69154 36.26 0.740234 28.3105 0.740234 18.5C0.740234 13.7897 2.61137 9.27242 5.94202 5.94177C9.27266 2.61113 13.79 0.73999 18.5002 0.73999ZM18.5002 33.9549C22.5994 33.9549 26.5306 32.3265 29.4292 29.428C32.3277 26.5295 33.9561 22.5982 33.9561 18.4991C33.9561 14.3999 32.3277 10.4687 29.4292 7.57015C26.5306 4.67162 22.5994 3.04324 18.5002 3.04324C14.4011 3.04324 10.4698 4.67162 7.57132 7.57015C4.67279 10.4687 3.04441 14.3999 3.04441 18.4991C3.04441 22.5982 4.67279 26.5295 7.57132 29.428C10.4698 32.3265 14.4011 33.9549 18.5002 33.9549Z" fill="white"/>
</svg>
