<svg width="16" height="16" viewBox="0 0 16 16" fill="none" xmlns="http://www.w3.org/2000/svg">
<path d="M5.74009 12.8C5.66786 12.733 5.60952 12.6525 5.56842 12.563C5.52732 12.4735 5.50425 12.3767 5.50053 12.2783C5.49682 12.1799 5.51253 12.0817 5.54677 11.9893C5.58101 11.8969 5.63311 11.8122 5.70009 11.74L9.22709 8L5.70009 4.26C5.63312 4.18777 5.58103 4.10306 5.54679 4.0107C5.51256 3.91835 5.49685 3.82015 5.50056 3.72172C5.50428 3.62329 5.52734 3.52655 5.56844 3.43704C5.60954 3.34752 5.66787 3.26697 5.74009 3.2C5.81232 3.13303 5.89703 3.08093 5.98939 3.0467C6.08175 3.01246 6.17995 2.99675 6.27838 3.00047C6.37681 3.00418 6.47354 3.02725 6.56306 3.06835C6.65258 3.10945 6.73312 3.16777 6.80009 3.24L10.8001 7.49C10.9287 7.62869 11.0002 7.81085 11.0002 8C11.0002 8.18915 10.9287 8.37131 10.8001 8.51L6.80009 12.76C6.73313 12.8322 6.65258 12.8906 6.56307 12.9317C6.47355 12.9728 6.37681 12.9958 6.27838 12.9996C6.17995 13.0033 6.08175 12.9876 5.98939 12.9533C5.89703 12.9191 5.81232 12.867 5.74009 12.8Z" fill="#898989"/>
</svg>
