<svg width="60" height="60" viewBox="0 0 60 60" fill="none" xmlns="http://www.w3.org/2000/svg">
<path d="M7.5 30H30V33.75H7.5V30Z" fill="#81B751"/>
<path d="M3.75 20.625H22.5V24.375H3.75V20.625Z" fill="#81B751"/>
<path d="M56.0979 31.1363L50.4729 18.0113C50.3285 17.6739 50.0883 17.3864 49.782 17.1844C49.4756 16.9824 49.1167 16.8748 48.7498 16.875H43.1248V13.125C43.1248 12.6277 42.9272 12.1508 42.5756 11.7992C42.224 11.4475 41.7471 11.25 41.2498 11.25H11.2498V15H39.3748V38.5425C38.5204 39.0386 37.7727 39.699 37.1748 40.4855C36.5768 41.272 36.1405 42.1691 35.891 43.125H24.1085C23.6522 41.3575 22.5668 39.8171 21.056 38.7926C19.5452 37.7681 17.7125 37.3298 15.9016 37.5598C14.0907 37.7898 12.4259 38.6724 11.2192 40.0421C10.0124 41.4118 9.34668 43.1745 9.34668 45C9.34668 46.8255 10.0124 48.5882 11.2192 49.9579C12.4259 51.3276 14.0907 52.2102 15.9016 52.4402C17.7125 52.6702 19.5452 52.2319 21.056 51.2074C22.5668 50.1829 23.6522 48.6425 24.1085 46.875H35.891C36.2989 48.4842 37.2317 49.9114 38.5419 50.9309C39.852 51.9504 41.4647 52.504 43.1248 52.504C44.7849 52.504 46.3975 51.9504 47.7077 50.9309C49.0178 49.9114 49.9506 48.4842 50.3585 46.875H54.3748C54.8721 46.875 55.349 46.6775 55.7006 46.3258C56.0522 45.9742 56.2498 45.4973 56.2498 45V31.875C56.2499 31.621 56.1982 31.3696 56.0979 31.1363ZM16.8748 48.75C16.1331 48.75 15.4081 48.5301 14.7914 48.118C14.1747 47.706 13.6941 47.1203 13.4102 46.4351C13.1264 45.7498 13.0521 44.9958 13.1968 44.2684C13.3415 43.541 13.6987 42.8728 14.2231 42.3484C14.7476 41.8239 15.4158 41.4667 16.1432 41.3221C16.8706 41.1774 17.6246 41.2516 18.3098 41.5355C18.9951 41.8193 19.5807 42.2999 19.9928 42.9166C20.4048 43.5333 20.6248 44.2583 20.6248 45C20.6238 45.9943 20.2284 46.9475 19.5253 47.6506C18.8223 48.3536 17.869 48.749 16.8748 48.75ZM43.1248 20.625H47.5123L51.5323 30H43.1248V20.625ZM43.1248 48.75C42.3831 48.75 41.6581 48.5301 41.0414 48.118C40.4247 47.706 39.9441 47.1203 39.6602 46.4351C39.3764 45.7498 39.3021 44.9958 39.4468 44.2684C39.5915 43.541 39.9487 42.8728 40.4731 42.3484C40.9976 41.8239 41.6658 41.4667 42.3932 41.3221C43.1206 41.1774 43.8746 41.2516 44.5598 41.5355C45.2451 41.8193 45.8307 42.2999 46.2428 42.9166C46.6548 43.5333 46.8748 44.2583 46.8748 45C46.8738 45.9943 46.4784 46.9475 45.7753 47.6506C45.0723 48.3536 44.119 48.749 43.1248 48.75ZM52.4998 43.125H50.3585C49.9455 41.5189 49.0112 40.0953 47.7021 39.0774C46.393 38.0594 44.7831 37.5046 43.1248 37.5V33.75H52.4998V43.125Z" fill="#81B751"/>
</svg>
