<svg width="16" height="16" viewBox="0 0 16 16" fill="none" xmlns="http://www.w3.org/2000/svg">
<path d="M11.5685 6.51809L11.5685 6.51809L8.00003 9.88334L4.43155 6.51809L4.43002 6.51665L4.43001 6.51665C4.33371 6.42736 4.22077 6.3579 4.09762 6.31226C3.97448 6.26661 3.84355 6.24566 3.71232 6.25062C3.58108 6.25557 3.4521 6.28632 3.33275 6.34112C3.2134 6.39592 3.10601 6.47368 3.01671 6.56999C2.92741 6.66629 2.85796 6.77923 2.81231 6.90238C2.76667 7.02552 2.74572 7.15644 2.75067 7.28768C2.75562 7.41892 2.78638 7.5479 2.84117 7.66725C2.89583 7.78629 2.97334 7.89343 3.06929 7.98259C3.06954 7.98283 3.06979 7.98306 3.07004 7.98329L7.31869 11.982L7.32002 11.9833L7.32003 11.9833C7.50494 12.1548 7.74783 12.2501 8.00003 12.2501C8.25223 12.2501 8.49511 12.1548 8.68003 11.9833L8.68137 11.982L8.68137 11.982L12.93 7.9833C12.9302 7.98308 12.9305 7.98285 12.9307 7.98262C13.0267 7.89347 13.1042 7.78632 13.1589 7.66727C13.2137 7.54791 13.2445 7.41893 13.2494 7.28768C13.2544 7.15644 13.2334 7.02551 13.1878 6.90236C13.1421 6.77923 13.0727 6.66629 12.9834 6.57L11.5685 6.51809ZM11.5685 6.51809L11.57 6.51667M11.5685 6.51809L11.57 6.51667M11.57 6.51667C11.6663 6.42736 11.7793 6.35789 11.9024 6.31224C12.0256 6.26659 12.1565 6.24564 12.2877 6.25059C12.419 6.25554 12.548 6.2863 12.6673 6.3411C12.7867 6.3959 12.894 6.47367 12.9833 6.56997L11.57 6.51667Z" fill="#898989" stroke="#898989" stroke-width="0.5"/>
</svg>
