<svg width="73" height="46" viewBox="0 0 73 46" fill="none" xmlns="http://www.w3.org/2000/svg">
<g id="Google Pay">
<g id="Google Pay_2">
<rect id="Rectangle" width="73" height="46" rx="3" fill="#5485EC"/>
<g id="Group">
<path id="Vector" d="M34.9979 24.1892V30.5476H32.9492V14.8453H38.3827C39.0313 14.832 39.6761 14.9452 40.28 15.1785C40.8839 15.4118 41.4349 15.7606 41.9012 16.2047C42.3721 16.6218 42.747 17.1333 43.0005 17.7049C43.254 18.2765 43.3803 18.8949 43.3709 19.5185C43.3844 20.1455 43.26 20.7679 43.0063 21.3432C42.7526 21.9184 42.3756 22.4328 41.9012 22.8512C40.951 23.7432 39.7782 24.1888 38.3827 24.188H34.9979V24.1892ZM34.9979 16.7785V22.2598H38.4336C38.8103 22.2708 39.1851 22.2043 39.5342 22.0645C39.8832 21.9247 40.1988 21.7147 40.4607 21.4479C40.7212 21.1985 40.9283 20.9002 41.0698 20.5707C41.2112 20.2411 41.2841 19.8869 41.2841 19.5292C41.2841 19.1714 41.2112 18.8172 41.0698 18.4877C40.9283 18.1581 40.7212 17.8598 40.4607 17.6104C40.2021 17.338 39.8876 17.1229 39.5381 16.9793C39.1887 16.8356 38.8122 16.7668 38.4336 16.7772H34.9979V16.7785Z" fill="white"/>
<path id="Vector_2" d="M48.0922 19.4531C49.6065 19.4531 50.8017 19.8515 51.6781 20.6484C52.5544 21.4452 52.9921 22.5377 52.9913 23.9259V30.5473H51.0316V29.0564H50.9426C50.0942 30.2842 48.966 30.8982 47.5577 30.8982C46.3557 30.8982 45.35 30.5473 44.5407 29.8457C44.1523 29.5237 43.8418 29.1204 43.6318 28.6653C43.4218 28.2101 43.3175 27.7145 43.3267 27.2147C43.3267 26.103 43.7534 25.2189 44.6069 24.5624C45.4603 23.9058 46.5996 23.5768 48.0248 23.5751C49.2412 23.5751 50.2431 23.7943 51.0304 24.2328V23.7718C51.0327 23.431 50.9579 23.094 50.8116 22.7852C50.6652 22.4764 50.4509 22.2036 50.1842 21.9864C49.6424 21.5052 48.9363 21.2426 48.2067 21.251C47.0623 21.251 46.1567 21.7263 45.49 22.6768L43.6856 21.558C44.6781 20.1547 46.147 19.4531 48.0922 19.4531ZM45.4416 27.2585C45.4402 27.5153 45.5012 27.7686 45.6194 27.9974C45.7376 28.2262 45.9096 28.4239 46.1211 28.5741C46.5742 28.925 47.1366 29.1109 47.713 29.1003C48.5775 29.0989 49.4062 28.76 50.0175 28.1581C50.6961 27.5292 51.0355 26.7912 51.0355 25.9443C50.3967 25.4431 49.5059 25.1926 48.3632 25.1926C47.531 25.1926 46.8371 25.3901 46.2814 25.7852C45.7203 26.1861 45.4416 26.6735 45.4416 27.2585Z" fill="white"/>
<path id="Vector_3" d="M64.2396 19.8042L57.3987 35.2835H55.2838L57.8225 29.8673L53.3242 19.8042H55.5511L58.8023 27.5219H58.8468L62.0089 19.8042H64.2396Z" fill="white"/>
<g id="Group_2">
<path id="Vector_4" d="M26.7198 22.8186C26.7206 22.2039 26.6678 21.5902 26.5621 20.9844H17.9219V24.4586H22.8706C22.7693 25.0135 22.555 25.5424 22.2405 26.0136C21.926 26.4847 21.5179 26.8882 21.0407 27.1999V29.4551H23.9942C25.7235 27.8852 26.7198 25.5636 26.7198 22.8186Z" fill="white"/>
<path id="Vector_5" d="M17.9203 31.6336C20.3927 31.6336 22.4745 30.8343 23.9926 29.4561L21.0391 27.2009C20.2171 27.7497 19.1584 28.0629 17.9203 28.0629C15.5306 28.0629 13.5022 26.4768 12.7769 24.3394H9.73438V26.6634C10.4969 28.1575 11.6662 29.4134 13.1117 30.2911C14.5572 31.1687 16.222 31.6335 17.9203 31.6336Z" fill="white"/>
<path id="Vector_6" d="M12.7779 24.3395C12.3944 23.2195 12.3944 22.0066 12.7779 20.8866V18.5625H9.73535C9.09385 19.8193 8.75977 21.2064 8.75977 22.613C8.75977 24.0197 9.09385 25.4068 9.73535 26.6636L12.7779 24.3395Z" fill="white"/>
<path id="Vector_7" d="M17.9203 17.1631C19.2269 17.1421 20.4893 17.6281 21.4349 18.5162L24.0498 15.9415C22.3917 14.4081 20.195 13.5662 17.9203 13.5924C16.222 13.5925 14.5572 14.0573 13.1117 14.9349C11.6662 15.8126 10.4969 17.0685 9.73438 18.5625L12.7769 20.8866C13.5022 18.7492 15.5305 17.1631 17.9203 17.1631Z" fill="white"/>
</g>
</g>
</g>
</g>
</svg>
