<svg width="73" height="46" viewBox="0 0 73 46" fill="none" xmlns="http://www.w3.org/2000/svg">
<g id="JCB">
<g id="JCB_2">
<rect id="Rectangle" width="73" height="46" rx="3" fill="#1D2970"/>
<g id="Group">
<path id="Vector" fill-rule="evenodd" clip-rule="evenodd" d="M55.4508 31.5704C55.4508 34.7758 52.8122 37.375 49.5554 37.375H17.5488V14.4305C17.5488 11.2242 20.1878 8.62503 23.4447 8.62503L55.4508 8.625V31.5704H55.4508Z" fill="white"/>
<path id="Vector_2" fill-rule="evenodd" clip-rule="evenodd" d="M45.0162 23.504H45.0372H45.0779H45.1185H45.1592H45.1998H45.2404H45.2811H45.3217H45.3624H45.403H45.4437H45.4843H45.525H45.5656H45.6063H45.6469H45.6875H45.7282H45.7688H45.8094H45.8501H45.8907H45.9314H45.972H46.0127H46.0533H46.094H46.1346H46.1752H46.2159H46.2565H46.2972H46.3378H46.3785H46.4191H46.4598H46.5004H46.5411H46.5817H46.6223H46.663H46.7036H46.7442H46.7849H46.8255H46.8662H46.9068H46.9475H46.9881H47.0288H47.0694H47.11H47.1507H47.1913H47.232H47.2726H47.3133H47.3539H47.3946H47.4352H47.469L47.4759 23.5042C47.4884 23.5045 47.5021 23.5051 47.5165 23.5058C47.5295 23.5065 47.5432 23.5074 47.5571 23.5085C47.5705 23.5094 47.5841 23.5105 47.5978 23.5118C47.6115 23.513 47.6251 23.5144 47.6384 23.5158C47.6524 23.5173 47.6661 23.519 47.679 23.5207C47.6936 23.5226 47.7073 23.5246 47.7197 23.5267C47.7286 23.5282 47.7369 23.5297 47.7443 23.5313L47.7603 23.5349C47.774 23.538 47.7875 23.5414 47.801 23.545C47.8146 23.5488 47.8282 23.5527 47.8416 23.5569C47.8553 23.5612 47.8688 23.5657 47.8823 23.5706C47.8959 23.5754 47.9095 23.5806 47.9229 23.586C47.9366 23.5915 47.9501 23.5973 47.9636 23.6033C47.9772 23.6095 47.9908 23.6159 48.0042 23.6226C48.0179 23.6295 48.0314 23.6366 48.0448 23.6441C48.0585 23.6517 48.0721 23.6596 48.0855 23.6678C48.0992 23.6762 48.1128 23.6849 48.1261 23.6939C48.1399 23.7032 48.1535 23.7128 48.1668 23.7226C48.1805 23.7329 48.1941 23.7435 48.2074 23.7544C48.2212 23.7657 48.2348 23.7774 48.2481 23.7895C48.2619 23.802 48.2755 23.8149 48.2887 23.8281C48.3027 23.8421 48.3162 23.8565 48.3294 23.8713C48.3433 23.887 48.3569 23.9031 48.37 23.9197C48.3841 23.9375 48.3977 23.9557 48.4107 23.9745C48.4249 23.9951 48.4385 24.0162 48.4513 24.0379C48.4658 24.0623 48.4793 24.0874 48.4919 24.1132C48.5069 24.1438 48.5205 24.1753 48.5326 24.2077C48.5489 24.2513 48.5625 24.2964 48.5732 24.343C48.5918 24.4238 48.6018 24.5089 48.6018 24.5977C48.6018 24.687 48.5918 24.7724 48.5732 24.8535C48.5625 24.9002 48.5489 24.9455 48.5326 24.9891C48.5205 25.0216 48.5069 25.0532 48.4919 25.0839C48.4793 25.1097 48.4658 25.1349 48.4513 25.1593C48.4385 25.181 48.4249 25.2021 48.4107 25.2227C48.3977 25.2414 48.3841 25.2597 48.37 25.2776C48.3569 25.2941 48.3433 25.3102 48.3294 25.3259C48.3162 25.3407 48.3026 25.3551 48.2887 25.369C48.2755 25.3823 48.2619 25.3951 48.2481 25.4077C48.2348 25.4196 48.2212 25.4312 48.2074 25.4426C48.1941 25.4534 48.1806 25.464 48.1668 25.4742C48.1535 25.4841 48.1399 25.4936 48.1261 25.5029C48.1128 25.5119 48.0992 25.5205 48.0855 25.5289C48.0721 25.537 48.0585 25.5449 48.0448 25.5525C48.0315 25.5599 48.0179 25.567 48.0042 25.5738C47.9908 25.5805 47.9772 25.5869 47.9636 25.593C47.9501 25.599 47.9366 25.6047 47.9229 25.6102C47.9095 25.6155 47.8959 25.6207 47.8823 25.6255C47.8688 25.6302 47.8553 25.6347 47.8416 25.6389C47.8282 25.6431 47.8146 25.647 47.801 25.6506C47.7875 25.6542 47.774 25.6575 47.7603 25.6606L47.7443 25.6642C47.7369 25.6658 47.7286 25.6675 47.7197 25.669C47.7073 25.6712 47.6936 25.6732 47.679 25.6752C47.6661 25.6769 47.6524 25.6786 47.6384 25.6801C47.6251 25.6816 47.6115 25.6829 47.5978 25.6841C47.5841 25.6853 47.5705 25.6864 47.5571 25.6873C47.5432 25.6883 47.5295 25.6892 47.5165 25.6899C47.5021 25.6906 47.4884 25.6911 47.4759 25.6914L47.4541 25.6917H47.4352H47.3946H47.3539H47.3133H47.2726H47.232H47.1913H47.1507H47.11H47.0694H47.0288H46.9881H46.9475H46.9068H46.8662H46.8255H46.7849H46.7442H46.7036H46.663H46.6223H46.5817H46.5411H46.5004H46.4598H46.4191H46.3785H46.3378H46.2972H46.2565H46.2159H46.1752H46.1346H46.094H46.0533H46.0127H45.972H45.9314H45.8907H45.8501H45.8094H45.7688H45.7282H45.6875H45.6469H45.6063H45.5656H45.525H45.4843H45.4437H45.403H45.3624H45.3217H45.2811H45.2404H45.1998H45.1592H45.1185H45.0779H45.0372H45.0162V23.504ZM48.2889 21.0281C48.3052 21.1015 48.314 21.1793 48.314 21.2612C48.314 21.343 48.3052 21.4207 48.2889 21.4941C48.2783 21.5412 48.2647 21.5865 48.2482 21.63C48.2361 21.6617 48.2226 21.6924 48.2076 21.722C48.195 21.7468 48.1814 21.771 48.1669 21.7943C48.1541 21.8149 48.1405 21.835 48.1263 21.8544C48.1133 21.8721 48.0997 21.8893 48.0856 21.906C48.0725 21.9215 48.059 21.9366 48.045 21.9512C48.0318 21.9649 48.0183 21.9782 48.0044 21.9911C47.9911 22.0034 47.9776 22.0153 47.9637 22.0268C47.9504 22.0378 47.9369 22.0485 47.9231 22.0588C47.9098 22.0687 47.8962 22.0783 47.8824 22.0876C47.8691 22.0966 47.8555 22.1052 47.8418 22.1135C47.8284 22.1216 47.8149 22.1294 47.8011 22.1369C47.7878 22.1442 47.7742 22.1512 47.7605 22.1579C47.7471 22.1645 47.7335 22.1708 47.7198 22.1768C47.7064 22.1826 47.6929 22.1882 47.6792 22.1935C47.6658 22.1987 47.6522 22.2037 47.6386 22.2083C47.6251 22.2129 47.6116 22.2173 47.598 22.2213C47.5845 22.2254 47.5709 22.2291 47.5573 22.2326C47.5438 22.2361 47.5303 22.2393 47.5167 22.2422C47.5032 22.2451 47.4896 22.2477 47.476 22.2501L47.4662 22.2518C47.4582 22.2532 47.4477 22.2547 47.4354 22.2562C47.4234 22.2577 47.4096 22.2593 47.3947 22.2608C47.3819 22.262 47.3682 22.2633 47.3541 22.2645C47.3408 22.2656 47.3271 22.2665 47.3134 22.2674C47.2998 22.2682 47.2861 22.269 47.2728 22.2695C47.2587 22.2701 47.245 22.2704 47.2322 22.2705L47.2257 22.2705H47.1915H47.1509H47.1102H47.0696H47.0289H46.9883H46.9477H46.907H46.8664H46.8257H46.7851H46.7444H46.7038H46.6632H46.6225H46.5819H46.5413H46.5006H46.46H46.4193H46.3787H46.338H46.2974H46.2568H46.2161H46.1755H46.1348H46.0942H46.0535H46.0129H45.9723H45.9316H45.891H45.8503H45.8097H45.769H45.7284H45.6878H45.6471H45.6065H45.5659H45.5252H45.4846H45.4439H45.4033H45.3626H45.322H45.2814H45.2407H45.2001H45.1594H45.1188H45.0781H45.0375H45.0162V20.2518H45.0375H45.0781H45.1188H45.1594H45.2001H45.2407H45.2814H45.322H45.3626H45.4033H45.4439H45.4846H45.5252H45.5659H45.6065H45.6471H45.6878H45.7284H45.769H45.8097H45.8503H45.891H45.9316H45.9723H46.0129H46.0535H46.0942H46.1348H46.1755H46.2161H46.2568H46.2974H46.338H46.3787H46.4193H46.46H46.5006H46.5413H46.5819H46.6225H46.6632H46.7038H46.7444H46.7851H46.8257H46.8664H46.907H46.9477H46.9883H47.0289H47.0696H47.1102H47.1509H47.1915H47.2322H47.2493L47.2728 20.2525C47.2861 20.2531 47.2998 20.2539 47.3134 20.2547C47.3271 20.2556 47.3408 20.2566 47.3541 20.2576C47.3682 20.2588 47.3819 20.26 47.3947 20.2613C47.4096 20.2627 47.4234 20.2641 47.4354 20.2655C47.4477 20.2669 47.4582 20.2682 47.4662 20.2693L47.476 20.2711C47.4896 20.2735 47.5032 20.2762 47.5167 20.2791C47.5303 20.2821 47.5438 20.2853 47.5573 20.2888C47.5709 20.2923 47.5845 20.2961 47.598 20.3001C47.6116 20.3042 47.6251 20.3086 47.6386 20.3132C47.6522 20.3179 47.6658 20.3229 47.6792 20.3281C47.6929 20.3335 47.7064 20.3391 47.7198 20.345C47.7335 20.351 47.7471 20.3573 47.7605 20.3639C47.7742 20.3706 47.7878 20.3776 47.8011 20.3849C47.8149 20.3924 47.8284 20.4002 47.8418 20.4083C47.8555 20.4166 47.8691 20.4253 47.8824 20.4343C47.8962 20.4435 47.9098 20.4532 47.9231 20.4632C47.9369 20.4735 47.9504 20.4841 47.9637 20.4951C47.9776 20.5067 47.9911 20.5186 48.0044 20.5309C48.0183 20.5438 48.0318 20.5571 48.045 20.5708C48.059 20.5854 48.0725 20.6005 48.0856 20.616C48.0997 20.6327 48.1133 20.6499 48.1263 20.6676C48.1405 20.6871 48.1541 20.7071 48.1669 20.7277C48.1814 20.7511 48.195 20.7752 48.2076 20.8C48.2226 20.8296 48.2361 20.8604 48.2482 20.8921C48.2647 20.9356 48.2783 20.9809 48.2889 21.0281ZM53.3292 10.5601H53.3459L53.3458 31.2933C53.3458 31.4172 53.34 31.5397 53.3292 31.6608C53.3197 31.7674 53.3061 31.8728 53.2885 31.9769C53.2767 32.0469 53.2632 32.1162 53.2479 32.185C53.2355 32.2409 53.2219 32.2964 53.2072 32.3514C53.1945 32.3989 53.181 32.4461 53.1666 32.4929C53.1536 32.5352 53.1402 32.5773 53.1259 32.6191C53.113 32.6569 53.0993 32.6945 53.0853 32.7319C53.0722 32.7667 53.0586 32.8012 53.0446 32.8356C53.0315 32.8679 53.018 32.8999 53.004 32.9318C52.9908 32.962 52.9772 32.992 52.9633 33.0218C52.9501 33.0502 52.9366 33.0785 52.9227 33.1065C52.9094 33.1334 52.8959 33.1602 52.882 33.1867C52.8688 33.2121 52.8552 33.2375 52.8414 33.2626C52.8281 33.2868 52.8145 33.3107 52.8007 33.3346C52.7874 33.3577 52.7739 33.3807 52.7601 33.4035C52.7467 33.4257 52.7332 33.4478 52.7194 33.4698C52.706 33.4911 52.6926 33.5125 52.6788 33.5336C52.6654 33.554 52.6518 33.5743 52.6381 33.5945C52.6248 33.6141 52.6112 33.6336 52.5975 33.653C52.5841 33.6721 52.5705 33.6911 52.5568 33.7099C52.5434 33.7283 52.5299 33.7466 52.5162 33.7648C52.5028 33.7825 52.4892 33.8 52.4755 33.8175C52.4621 33.8347 52.4486 33.8519 52.4349 33.8689C52.4214 33.8855 52.4079 33.9021 52.3942 33.9185C52.3808 33.9346 52.3672 33.9506 52.3536 33.9665C52.3401 33.9822 52.3267 33.998 52.3129 34.0135C52.2995 34.0287 52.2859 34.0436 52.2723 34.0586C52.2589 34.0734 52.2453 34.0881 52.2316 34.1027C52.2182 34.1171 52.2047 34.1314 52.191 34.1456C52.1776 34.1596 52.1639 34.1733 52.1503 34.187C52.1368 34.2007 52.1234 34.2144 52.1097 34.2279C52.0963 34.2411 52.0826 34.254 52.069 34.267C52.0555 34.2799 52.042 34.2928 52.0284 34.3056C52.0149 34.3181 52.0013 34.3304 51.9877 34.3428C51.9743 34.355 51.9607 34.3672 51.9471 34.3792C51.9336 34.3912 51.9201 34.403 51.9064 34.4147C51.893 34.4263 51.8794 34.4378 51.8658 34.4493C51.8523 34.4606 51.8388 34.4719 51.8251 34.4831C51.8117 34.4941 51.7981 34.505 51.7845 34.5158C51.771 34.5266 51.7575 34.5374 51.7438 34.548C51.7304 34.5585 51.7168 34.5688 51.7032 34.5791C51.6897 34.5893 51.6762 34.5996 51.6625 34.6097C51.6491 34.6197 51.6355 34.6294 51.6219 34.6392C51.6083 34.649 51.5949 34.6589 51.5812 34.6685C51.5678 34.678 51.5542 34.6872 51.5406 34.6965C51.527 34.7058 51.5136 34.7151 51.4999 34.7243C51.4864 34.7333 51.4729 34.7421 51.4593 34.751C51.4458 34.7598 51.4323 34.7687 51.4186 34.7773C51.4051 34.7859 51.3916 34.7944 51.378 34.8028C51.3645 34.8112 51.3509 34.8196 51.3373 34.8278C51.3238 34.836 51.3103 34.844 51.2967 34.852L51.256 34.8757C51.2425 34.8835 51.229 34.8913 51.2154 34.8989C51.2019 34.9065 51.1883 34.9138 51.1747 34.9213C51.1612 34.9287 51.1477 34.9361 51.1341 34.9434C51.1206 34.9505 51.107 34.9575 51.0934 34.9645C51.0799 34.9715 51.0664 34.9787 51.0528 34.9856C51.0393 34.9924 51.0257 34.9989 51.0121 35.0056C50.9986 35.0122 50.9851 35.0189 50.9715 35.0254C50.958 35.0319 50.9444 35.0382 50.9308 35.0445L50.8902 35.0632L50.8495 35.0813C50.836 35.0873 50.8225 35.093 50.8089 35.0989C50.7953 35.1046 50.7819 35.1106 50.7682 35.1162C50.7548 35.1218 50.7412 35.1271 50.7276 35.1326C50.714 35.138 50.7006 35.1436 50.6869 35.1489C50.6734 35.1542 50.6599 35.1592 50.6463 35.1643C50.6328 35.1694 50.6193 35.1745 50.6056 35.1795L50.565 35.1943C50.5515 35.1991 50.5379 35.2037 50.5243 35.2084C50.5108 35.2131 50.4973 35.2179 50.4837 35.2224C50.4702 35.2269 50.4566 35.2311 50.443 35.2355L50.4024 35.2484C50.3889 35.2526 50.3753 35.2567 50.3617 35.2608L50.3211 35.2727C50.3075 35.2766 50.294 35.2806 50.2804 35.2844C50.2669 35.2881 50.2533 35.2916 50.2398 35.2952C50.2263 35.2988 50.2127 35.3026 50.1991 35.306L50.1585 35.3161L50.1178 35.3259L50.0772 35.3354C50.0637 35.3385 50.0501 35.3412 50.0365 35.3442C50.023 35.3471 50.0095 35.3501 49.9959 35.3529L49.9552 35.3609L49.9146 35.3685C49.901 35.371 49.8875 35.3737 49.8739 35.3761C49.8604 35.3784 49.8468 35.3805 49.8333 35.3827L49.7926 35.3893L49.752 35.3953L49.7113 35.4009C49.6978 35.4028 49.6843 35.4048 49.6707 35.4066C49.6572 35.4082 49.6436 35.4096 49.63 35.4111C49.6165 35.4127 49.603 35.4143 49.5894 35.4157C49.5758 35.4171 49.5623 35.4186 49.5488 35.4199C49.5352 35.4212 49.5216 35.4223 49.5081 35.4234C49.4945 35.4246 49.481 35.4259 49.4674 35.427C49.4539 35.428 49.4403 35.4288 49.4268 35.4298L49.3861 35.4323C49.3726 35.4331 49.3591 35.4341 49.3455 35.4347C49.332 35.4354 49.3184 35.4357 49.3048 35.4362L49.2642 35.4378L49.2235 35.4388C49.21 35.4391 49.1964 35.4391 49.1829 35.4393L49.1422 35.4398L49.1338 35.4399H49.1016H49.0609H49.0203H48.9796H48.939H48.8983H48.8577H48.817H48.7764H48.7357H48.6951H48.6544H48.6138H48.5731H48.5325H48.4918H48.4512H48.4105H48.3699H48.3292H48.2886H48.2479H48.2073H48.1666H48.126H48.0853H48.0447H48.004H47.9634H47.9227H47.8821H47.8414H47.8008H47.7601H47.7195H47.6788H47.6382H47.5975H47.5569H47.5163H47.4756H47.4349H47.3943H47.3536H47.313H47.2723H47.2317H47.191H47.1504H47.1097H47.0691H47.0284H46.9878H46.9471H46.9065H46.8658H46.8252H46.7845H46.7439H46.7032H46.6626H46.6219H46.5813H46.5406H46.5H46.4594H46.4187H46.378H46.3374H46.2967H46.2561H46.2154H46.1748H46.1341H46.0935H46.0528H46.0122H45.9715H45.9309H45.8902H45.8496H45.8089H45.7683H45.7276H45.687H45.6463H45.6057H45.565H45.5244H45.4838H45.4431H45.4025H45.3618H45.3211H45.2805H45.2398H45.1992H45.1585H45.1179H45.0772H45.0366H44.9959H44.9553H44.9146H44.874H44.8333H44.7927H44.752H44.7114H44.6707H44.6301H44.5894H44.5488H44.5082H44.4675H44.4269H44.3862H44.3456H44.3049H44.2642H44.2236H44.1829H44.1423H44.1016H44.061H44.0203H43.9797H43.939H43.8984H43.8577H43.8171H43.7764H43.7358H43.6951H43.6545H43.6138H43.5732H43.5325H43.4919H43.4513H43.4106H43.37H43.3293H43.2887H43.248H43.2073H43.1667H43.126H43.0854H43.0447H42.957V26.9863H43.0447H43.0854H43.126H43.1667H43.2073H43.248H43.2887H43.3293H43.37H43.4106H43.4513H43.4919H43.5325H43.5732H43.6138H43.6545H43.6951H43.7358H43.7764H43.8171H43.8577H43.8984H43.939H43.9797H44.0203H44.061H44.1016H44.1423H44.1829H44.2236H44.2642H44.3049H44.3456H44.3862H44.4269H44.4675H44.5082H44.5488H44.5894H44.6301H44.6707H44.7114H44.752H44.7927H44.8333H44.874H44.9146H44.9553H44.9959H45.0366H45.0772H45.1179H45.1585H45.1992H45.2398H45.2805H45.3211H45.3618H45.4025H45.4431H45.4838H45.5244H45.565H45.6057H45.6463H45.687H45.7276H45.7683H45.8089H45.8496H45.8902H45.9309H45.9715H46.0122H46.0528H46.0935H46.1341H46.1748H46.2154H46.2561H46.2967H46.3374H46.378H46.4187H46.4594H46.5H46.5406H46.5813H46.6219H46.6626H46.7032H46.7439H46.7845H46.8252H46.8658H46.9065H46.9471H46.9878H47.0284H47.0691H47.1097H47.1504H47.191H47.2317H47.2723H47.313H47.3536H47.3943H47.4349H47.4756H47.5163H47.5569H47.5975H47.6382H47.6788H47.7195H47.7601H47.8008H47.8414H47.8821H47.9227H47.9634H48.004H48.0447H48.0853H48.126H48.1666H48.2073H48.2479H48.2886H48.3292H48.3699H48.4105H48.4512H48.4918H48.5325H48.5731H48.6138H48.6544H48.6951H48.7357H48.7764H48.817H48.8577H48.8983H48.939H48.9796H49.0203H49.0609H49.1016H49.1422H49.1829H49.2235H49.2642H49.3048H49.3455H49.3861H49.4268H49.4674H49.489L49.5081 26.9861L49.5488 26.9858L49.5894 26.9849C49.603 26.9846 49.6165 26.9844 49.63 26.9839C49.6437 26.9835 49.6571 26.9828 49.6707 26.9822L49.7113 26.9804L49.752 26.978L49.7926 26.9752L49.8333 26.9721L49.8739 26.9684C49.8875 26.9672 49.9011 26.9659 49.9146 26.9645C49.9282 26.9631 49.9417 26.9615 49.9552 26.96L49.9959 26.9551C50.0095 26.9534 50.023 26.9517 50.0365 26.9499C50.0501 26.948 50.0637 26.946 50.0772 26.944C50.0908 26.9419 50.1044 26.94 50.1178 26.9378L50.1585 26.9311L50.1991 26.9239C50.2127 26.9214 50.2263 26.919 50.2398 26.9163C50.2534 26.9137 50.2669 26.9108 50.2804 26.908L50.3211 26.8994C50.3347 26.8964 50.3482 26.8934 50.3617 26.8903C50.3754 26.8871 50.3889 26.8838 50.4024 26.8805C50.416 26.8772 50.4295 26.8738 50.443 26.8703C50.4566 26.8668 50.4702 26.8632 50.4837 26.8595C50.4973 26.8559 50.5108 26.852 50.5243 26.8481C50.5379 26.8443 50.5515 26.8403 50.565 26.8363L50.6056 26.8237C50.6193 26.8194 50.6328 26.815 50.6463 26.8105C50.6599 26.806 50.6735 26.8015 50.6869 26.7968C50.7006 26.7921 50.7141 26.7874 50.7276 26.7825C50.7413 26.7776 50.7547 26.7724 50.7682 26.7673C50.7819 26.7621 50.7954 26.7569 50.8089 26.7515C50.8225 26.7461 50.8361 26.7408 50.8495 26.7352C50.8632 26.7295 50.8767 26.7238 50.8902 26.7179C50.9038 26.712 50.9174 26.706 50.9308 26.6999C50.9444 26.6937 50.958 26.6875 50.9715 26.6812C50.9851 26.6748 50.9987 26.6683 51.0121 26.6617C51.0258 26.655 51.0393 26.6481 51.0528 26.6412C51.0664 26.6342 51.08 26.627 51.0934 26.6198C51.1071 26.6124 51.1207 26.605 51.1341 26.5975C51.1477 26.5899 51.1613 26.5822 51.1747 26.5743C51.1884 26.5663 51.202 26.5583 51.2154 26.5501C51.2291 26.5417 51.2426 26.5332 51.256 26.5246C51.2697 26.5159 51.2832 26.507 51.2967 26.498C51.3104 26.4889 51.3239 26.4796 51.3373 26.4702C51.351 26.4606 51.3646 26.4509 51.378 26.4411C51.3917 26.4311 51.4052 26.4209 51.4186 26.4107C51.4323 26.4001 51.4459 26.3895 51.4593 26.3787C51.473 26.3677 51.4865 26.3565 51.4999 26.3452C51.5137 26.3336 51.5272 26.3218 51.5406 26.3098C51.5543 26.2976 51.5679 26.2852 51.5812 26.2726C51.595 26.2597 51.6085 26.2466 51.6219 26.2333C51.6357 26.2196 51.6492 26.2057 51.6625 26.1917C51.6763 26.1771 51.6899 26.1624 51.7032 26.1475C51.717 26.132 51.7306 26.1163 51.7438 26.1004C51.7577 26.0838 51.7712 26.0671 51.7845 26.0501C51.7983 26.0324 51.812 26.0145 51.8251 25.9963C51.8391 25.9769 51.8526 25.9573 51.8658 25.9374C51.8798 25.9164 51.8933 25.8951 51.9064 25.8735C51.9205 25.8503 51.9341 25.8268 51.9471 25.803C51.9612 25.7771 51.9749 25.7509 51.9877 25.7243C52.0021 25.6945 52.0156 25.6642 52.0284 25.6336C52.043 25.5984 52.0566 25.5628 52.069 25.5265C52.0843 25.4818 52.0978 25.4362 52.1097 25.3898C52.127 25.3219 52.1406 25.2523 52.1503 25.181C52.1621 25.0945 52.1683 25.0055 52.1683 24.9141C52.1683 24.8251 52.1622 24.7387 52.1503 24.6547C52.1406 24.5858 52.127 24.5185 52.1097 24.4531C52.0978 24.4085 52.0843 24.3647 52.069 24.3218C52.0566 24.2866 52.043 24.2519 52.0284 24.2178C52.0157 24.1884 52.0021 24.1593 51.9877 24.1307C51.9748 24.105 51.9613 24.0796 51.9471 24.0546C51.934 24.0315 51.9205 24.0088 51.9064 23.9864C51.8934 23.9656 51.8798 23.9451 51.8658 23.9249C51.8526 23.9058 51.8391 23.8868 51.8251 23.8682C51.812 23.8506 51.7984 23.8333 51.7845 23.8162C51.7712 23.7998 51.7577 23.7837 51.7438 23.7677C51.7305 23.7523 51.717 23.7371 51.7032 23.7222C51.6899 23.7078 51.6764 23.6936 51.6625 23.6795C51.6492 23.666 51.6357 23.6527 51.6219 23.6395C51.6085 23.6266 51.595 23.614 51.5812 23.6015C51.5679 23.5894 51.5543 23.5775 51.5406 23.5657C51.5272 23.5542 51.5137 23.5428 51.4999 23.5316C51.4865 23.5206 51.473 23.5098 51.4593 23.4991C51.4459 23.4887 51.4323 23.4784 51.4186 23.4683C51.4052 23.4583 51.3917 23.4485 51.378 23.4388C51.3646 23.4293 51.351 23.4199 51.3373 23.4107C51.3239 23.4016 51.3104 23.3926 51.2967 23.3838C51.2832 23.3751 51.2697 23.3665 51.256 23.358C51.2426 23.3497 51.2291 23.3415 51.2154 23.3334C51.202 23.3255 51.1884 23.3176 51.1747 23.3099C51.1613 23.3023 51.1477 23.2948 51.1341 23.2874C51.1207 23.2801 51.1071 23.273 51.0934 23.2659C51.08 23.2589 51.0664 23.252 51.0528 23.2452C51.0393 23.2385 51.0258 23.2318 51.0121 23.2253C50.9987 23.2188 50.9851 23.2124 50.9715 23.2062C50.958 23.2 50.9444 23.194 50.9308 23.188C50.9174 23.1821 50.9038 23.1763 50.8902 23.1706C50.8767 23.1649 50.8632 23.1593 50.8495 23.1538C50.836 23.1484 50.8226 23.1429 50.8089 23.1377C50.7954 23.1324 50.7819 23.1273 50.7682 23.1223C50.7548 23.1173 50.7412 23.1125 50.7276 23.1076C50.7141 23.1029 50.7006 23.0982 50.6869 23.0936C50.6734 23.089 50.6599 23.0844 50.6463 23.08C50.6328 23.0756 50.6193 23.0713 50.6056 23.0671C50.5922 23.063 50.5786 23.0589 50.565 23.0549L50.5243 23.0432C50.5108 23.0393 50.4973 23.0355 50.4837 23.0319C50.4702 23.0283 50.4566 23.0248 50.443 23.0213C50.4295 23.0179 50.416 23.0146 50.4024 23.0112C50.3889 23.008 50.3753 23.0047 50.3617 23.0016C50.3482 22.9985 50.3347 22.9954 50.3211 22.9925C50.3076 22.9895 50.294 22.9867 50.2804 22.9839C50.2669 22.9812 50.2534 22.9784 50.2398 22.9757L50.1991 22.9681L50.1585 22.9609C50.145 22.9586 50.1314 22.9563 50.1178 22.9541L50.0772 22.9478C50.0637 22.9458 50.0501 22.9439 50.0365 22.9421L49.9959 22.9366L49.9552 22.9316L49.9146 22.927L49.8739 22.9228L49.8333 22.9191L49.7926 22.9158L49.7551 22.9129L49.7551 22.8649L49.7926 22.8592L49.8333 22.8526C49.8469 22.8503 49.8605 22.848 49.8739 22.8456L49.9146 22.8379C49.9282 22.8353 49.9418 22.8325 49.9552 22.8297L49.9959 22.821C50.0095 22.8179 50.0231 22.8149 50.0365 22.8117C50.0502 22.8085 50.0637 22.8051 50.0772 22.8017C50.0908 22.7983 50.1044 22.7947 50.1178 22.7911C50.1314 22.7875 50.145 22.7837 50.1585 22.7799C50.1721 22.7761 50.1857 22.7722 50.1991 22.7682C50.2127 22.7641 50.2264 22.76 50.2398 22.7557C50.2534 22.7514 50.2669 22.747 50.2804 22.7425C50.2941 22.7379 50.3076 22.7333 50.3211 22.7285C50.3347 22.7238 50.3483 22.7189 50.3617 22.7139C50.3754 22.7089 50.3889 22.7038 50.4024 22.6986C50.416 22.6933 50.4296 22.6879 50.443 22.6824C50.4567 22.6769 50.4702 22.6712 50.4837 22.6655C50.4974 22.6596 50.5109 22.6536 50.5243 22.6475C50.538 22.6414 50.5515 22.6351 50.565 22.6287C50.5787 22.6223 50.5922 22.6157 50.6056 22.609C50.6193 22.6022 50.6329 22.5953 50.6463 22.5883C50.66 22.5812 50.6735 22.5739 50.6869 22.5666C50.7006 22.5591 50.7142 22.5515 50.7276 22.5438C50.7413 22.5359 50.7548 22.5279 50.7682 22.5198C50.782 22.5116 50.7955 22.5032 50.8089 22.4947C50.8226 22.4861 50.8361 22.4772 50.8495 22.4683C50.8633 22.4592 50.8768 22.4499 50.8902 22.4405C50.9039 22.4309 50.9175 22.4212 50.9308 22.4113C50.9446 22.4012 50.9581 22.391 50.9715 22.3806C50.9852 22.3699 50.9988 22.3592 51.0121 22.3482C51.0259 22.3369 51.0394 22.3255 51.0528 22.314C51.0666 22.302 51.0801 22.2899 51.0934 22.2776C51.1072 22.265 51.1208 22.2522 51.1341 22.2393C51.1479 22.2259 51.1615 22.2123 51.1747 22.1986C51.1886 22.1843 51.2021 22.1698 51.2154 22.1552C51.2292 22.1399 51.2428 22.1244 51.256 22.1088C51.2699 22.0924 51.2835 22.0758 51.2967 22.0591C51.3106 22.0414 51.3242 22.0235 51.3373 22.0054C51.3513 21.9862 51.3649 21.9667 51.378 21.9471C51.392 21.9261 51.4056 21.905 51.4186 21.8835C51.4327 21.8603 51.4463 21.8367 51.4593 21.813C51.4735 21.7868 51.4871 21.7603 51.4999 21.7335C51.5144 21.7034 51.5279 21.6729 51.5406 21.642C51.5553 21.6061 51.5689 21.5696 51.5812 21.5327C51.5967 21.4863 51.6103 21.4391 51.6219 21.3913C51.6406 21.3139 51.6542 21.2347 51.6625 21.1543C51.6692 21.0908 51.6726 21.0264 51.6726 20.9614C51.6726 20.8928 51.6691 20.8259 51.6625 20.7606C51.6542 20.6772 51.6405 20.5967 51.6219 20.5189C51.6103 20.4704 51.5967 20.4229 51.5812 20.3766C51.5689 20.3396 51.5553 20.3032 51.5406 20.2676C51.5279 20.2369 51.5143 20.2068 51.4999 20.1772C51.487 20.1508 51.4735 20.1248 51.4593 20.0993C51.4463 20.0759 51.4327 20.0528 51.4186 20.0302C51.4055 20.0091 51.392 19.9883 51.378 19.9679C51.3649 19.9487 51.3513 19.9299 51.3373 19.9113C51.3242 19.8938 51.3106 19.8764 51.2967 19.8593C51.2834 19.843 51.2699 19.8268 51.256 19.811C51.2428 19.7959 51.2292 19.781 51.2154 19.7663C51.2021 19.7522 51.1885 19.7383 51.1747 19.7245C51.1614 19.7112 51.1479 19.6982 51.1341 19.6853C51.1208 19.6728 51.1072 19.6604 51.0934 19.6482C51.0801 19.6365 51.0665 19.6248 51.0528 19.6133C51.0394 19.6022 51.0259 19.5912 51.0121 19.5803C50.9988 19.5698 50.9852 19.5593 50.9715 19.5491C50.9581 19.5391 50.9445 19.5292 50.9308 19.5195C50.9174 19.51 50.9039 19.5006 50.8902 19.4914C50.8768 19.4823 50.8633 19.4735 50.8495 19.4647C50.8361 19.456 50.8226 19.4475 50.8089 19.4392C50.7955 19.431 50.7819 19.4229 50.7682 19.415C50.7548 19.4071 50.7413 19.3995 50.7276 19.3919C50.7142 19.3844 50.7006 19.377 50.6869 19.3698C50.6735 19.3627 50.66 19.3557 50.6463 19.3488C50.6328 19.342 50.6193 19.3353 50.6056 19.3287C50.5922 19.3222 50.5787 19.3157 50.565 19.3094C50.5515 19.3032 50.538 19.2971 50.5243 19.2911C50.5109 19.2852 50.4973 19.2795 50.4837 19.2738C50.4702 19.2681 50.4566 19.2626 50.443 19.2571C50.4296 19.2517 50.416 19.2464 50.4024 19.2412C50.3889 19.2361 50.3754 19.231 50.3617 19.226C50.3482 19.2211 50.3347 19.2163 50.3211 19.2115C50.3076 19.2069 50.2941 19.2023 50.2804 19.1978C50.2669 19.1934 50.2534 19.189 50.2398 19.1847C50.2263 19.1805 50.2128 19.1763 50.1991 19.1722C50.1856 19.1682 50.1721 19.1641 50.1585 19.1602C50.145 19.1564 50.1314 19.1527 50.1178 19.1491C50.1044 19.1455 50.0908 19.1419 50.0772 19.1385L50.0365 19.1283C50.023 19.125 50.0095 19.1218 49.9959 19.1186C49.9824 19.1156 49.9688 19.1126 49.9552 19.1097L49.9146 19.1011C49.9011 19.0984 49.8876 19.0956 49.8739 19.093C49.8605 19.0904 49.8469 19.088 49.8333 19.0856L49.7926 19.0785C49.7791 19.0763 49.7656 19.074 49.752 19.0719L49.7113 19.0658L49.6707 19.0602L49.63 19.0549L49.5894 19.0501L49.5488 19.0458L49.5081 19.0418L49.4674 19.0383L49.4268 19.0352L49.3861 19.0323L49.3455 19.03L49.3294 19.0292L49.3048 19.0277L49.2642 19.0253L49.2235 19.0231L49.1829 19.021L49.1422 19.0191L49.1016 19.0173L49.0609 19.0159L49.0203 19.0147L48.9796 19.0138L48.939 19.0132L48.9166 19.0132H48.8983H48.8577H48.817H48.7764H48.7357H48.6951H48.6544H48.6138H48.5731H48.5325H48.4918H48.4512H48.4105H48.3699H48.3292H48.2886H48.2479H48.2073H48.1666H48.126H48.0853H48.0447H48.004H47.9634H47.9227H47.8821H47.8414H47.8008H47.7601H47.7195H47.6788H47.6382H47.5975H47.5569H47.5163H47.4756H47.4349H47.3943H47.3536H47.313H47.2723H47.2317H47.191H47.1504H47.1097H47.0691H47.0284H46.9878H46.9471H46.9065H46.8658H46.8252H46.7845H46.7439H46.7032H46.6626H46.6219H46.5813H46.5406H46.5H46.4594H46.4187H46.378H46.3374H46.2967H46.2561H46.2154H46.1748H46.1341H46.0935H46.0528H46.0122H45.9715H45.9309H45.8902H45.8496H45.8089H45.7683H45.7276H45.687H45.6463H45.6057H45.565H45.5244H45.4838H45.4431H45.4025H45.3618H45.3211H45.2805H45.2398H45.1992H45.1585H45.1179H45.0772H45.0366H44.9959H44.9553H44.9146H44.874H44.8333H44.7927H44.752H44.7114H44.6707H44.6301H44.5894H44.5488H44.5082H44.4675H44.4269H44.3862H44.3456H44.3049H44.2642H44.2236H44.1829H44.1423H44.1016H44.061H44.0203H43.9797H43.939H43.8984H43.8577H43.8171H43.7764H43.7358H43.6951H43.6545H43.6138H43.5732H43.5325H43.4919H43.4513H43.4106H43.37H43.3293H43.2887H43.248H43.2073H43.1667H43.126H43.0854H43.0447H42.957V14.707C42.957 14.4174 42.9873 14.1347 43.0447 13.8617C43.0571 13.8033 43.0706 13.7453 43.0854 13.6878C43.098 13.6386 43.1116 13.5898 43.126 13.5413C43.1389 13.4981 43.1524 13.4551 43.1667 13.4124C43.1797 13.3734 43.1932 13.3345 43.2073 13.2961C43.2204 13.2604 43.2339 13.2249 43.248 13.1897C43.2612 13.1567 43.2747 13.124 43.2887 13.0915C43.3019 13.0609 43.3154 13.0304 43.3293 13.0001C43.3425 12.9713 43.3561 12.9428 43.37 12.9144C43.3832 12.8873 43.3968 12.8604 43.4106 12.8336C43.4239 12.8078 43.4375 12.7823 43.4513 12.7569C43.4645 12.7323 43.4781 12.708 43.4919 12.6838C43.5052 12.6603 43.5188 12.637 43.5325 12.6138C43.5459 12.5913 43.5594 12.5689 43.5732 12.5467C43.5866 12.5252 43.6001 12.5038 43.6138 12.4826C43.6272 12.462 43.6408 12.4416 43.6545 12.4213C43.6679 12.4013 43.6814 12.3815 43.6951 12.3618C43.7086 12.3426 43.722 12.3233 43.7358 12.3043C43.7491 12.2858 43.7628 12.2676 43.7764 12.2494C43.7898 12.2315 43.8034 12.2137 43.8171 12.196C43.8306 12.1786 43.844 12.1611 43.8577 12.1439C43.8711 12.1272 43.8848 12.1108 43.8984 12.0942C43.9118 12.078 43.9254 12.0618 43.939 12.0457C43.9525 12.0299 43.966 12.014 43.9797 11.9984C43.9931 11.9831 44.0067 11.9681 44.0203 11.9531C44.0338 11.9381 44.0473 11.9232 44.061 11.9084C44.0744 11.894 44.088 11.8797 44.1016 11.8655C44.1151 11.8514 44.1286 11.8374 44.1423 11.8235C44.1558 11.8098 44.1692 11.7961 44.1829 11.7826C44.1964 11.7693 44.21 11.7562 44.2236 11.7431C44.2371 11.73 44.2505 11.7169 44.2642 11.704C44.2776 11.6915 44.2913 11.6792 44.3049 11.6668C44.3184 11.6544 44.3319 11.6421 44.3456 11.6299C44.359 11.6179 44.3726 11.6062 44.3862 11.5944C44.3997 11.5827 44.4132 11.571 44.4269 11.5594C44.4403 11.5481 44.4539 11.5368 44.4675 11.5256C44.481 11.5145 44.4945 11.5034 44.5082 11.4925C44.5216 11.4816 44.5352 11.4709 44.5488 11.4603L44.5894 11.4288L44.6301 11.3982C44.6436 11.3881 44.6571 11.3781 44.6707 11.3682C44.6842 11.3584 44.6978 11.3487 44.7114 11.339L44.752 11.3106C44.7655 11.3013 44.7791 11.292 44.7927 11.2829L44.8333 11.2558L44.874 11.2294C44.8875 11.2207 44.901 11.2121 44.9146 11.2036L44.9553 11.1786C44.9688 11.1704 44.9823 11.1621 44.9959 11.154C45.0094 11.146 45.023 11.1382 45.0366 11.1303C45.0501 11.1225 45.0636 11.1145 45.0772 11.1068C45.0907 11.0992 45.1044 11.0919 45.1179 11.0844C45.1314 11.077 45.1449 11.0694 45.1585 11.0621C45.172 11.0549 45.1856 11.0479 45.1992 11.0409C45.2127 11.0338 45.2262 11.0267 45.2398 11.0198C45.2533 11.0129 45.2669 11.0062 45.2805 10.9995C45.294 10.9929 45.3075 10.9862 45.3211 10.9796L45.3618 10.9603C45.3753 10.9539 45.3889 10.9478 45.4025 10.9416C45.416 10.9354 45.4295 10.9291 45.4431 10.9231C45.4566 10.9171 45.4702 10.9114 45.4838 10.9056C45.4973 10.8997 45.5108 10.8938 45.5244 10.8881C45.5379 10.8825 45.5515 10.8771 45.565 10.8716C45.5786 10.8661 45.5921 10.8606 45.6057 10.8552L45.6463 10.8395L45.687 10.8242C45.7006 10.8192 45.714 10.8141 45.7276 10.8092C45.7411 10.8044 45.7547 10.7998 45.7683 10.7951C45.7819 10.7904 45.7953 10.7856 45.8089 10.781C45.8224 10.7765 45.836 10.7722 45.8496 10.7678L45.8902 10.7548C45.9038 10.7506 45.9173 10.7463 45.9309 10.7422C45.9444 10.7381 45.958 10.7342 45.9715 10.7303C45.9851 10.7263 45.9986 10.7222 46.0122 10.7184C46.0257 10.7146 46.0393 10.7111 46.0528 10.7074C46.0664 10.7038 46.0799 10.7001 46.0935 10.6966L46.1341 10.6862C46.1476 10.6829 46.1612 10.6797 46.1748 10.6765C46.1883 10.6733 46.2018 10.6698 46.2154 10.6667C46.2289 10.6637 46.2425 10.6609 46.2561 10.6579L46.2967 10.6492L46.3374 10.641C46.3509 10.6383 46.3645 10.6358 46.378 10.6333C46.3916 10.6307 46.4051 10.628 46.4187 10.6256C46.4322 10.6232 46.4458 10.6211 46.4594 10.6189L46.5 10.6122C46.5135 10.6101 46.5271 10.6079 46.5406 10.6059C46.5542 10.6039 46.5677 10.6022 46.5813 10.6003C46.5949 10.5985 46.6083 10.5964 46.6219 10.5947C46.6355 10.593 46.649 10.5915 46.6626 10.5899L46.7032 10.5853C46.7168 10.5838 46.7303 10.5822 46.7439 10.5809C46.7574 10.5796 46.771 10.5785 46.7845 10.5773L46.8252 10.5738L46.8658 10.5708C46.8793 10.5698 46.8929 10.569 46.9065 10.5682C46.92 10.5674 46.9335 10.5664 46.9471 10.5657C46.9606 10.565 46.9743 10.5646 46.9878 10.564L47.0284 10.5625C47.042 10.5621 47.0555 10.5616 47.0691 10.5613C47.0826 10.561 47.0962 10.5609 47.1097 10.5607C47.1233 10.5605 47.1368 10.5603 47.1504 10.5602L47.1606 10.5601H47.191H47.2317H47.2723H47.313H47.3536H47.3943H47.4349H47.4756H47.5163H47.5569H47.5975H47.6382H47.6788H47.7195H47.7601H47.8008H47.8414H47.8821H47.9227H47.9634H48.004H48.0447H48.0853H48.126H48.1666H48.2073H48.2479H48.2886H48.3292H48.3699H48.4105H48.4512H48.4918H48.5325H48.5731H48.6138H48.6544H48.6951H48.7357H48.7764H48.817H48.8577H48.8983H48.939H48.9796H49.0203H49.0609H49.1016H49.1422H49.1829H49.2235H49.2642H49.3048H49.3455H49.3861H49.4268H49.4674H49.5081H49.5488H49.5894H49.63H49.6707H49.7113H49.752H49.7926H49.8333H49.8739H49.9146H49.9552H49.9959H50.0365H50.0772H50.1178H50.1585H50.1991H50.2398H50.2804H50.3211H50.3617H50.4024H50.443H50.4837H50.5243H50.565H50.6056H50.6463H50.6869H50.7276H50.7682H50.8089H50.8495H50.8902H50.9308H50.9715H51.0121H51.0528H51.0934H51.1341H51.1747H51.2154H51.256H51.2967H51.3373H51.378H51.4186H51.4593H51.4999H51.5406H51.5812H51.6219H51.6625H51.7032H51.7438H51.7845H51.8251H51.8658H51.9064H51.9471H51.9877H52.0284H52.069H52.1097H52.1503H52.191H52.2316H52.2723H52.3129H52.3536H52.3942H52.4349H52.4755H52.5162H52.5568H52.5975H52.6381H52.6788H52.7194H52.7601H52.8007H52.8414H52.882H52.9227H52.9633H53.004H53.0446H53.0853H53.1259H53.1666H53.2072H53.2479H53.2885H53.3292V10.5601Z" fill="url(#paint0_linear_1252_462)"/>
<path id="Vector_3" fill-rule="evenodd" clip-rule="evenodd" d="M19.7415 24.989C19.7124 24.9754 19.6833 24.9617 19.6543 24.9479V14.707C19.6543 14.4181 19.6843 14.1362 19.7415 13.864C19.7537 13.8055 19.7673 13.7476 19.7821 13.6901C19.7947 13.6408 19.8082 13.592 19.8226 13.5434C19.8355 13.5002 19.849 13.4573 19.8632 13.4146C19.8762 13.3755 19.8896 13.3367 19.9038 13.2981C19.9169 13.2625 19.9303 13.227 19.9443 13.1918C19.9575 13.1589 19.971 13.1261 19.9849 13.0936C19.9981 13.0629 20.0116 13.0325 20.0255 13.0022C20.0387 12.9735 20.0523 12.9449 20.0661 12.9165C20.0793 12.8894 20.0929 12.8625 20.1067 12.8357C20.1199 12.8099 20.1335 12.7844 20.1472 12.759C20.1605 12.7345 20.1741 12.7101 20.1878 12.6859C20.2011 12.6624 20.2146 12.6391 20.2284 12.616C20.2417 12.5935 20.2552 12.5711 20.269 12.5488C20.2823 12.5273 20.2958 12.506 20.3096 12.4848C20.3228 12.4642 20.3365 12.4438 20.3501 12.4234C20.3635 12.4035 20.377 12.3837 20.3907 12.364C20.4042 12.3447 20.4175 12.3254 20.4313 12.3064C20.4446 12.288 20.4582 12.2698 20.4719 12.2516C20.4853 12.2337 20.4988 12.2159 20.5125 12.1982C20.5259 12.1808 20.5393 12.1633 20.553 12.1461C20.5664 12.1294 20.58 12.113 20.5936 12.0965C20.607 12.0802 20.6205 12.064 20.6342 12.0479C20.6476 12.0321 20.6611 12.0163 20.6747 12.0007C20.6881 11.9854 20.7017 11.9704 20.7153 11.9553C20.7288 11.9403 20.7422 11.9254 20.7559 11.9107C20.7693 11.8962 20.7829 11.882 20.7965 11.8678C20.8099 11.8537 20.8234 11.8397 20.8371 11.8258C20.8505 11.8121 20.864 11.7984 20.8776 11.7849C20.891 11.7716 20.9047 11.7585 20.9182 11.7454C20.9317 11.7323 20.9451 11.7192 20.9588 11.7064C20.9722 11.6938 20.9858 11.6815 20.9994 11.6691C21.0129 11.6567 21.0263 11.6443 21.04 11.6322C21.0534 11.6202 21.067 11.6085 21.0805 11.5967C21.094 11.585 21.1075 11.5733 21.1211 11.5617C21.1346 11.5503 21.1481 11.5392 21.1617 11.528C21.1751 11.5168 21.1886 11.5057 21.2022 11.4948C21.2157 11.484 21.2293 11.4733 21.2428 11.4626C21.2563 11.452 21.2698 11.4415 21.2834 11.4311C21.2969 11.4208 21.3104 11.4106 21.324 11.4004C21.3375 11.3904 21.351 11.3804 21.3646 11.3705L21.4051 11.3414C21.4186 11.3318 21.4321 11.3223 21.4457 11.3128C21.4592 11.3035 21.4727 11.2943 21.4863 11.2851C21.4998 11.276 21.5133 11.267 21.5269 11.258C21.5403 11.2491 21.5539 11.2404 21.5675 11.2317C21.5809 11.223 21.5944 11.2143 21.608 11.2058C21.6215 11.1974 21.635 11.1891 21.6486 11.1808C21.6621 11.1726 21.6756 11.1642 21.6892 11.1561C21.7026 11.1481 21.7162 11.1404 21.7298 11.1325C21.7433 11.1246 21.7567 11.1167 21.7704 11.1089C21.7838 11.1013 21.7974 11.0941 21.8109 11.0866C21.8245 11.0791 21.8379 11.0716 21.8515 11.0642C21.865 11.057 21.8785 11.05 21.8921 11.043C21.9056 11.0359 21.9191 11.0288 21.9326 11.0219C21.9461 11.015 21.9597 11.0083 21.9732 11.0015L22.0138 10.9817C22.0273 10.9752 22.0408 10.9686 22.0544 10.9623C22.0679 10.9559 22.0814 10.9498 22.095 10.9436C22.1085 10.9374 22.1219 10.9311 22.1355 10.925C22.149 10.919 22.1626 10.9134 22.1761 10.9075C22.1896 10.9017 22.2031 10.8958 22.2167 10.8901C22.2302 10.8844 22.2438 10.879 22.2573 10.8735L22.2979 10.8571L22.3384 10.8413L22.379 10.8261C22.3926 10.8211 22.406 10.8158 22.4196 10.8109C22.433 10.8061 22.4467 10.8016 22.4602 10.7969C22.4737 10.7922 22.4872 10.7874 22.5007 10.7828L22.5413 10.7694L22.5819 10.7565C22.5954 10.7522 22.6089 10.7479 22.6225 10.7438C22.6359 10.7397 22.6495 10.7358 22.663 10.7319C22.6766 10.7279 22.6901 10.7238 22.7036 10.72C22.7171 10.7162 22.7307 10.7126 22.7442 10.7089L22.7848 10.6981C22.7983 10.6946 22.8118 10.691 22.8254 10.6876C22.8388 10.6842 22.8524 10.6811 22.8659 10.6779C22.8794 10.6746 22.893 10.6713 22.9065 10.6681C22.92 10.665 22.9336 10.6622 22.9471 10.6592L22.9877 10.6505C23.0012 10.6477 23.0147 10.6448 23.0283 10.6421C23.0417 10.6394 23.0553 10.637 23.0688 10.6344C23.0824 10.6319 23.0958 10.6292 23.1094 10.6268C23.1229 10.6244 23.1364 10.6222 23.15 10.6199L23.1906 10.6133C23.2041 10.6111 23.2176 10.6089 23.2311 10.6068C23.2446 10.6048 23.2582 10.6031 23.2717 10.6012C23.2852 10.5994 23.2987 10.5974 23.3123 10.5956L23.3529 10.5906L23.3935 10.5861C23.407 10.5846 23.4205 10.5828 23.434 10.5815C23.4475 10.5801 23.4611 10.5791 23.4746 10.5779L23.5152 10.5744C23.5287 10.5733 23.5422 10.5722 23.5558 10.5712C23.5693 10.5702 23.5828 10.5695 23.5964 10.5687C23.6099 10.5678 23.6234 10.5669 23.6369 10.5661C23.6504 10.5654 23.6639 10.5649 23.6775 10.5643L23.7181 10.5628C23.7316 10.5623 23.7451 10.5616 23.7587 10.5613C23.7721 10.561 23.7857 10.561 23.7992 10.5608C23.8127 10.5606 23.8263 10.5604 23.8398 10.5603L23.8578 10.5601H23.8804H23.921H23.9615H24.0021H24.0427H24.0833H24.1239H24.1644H24.205H24.2456H24.2862H24.3268H24.3673H24.4079H24.4485H24.489H24.5296H24.5702H24.6108H24.6514H24.6919H24.7325H24.7731H24.8137H24.8543H24.8948H24.9354H24.976H25.0166H25.0572H25.0977H25.1383H25.1789H25.2194H25.26H25.3006H25.3412H25.3818H25.4223H25.4629H25.5035H25.5441H25.5847H25.6252H25.6658H25.7064H25.7469H25.7875H25.8281H25.8687H25.9093H25.9498H25.9904H26.031H26.0716H26.1122H26.1527H26.1933H26.2339H26.2745H26.3151H26.3556H26.3962H26.4368H26.4774H26.5179H26.5585H26.5991H26.6397H26.6802H26.7208H26.7614H26.802H26.8426H26.8831H26.9237H26.9643H27.0049H27.0454H27.086H27.1266H27.1672H27.2078H27.2483H27.2889H27.3295H27.3701H27.4106H27.4512H27.4918H27.5324H27.573H27.6136H27.6541H27.6947H27.7353H27.7758H27.8164H27.857H27.8976H27.9382H27.9787H28.0193H28.0599H28.1005H28.1411H28.1816H28.2222H28.2628H28.3034H28.3439H28.3845H28.4251H28.4657H28.5062H28.5468H28.5874H28.628H28.6686H28.7091H28.7497H28.7903H28.8309H28.8715H28.912H28.9526H28.9932H29.0337H29.0743H29.1149H29.1555H29.1961H29.2366H29.2772H29.3178H29.3584H29.399H29.4395H29.4801H29.5207H29.5613H29.6019H29.6424H29.683H29.7236H29.7641H29.8047H29.8453H29.8859H29.9265H29.967H30.0076H30.0421V31.2933C30.0421 31.4737 30.0303 31.6513 30.0076 31.8256C29.9967 31.9095 29.983 31.9926 29.967 32.0748C29.9549 32.1374 29.9414 32.1995 29.9265 32.261C29.9139 32.3129 29.9004 32.3644 29.8859 32.4155C29.8731 32.4603 29.8595 32.5048 29.8453 32.5489C29.8324 32.5889 29.8188 32.6286 29.8047 32.6681C29.7917 32.7046 29.7782 32.7409 29.7641 32.777C29.751 32.8107 29.7375 32.8441 29.7236 32.8773C29.7104 32.9086 29.6969 32.9398 29.683 32.9707C29.6698 33 29.6563 33.0291 29.6424 33.0581C29.6292 33.0857 29.6157 33.1132 29.6019 33.1405C29.5886 33.1667 29.5751 33.1927 29.5613 33.2186C29.548 33.2435 29.5345 33.2683 29.5207 33.2929C29.5073 33.3167 29.4939 33.3404 29.4801 33.3639C29.4668 33.3866 29.4533 33.4092 29.4395 33.4316C29.4263 33.4533 29.4126 33.4748 29.399 33.4962C29.3856 33.5171 29.3721 33.5379 29.3584 33.5586C29.345 33.5788 29.3315 33.599 29.3178 33.6189C29.3045 33.6382 29.2909 33.6574 29.2772 33.6766C29.2639 33.6952 29.2503 33.7137 29.2366 33.7322C29.2232 33.7504 29.2098 33.7684 29.1961 33.7864C29.1827 33.8039 29.1692 33.8213 29.1555 33.8385C29.1421 33.8554 29.1285 33.8721 29.1149 33.8888C29.1015 33.9053 29.088 33.9218 29.0743 33.9381C29.061 33.9539 29.0474 33.9696 29.0337 33.9853C29.0203 34.0008 29.0068 34.0161 28.9932 34.0314C28.9797 34.0464 28.9663 34.0616 28.9526 34.0764C28.9392 34.0909 28.9256 34.1052 28.912 34.1196C28.8985 34.1338 28.8851 34.1481 28.8715 34.1621C28.858 34.1759 28.8445 34.1894 28.8309 34.203C28.8174 34.2165 28.8039 34.2298 28.7903 34.2431C28.7768 34.2562 28.7633 34.2692 28.7497 34.2821C28.7363 34.2948 28.7227 34.3074 28.7091 34.3199C28.6957 34.3323 28.6822 34.3448 28.6686 34.3571C28.6552 34.3691 28.6415 34.3809 28.628 34.3928C28.6145 34.4047 28.6011 34.4166 28.5874 34.4282C28.574 34.4397 28.5603 34.4508 28.5468 34.462C28.5333 34.4733 28.5199 34.4846 28.5062 34.4957C28.4928 34.5066 28.4792 34.5172 28.4657 34.5279C28.4522 34.5386 28.4387 34.5494 28.4251 34.5599C28.4117 34.5702 28.3981 34.5803 28.3845 34.5905C28.371 34.6007 28.3576 34.6109 28.3439 34.6209C28.3305 34.6307 28.3169 34.6403 28.3034 34.65C28.2898 34.6597 28.2764 34.6694 28.2628 34.679C28.2494 34.6883 28.2358 34.6975 28.2222 34.7067C28.2087 34.7159 28.1953 34.7252 28.1816 34.7343C28.1682 34.7431 28.1546 34.7518 28.1411 34.7606C28.1275 34.7693 28.1141 34.7782 28.1005 34.7869C28.0871 34.7953 28.0734 34.8035 28.0599 34.8118C28.0464 34.8201 28.0329 34.8286 28.0193 34.8367C28.0059 34.8448 27.9922 34.8526 27.9787 34.8605C27.9652 34.8684 27.9518 34.8764 27.9382 34.8841C27.9247 34.8918 27.9111 34.8993 27.8976 34.9068C27.8841 34.9143 27.8706 34.9218 27.857 34.9291C27.8435 34.9364 27.83 34.9437 27.8164 34.9508L27.7758 34.9719C27.7623 34.9788 27.7489 34.9858 27.7353 34.9926C27.7218 34.9993 27.7083 35.0058 27.6947 35.0124C27.6812 35.019 27.6677 35.0258 27.6541 35.0322C27.6407 35.0386 27.6271 35.0446 27.6136 35.0509C27.6 35.0571 27.5866 35.0635 27.573 35.0696C27.5595 35.0756 27.5459 35.0814 27.5324 35.0873L27.4918 35.1048L27.4512 35.1217C27.4378 35.1272 27.4242 35.1326 27.4106 35.138C27.3971 35.1434 27.3836 35.1489 27.3701 35.1542C27.3566 35.1594 27.343 35.1643 27.3295 35.1694C27.316 35.1744 27.3025 35.1796 27.2889 35.1846C27.2754 35.1895 27.2619 35.1942 27.2483 35.1989L27.2078 35.213L27.1672 35.2267C27.1537 35.2311 27.1401 35.2354 27.1266 35.2397C27.1131 35.244 27.0996 35.2485 27.086 35.2526C27.0726 35.2568 27.059 35.2606 27.0454 35.2646L27.0049 35.2765L26.9643 35.2879C26.9508 35.2916 26.9373 35.2951 26.9237 35.2987C26.9102 35.3023 26.8967 35.306 26.8831 35.3095C26.8697 35.3129 26.856 35.3159 26.8426 35.3192C26.829 35.3225 26.8155 35.3258 26.802 35.329L26.7614 35.3382L26.7208 35.3469C26.7073 35.3498 26.6938 35.3528 26.6802 35.3556C26.6668 35.3583 26.6532 35.3606 26.6397 35.3632C26.6262 35.3658 26.6126 35.3684 26.5991 35.3709L26.5585 35.3781C26.545 35.3804 26.5315 35.3825 26.5179 35.3847C26.5044 35.3869 26.4909 35.3893 26.4774 35.3913C26.4639 35.3934 26.4503 35.3951 26.4368 35.397L26.3962 35.4026C26.3827 35.4044 26.3692 35.4063 26.3556 35.4079C26.3421 35.4096 26.3286 35.411 26.3151 35.4125C26.3015 35.414 26.288 35.4157 26.2745 35.4171C26.261 35.4185 26.2474 35.4197 26.2339 35.4209L26.1933 35.4245C26.1798 35.4256 26.1663 35.427 26.1527 35.428C26.1393 35.429 26.1257 35.4296 26.1122 35.4305L26.0716 35.433L26.031 35.4352C26.0175 35.4358 26.0039 35.4362 25.9904 35.4367C25.9769 35.4372 25.9634 35.4378 25.9498 35.4382C25.9364 35.4386 25.9228 35.4387 25.9093 35.439L25.8687 35.4395C25.8562 35.4396 25.8437 35.4399 25.8311 35.4399H25.8281H25.7875H25.7469H25.7064H25.6658H25.6252H25.5847H25.5441H25.5035H25.4629H25.4223H25.3818H25.3412H25.3006H25.26H25.2194H25.1789H25.1383H25.0977H25.0572H25.0166H24.976H24.9354H24.8948H24.8543H24.8137H24.7731H24.7325H24.6919H24.6514H24.6108H24.5702H24.5296H24.489H24.4485H24.4079H24.3673H24.3268H24.2862H24.2456H24.205H24.1644H24.1239H24.0833H24.0427H24.0021H23.9615H23.921H23.8804H23.8398H23.7992H23.7587H23.7181H23.6775H23.6369H23.5964H23.5558H23.5152H23.4746H23.434H23.3935H23.3529H23.3123H23.2717H23.2311H23.1906H23.15H23.1094H23.0688H23.0283H22.9877H22.9471H22.9065H22.8659H22.8254H22.7848H22.7442H22.7036H22.663H22.6225H22.5819H22.5413H22.5007H22.4602H22.4196H22.379H22.3384H22.2979H22.2573H22.2167H22.1761H22.1355H22.095H22.0544H22.0138H21.9732H21.9326H21.8921H21.8515H21.8109H21.7704H21.7298H21.6892H21.6486H21.608H21.5675H21.5269H21.4863H21.4457H21.4051H21.3646H21.324H21.2834H21.2428H21.2022H21.1617H21.1211H21.0805H21.04H20.9994H20.9588H20.9182H20.8776H20.8371H20.7965H20.7559H20.7153H20.6747H20.6342H20.5936H20.553H20.5125H20.4719H20.4313H20.3907H20.3501H20.3096H20.269H20.2284H20.1878H20.1472H20.1067H20.0661H20.0255H19.9849H19.9443H19.9038H19.8632H19.8226H19.7821H19.7415H19.6543V26.7011C19.6543 26.7011 19.6843 26.7092 19.7415 26.7234L19.7821 26.7334L19.8226 26.7431L19.8632 26.7527L19.9038 26.7622L19.9443 26.7715L19.9849 26.7806L20.0255 26.7896L20.0661 26.7985L20.1067 26.8073L20.1472 26.816L20.1878 26.8245L20.2284 26.8329L20.269 26.8412L20.3096 26.8494L20.3501 26.8575L20.3907 26.8655L20.4313 26.8734L20.4719 26.8811L20.5125 26.8889L20.553 26.8965L20.5936 26.9039L20.6342 26.9113L20.6747 26.9186L20.7153 26.9258L20.7559 26.933L20.7965 26.94L20.8371 26.9469L20.8776 26.9537L20.9182 26.9604L20.9588 26.9671L20.9994 26.9736L21.04 26.9801L21.0805 26.9865L21.1211 26.9928L21.1617 26.999L21.2022 27.0051L21.2428 27.0111L21.2834 27.017L21.324 27.0229L21.3646 27.0287L21.4051 27.0343L21.4457 27.0399L21.4863 27.0454L21.5269 27.0508L21.5675 27.0562L21.608 27.0614L21.6486 27.0666L21.6892 27.0716L21.7298 27.0766L21.7704 27.0815L21.8109 27.0863L21.8515 27.091L21.8921 27.0957L21.9326 27.1002L21.9732 27.1047L22.0138 27.1091L22.0544 27.1134L22.095 27.1176L22.1355 27.1217L22.1761 27.1258L22.2167 27.1297L22.2573 27.1336L22.2979 27.1374L22.3384 27.141L22.379 27.1447L22.4196 27.1482L22.4602 27.1516L22.5007 27.155L22.5413 27.1582L22.5819 27.1614L22.6225 27.1645L22.663 27.1675L22.7036 27.1704L22.7442 27.1732L22.7848 27.176L22.8254 27.1786L22.8659 27.1812L22.9065 27.1837L22.9471 27.186L22.9877 27.1884L23.0283 27.1905L23.0688 27.1927L23.1094 27.1947L23.15 27.1966L23.1906 27.1985L23.2311 27.2002L23.2717 27.2019L23.3123 27.2035L23.3529 27.2049L23.3935 27.2064L23.434 27.2077L23.4746 27.2088L23.5152 27.21L23.5558 27.211L23.5964 27.2119L23.6369 27.2129L23.6775 27.2135L23.7181 27.2142L23.7587 27.2148L23.7992 27.2152L23.8398 27.2156L23.8804 27.2159L23.921 27.216L23.9615 27.2161L23.9772 27.2162L24.0021 27.2161L24.0427 27.2158L24.0833 27.2156L24.1239 27.2153L24.1644 27.2151L24.205 27.2144L24.2456 27.2137L24.2862 27.2129L24.3268 27.2122L24.3673 27.2112L24.4079 27.2099L24.4485 27.2087L24.489 27.2075L24.5296 27.2062L24.5702 27.2044L24.6108 27.2026L24.6514 27.2009L24.6919 27.1991L24.7325 27.1969L24.7731 27.1946L24.8137 27.1923L24.8543 27.1899L24.8948 27.1873L24.9354 27.1844L24.976 27.1815L25.0166 27.1787L25.0572 27.1755L25.0977 27.172L25.1383 27.1686L25.1789 27.1651L25.2194 27.1613L25.26 27.1573L25.3006 27.1532L25.3412 27.1491L25.3818 27.1447L25.4223 27.14L25.4629 27.1353L25.5035 27.1306L25.5441 27.1254L25.5847 27.1201L25.6252 27.1147L25.6658 27.1093C25.6795 27.1074 25.6928 27.1052 25.7064 27.1033L25.7469 27.0973L25.7875 27.0913L25.8281 27.0849C25.8418 27.0828 25.8551 27.0804 25.8687 27.0782L25.9093 27.0715C25.9227 27.0692 25.9365 27.0671 25.9498 27.0647C25.9635 27.0624 25.9768 27.0598 25.9904 27.0573L26.031 27.0499L26.0716 27.0424L26.1122 27.0346C26.1258 27.0319 26.1392 27.0291 26.1527 27.0264L26.1933 27.0181L26.2339 27.0098C26.2476 27.0069 26.2609 27.0038 26.2745 27.0008L26.3151 26.9918C26.3285 26.9887 26.3423 26.9859 26.3556 26.9828C26.3693 26.9796 26.3826 26.9762 26.3962 26.973L26.4368 26.9632C26.4503 26.9599 26.464 26.9567 26.4774 26.9534C26.491 26.9499 26.5044 26.9464 26.5179 26.9429L26.5585 26.9322C26.572 26.9286 26.5857 26.9251 26.5991 26.9215C26.6128 26.9178 26.6262 26.9139 26.6397 26.9102L26.6802 26.8986C26.6937 26.8947 26.7075 26.8909 26.7208 26.887L26.7614 26.8747L26.802 26.8622C26.8155 26.858 26.8292 26.8539 26.8426 26.8497L26.8831 26.8364L26.9237 26.8228C26.9372 26.8183 26.951 26.8139 26.9643 26.8093C26.978 26.8045 26.9913 26.7996 27.0049 26.7948L27.0454 26.7802C27.059 26.7753 27.0726 26.7704 27.086 26.7654C27.0997 26.7603 27.1131 26.755 27.1266 26.7498C27.1402 26.7446 27.1538 26.7394 27.1672 26.7342L27.2078 26.7179L27.2483 26.7011C27.2618 26.6955 27.2756 26.6901 27.2889 26.6844C27.3026 26.6785 27.3159 26.6724 27.3295 26.6664L27.3701 26.6484L27.4106 26.6299C27.4243 26.6235 27.4378 26.6171 27.4512 26.6106C27.4647 26.6042 27.4785 26.5978 27.4918 26.5913C27.5055 26.5845 27.5188 26.5775 27.5324 26.5707C27.5459 26.5639 27.5596 26.5571 27.573 26.5502C27.5867 26.5431 27.6 26.5358 27.6136 26.5286C27.6272 26.5213 27.6407 26.514 27.6541 26.5067C27.6678 26.4992 27.6813 26.4916 27.6947 26.484C27.7084 26.4763 27.7218 26.4684 27.7353 26.4605C27.7489 26.4526 27.7625 26.4447 27.7758 26.4367C27.7896 26.4284 27.803 26.42 27.8164 26.4117C27.83 26.4033 27.8437 26.3949 27.857 26.3864C27.8707 26.3776 27.8841 26.3686 27.8976 26.3597C27.9111 26.3507 27.9248 26.3419 27.9382 26.3328C27.9519 26.3234 27.9653 26.3139 27.9787 26.3044C27.9923 26.2949 28.006 26.2853 28.0193 26.2756C28.033 26.2656 28.0465 26.2555 28.0599 26.2454C28.0735 26.2351 28.0871 26.2248 28.1005 26.2144C28.1141 26.2038 28.1277 26.193 28.1411 26.1822C28.1547 26.1711 28.1682 26.1599 28.1816 26.1488C28.1953 26.1374 28.2089 26.126 28.2222 26.1144C28.236 26.1025 28.2493 26.0903 28.2628 26.0782C28.2764 26.0659 28.2901 26.0537 28.3034 26.0413C28.3171 26.0283 28.3306 26.0153 28.3439 26.0022C28.3577 25.9888 28.3712 25.9753 28.3845 25.9617C28.3982 25.9479 28.4118 25.934 28.4251 25.92C28.4389 25.9053 28.4523 25.8905 28.4657 25.8756C28.4795 25.8603 28.4929 25.8448 28.5062 25.8293C28.52 25.8134 28.5336 25.7974 28.5468 25.7812C28.5606 25.7644 28.5742 25.7476 28.5874 25.7306C28.6013 25.7127 28.6147 25.6948 28.628 25.6767C28.6418 25.6579 28.6553 25.639 28.6686 25.62C28.6824 25.6002 28.6959 25.5802 28.7091 25.56C28.723 25.5389 28.7365 25.5177 28.7497 25.4962C28.7636 25.4736 28.7772 25.4509 28.7903 25.4279C28.8042 25.4036 28.8178 25.3791 28.8309 25.3545C28.8449 25.328 28.8584 25.3015 28.8715 25.2747C28.8855 25.2459 28.899 25.2169 28.912 25.1876C28.9261 25.1559 28.9397 25.1239 28.9526 25.0916C28.9668 25.056 28.9804 25.0201 28.9932 24.9839C29.0077 24.9429 29.0211 24.9014 29.0337 24.8595C29.0485 24.8106 29.062 24.7612 29.0743 24.7114C29.0896 24.6495 29.1032 24.587 29.1149 24.5237C29.1323 24.4295 29.1457 24.3338 29.1555 24.2369C29.1691 24.1017 29.1758 23.9641 29.1758 23.8244V19.0132H29.1555H29.1149H29.0743H29.0337H28.9932H28.9526H28.912H28.8715H28.8309H28.7903H28.7497H28.7091H28.6686H28.628H28.5874H28.5468H28.5062H28.4657H28.4251H28.3845H28.3439H28.3034H28.2628H28.2222H28.1816H28.1411H28.1005H28.0599H28.0193H27.9787H27.9382H27.8976H27.857H27.8164H27.7758H27.7353H27.6947H27.6541H27.6136H27.573H27.5324H27.4918H27.4512H27.4106H27.3701H27.3295H27.2889H27.2483H27.2078H27.1672H27.1266H27.086H27.0454H27.0049H26.9643H26.9237H26.8831H26.8426H26.802H26.7614H26.7208H26.6802H26.6397H26.5991H26.5585H26.5179H26.4774H26.4368H26.3962H26.3556H26.3151H26.2745H26.2339H26.1933H26.1527H26.1122H26.0716H26.031H25.9904H25.9498H25.9093H25.8687H25.8281H25.7875H25.7469H25.7064H25.6658H25.6252H25.5847H25.5539V23.8244C25.5539 23.8997 25.5506 23.9738 25.5441 24.0465C25.5358 24.1391 25.5222 24.2293 25.5035 24.3171C25.4919 24.3713 25.4784 24.4245 25.4629 24.4767C25.4506 24.5183 25.4371 24.5593 25.4223 24.5995C25.4097 24.6338 25.3962 24.6675 25.3818 24.7007C25.3689 24.7304 25.3554 24.7595 25.3412 24.7883C25.3282 24.8145 25.3148 24.8405 25.3006 24.8659C25.2876 24.8893 25.274 24.9123 25.26 24.935C25.2469 24.9564 25.2334 24.9776 25.2194 24.9984C25.2063 25.0179 25.1928 25.0371 25.1789 25.0561C25.1657 25.0742 25.1522 25.0921 25.1383 25.1097C25.1251 25.1264 25.1115 25.1428 25.0977 25.1591C25.0845 25.1746 25.071 25.19 25.0572 25.2051C25.0439 25.2197 25.0304 25.2341 25.0166 25.2483C25.0032 25.262 24.9898 25.2755 24.976 25.2888C24.9627 25.3016 24.9492 25.3144 24.9354 25.3269C24.9221 25.3389 24.9085 25.3508 24.8948 25.3625C24.8815 25.3739 24.868 25.3851 24.8543 25.3962C24.8409 25.4069 24.8273 25.4175 24.8137 25.428C24.8003 25.4381 24.7868 25.4481 24.7731 25.458C24.7597 25.4676 24.7462 25.4771 24.7325 25.4864C24.7192 25.4956 24.7056 25.5045 24.6919 25.5134C24.6786 25.522 24.6651 25.5305 24.6514 25.5389C24.638 25.547 24.6245 25.555 24.6108 25.5629C24.5974 25.5707 24.5839 25.5782 24.5702 25.5857C24.5568 25.5931 24.5433 25.6002 24.5296 25.6073C24.5162 25.6143 24.5027 25.6211 24.489 25.6278C24.4756 25.6343 24.4621 25.6408 24.4485 25.6472C24.435 25.6534 24.4216 25.6596 24.4079 25.6656C24.3944 25.6715 24.381 25.6774 24.3673 25.683C24.3539 25.6886 24.3404 25.694 24.3268 25.6993C24.3133 25.7046 24.2998 25.7097 24.2862 25.7148C24.2727 25.7197 24.2592 25.7246 24.2456 25.7294C24.2321 25.7341 24.2186 25.7388 24.205 25.7433C24.1916 25.7477 24.178 25.752 24.1644 25.7562C24.151 25.7604 24.1374 25.7643 24.1239 25.7683C24.1104 25.7722 24.0969 25.776 24.0833 25.7797C24.0698 25.7834 24.0563 25.7871 24.0427 25.7905C24.0293 25.7939 24.0157 25.7972 24.0021 25.8004C23.9887 25.8036 23.9752 25.8067 23.9615 25.8096C23.9481 25.8126 23.9346 25.8155 23.921 25.8183C23.9075 25.8211 23.894 25.8237 23.8804 25.8263C23.8669 25.8288 23.8534 25.8312 23.8398 25.8335C23.8263 25.8358 23.8128 25.8382 23.7992 25.8403L23.7587 25.8464C23.7452 25.8484 23.7317 25.8501 23.7181 25.8519C23.7046 25.8536 23.6911 25.8554 23.6775 25.8569L23.6369 25.8614C23.6235 25.8627 23.6099 25.8639 23.5964 25.8651C23.5828 25.8663 23.5694 25.8676 23.5558 25.8686C23.5423 25.8696 23.5288 25.8705 23.5152 25.8714C23.5017 25.8722 23.4882 25.873 23.4746 25.8737C23.4611 25.8744 23.4476 25.8751 23.434 25.8756C23.4206 25.8761 23.407 25.8764 23.3935 25.8768L23.3529 25.8777C23.3394 25.878 23.3259 25.878 23.3123 25.8781L23.297 25.8783L23.2717 25.8782L23.2311 25.8779L23.1906 25.8773L23.15 25.8765L23.1094 25.8755L23.0688 25.8742L23.0283 25.8725L22.9877 25.8707L22.9471 25.8687L22.9065 25.8663L22.8659 25.8637L22.8254 25.8609L22.7848 25.8577L22.7442 25.8544L22.7036 25.8508L22.663 25.847L22.6225 25.8429L22.5819 25.8386L22.5413 25.834L22.5007 25.8292L22.4602 25.8241L22.4196 25.8189L22.379 25.8133L22.3384 25.8075L22.2979 25.8015L22.2573 25.7953L22.2167 25.7888L22.1761 25.7821L22.1355 25.7751L22.095 25.7679L22.0544 25.7605L22.0138 25.7529L21.9732 25.745L21.9326 25.7369L21.8921 25.7286L21.8515 25.72L21.8109 25.7113L21.7704 25.7022L21.7298 25.693L21.6892 25.6836L21.6486 25.6739L21.608 25.664L21.5675 25.654L21.5269 25.6436L21.4863 25.633L21.4457 25.6223L21.4051 25.6113L21.3646 25.6001L21.324 25.5887L21.2834 25.5771L21.2428 25.5653L21.2022 25.5532L21.1617 25.541L21.1211 25.5285L21.0805 25.5159L21.04 25.503L20.9994 25.49L20.9588 25.4767L20.9182 25.4632L20.8776 25.4495L20.8371 25.4357L20.7965 25.4216L20.7559 25.4073L20.7153 25.3929L20.6747 25.3782L20.6342 25.3633L20.5936 25.3483L20.553 25.333L20.5125 25.3176L20.4719 25.3019L20.4313 25.2861L20.3907 25.2701L20.3501 25.2539L20.3096 25.2375L20.269 25.221L20.2284 25.2042L20.1878 25.1872L20.1472 25.1701L20.1067 25.1528L20.0661 25.1353L20.0255 25.1176L19.9849 25.0998L19.9443 25.0818L19.9038 25.0636L19.8632 25.0452L19.8226 25.0267L19.7821 25.0079L19.7415 24.9891V24.989Z" fill="url(#paint1_linear_1252_462)"/>
<path id="Vector_4" fill-rule="evenodd" clip-rule="evenodd" d="M31.3918 20.0645C31.3622 20.088 31.3331 20.1118 31.3047 20.1358V14.707C31.3047 14.4183 31.3348 14.1365 31.3918 13.8644C31.4041 13.806 31.4177 13.7481 31.4324 13.6906C31.445 13.6413 31.4586 13.5924 31.473 13.5438C31.4858 13.5005 31.4994 13.4575 31.5136 13.4148C31.5265 13.3758 31.54 13.337 31.5541 13.2985C31.5672 13.2628 31.5807 13.2273 31.5947 13.1921C31.6079 13.1592 31.6214 13.1265 31.6353 13.094C31.6485 13.0633 31.662 13.0329 31.6759 13.0026C31.689 12.9738 31.7026 12.9453 31.7165 12.9169C31.7297 12.8897 31.7432 12.8629 31.757 12.8361C31.7703 12.8103 31.7838 12.7848 31.7976 12.7593C31.8109 12.7348 31.8244 12.7105 31.8382 12.6863C31.8515 12.6628 31.865 12.6395 31.8788 12.6163C31.8921 12.5938 31.9056 12.5714 31.9194 12.5492C31.9327 12.5277 31.9462 12.5064 31.9599 12.4852C31.9733 12.4646 31.9868 12.4442 32.0005 12.4238C32.0139 12.4039 32.0274 12.3841 32.0411 12.3644C32.0545 12.3451 32.0679 12.3258 32.0817 12.3067C32.095 12.2883 32.1086 12.2702 32.1222 12.252C32.1357 12.2341 32.1492 12.2162 32.1628 12.1986C32.1763 12.1812 32.1897 12.1637 32.2034 12.1465C32.2167 12.1298 32.2304 12.1134 32.244 12.0969C32.2574 12.0806 32.2709 12.0644 32.2846 12.0483C32.298 12.0325 32.3115 12.0167 32.3252 12.0011C32.3385 11.9858 32.3522 11.9707 32.3657 11.9557C32.3792 11.9408 32.3927 11.9258 32.4063 11.911C32.4197 11.8966 32.4333 11.8823 32.4469 11.8681C32.4603 11.854 32.4738 11.84 32.4874 11.8261C32.5009 11.8124 32.5144 11.7987 32.528 11.7852C32.5414 11.7719 32.555 11.7588 32.5686 11.7457C32.5821 11.7327 32.5955 11.7196 32.6092 11.7067C32.6226 11.6941 32.6362 11.6818 32.6497 11.6694C32.6632 11.6571 32.6767 11.6447 32.6903 11.6325C32.7038 11.6205 32.7174 11.6088 32.7309 11.597C32.7444 11.5853 32.7579 11.5736 32.7715 11.562C32.785 11.5506 32.7985 11.5395 32.8121 11.5283C32.8256 11.5171 32.8391 11.506 32.8527 11.495C32.8661 11.4842 32.8797 11.4735 32.8932 11.4629C32.9067 11.4523 32.9202 11.4418 32.9338 11.4314C32.9473 11.4211 32.9608 11.4109 32.9744 11.4007C32.9879 11.3907 33.0014 11.3807 33.015 11.3708C33.0284 11.361 33.042 11.3513 33.0556 11.3416C33.069 11.3321 33.0825 11.3225 33.0961 11.3131C33.1096 11.3038 33.1231 11.2946 33.1367 11.2854C33.1502 11.2763 33.1637 11.2672 33.1773 11.2582C33.1907 11.2494 33.2043 11.2407 33.2179 11.2319C33.2314 11.2232 33.2448 11.2145 33.2585 11.206C33.2719 11.1976 33.2855 11.1894 33.2991 11.1811C33.3126 11.1728 33.326 11.1645 33.3396 11.1564C33.3531 11.1483 33.3667 11.1406 33.3802 11.1327C33.3938 11.1248 33.4072 11.1168 33.4208 11.1091C33.4342 11.1015 33.4479 11.0942 33.4614 11.0868C33.4749 11.0793 33.4883 11.0718 33.5019 11.0645C33.5154 11.0572 33.529 11.0503 33.5425 11.0432C33.556 11.0361 33.5695 11.029 33.5831 11.0221L33.6237 11.0017L33.6643 10.9819C33.6777 10.9754 33.6913 10.9688 33.7048 10.9624C33.7183 10.9561 33.7319 10.95 33.7454 10.9438C33.759 10.9376 33.7724 10.9312 33.786 10.9252C33.7994 10.9192 33.813 10.9135 33.8266 10.9077C33.8401 10.9019 33.8536 10.8959 33.8672 10.8902C33.8806 10.8846 33.8942 10.8791 33.9077 10.8736L33.9483 10.8573C33.9618 10.8519 33.9753 10.8466 33.9889 10.8414C34.0024 10.8362 34.0159 10.8312 34.0295 10.8262C34.043 10.8212 34.0564 10.8159 34.07 10.811C34.0835 10.8062 34.0971 10.8017 34.1106 10.797C34.1242 10.7923 34.1376 10.7875 34.1512 10.7829C34.1647 10.7783 34.1783 10.774 34.1918 10.7695L34.2324 10.7566C34.2459 10.7523 34.2594 10.748 34.273 10.7438C34.2864 10.7398 34.3 10.7359 34.3135 10.732C34.327 10.728 34.3406 10.7239 34.3541 10.72C34.3676 10.7162 34.3812 10.7127 34.3947 10.709L34.4353 10.6982C34.4488 10.6946 34.4623 10.6911 34.4759 10.6877C34.4893 10.6843 34.5029 10.6812 34.5164 10.6779C34.5299 10.6747 34.5434 10.6713 34.557 10.6682C34.5705 10.6651 34.5841 10.6622 34.5976 10.6592L34.6382 10.6506C34.6517 10.6477 34.6652 10.6448 34.6787 10.6421C34.6922 10.6394 34.7058 10.637 34.7193 10.6345C34.7329 10.6319 34.7463 10.6292 34.7599 10.6268L34.8005 10.6199L34.8411 10.6133C34.8546 10.6111 34.8681 10.6089 34.8817 10.6068C34.8951 10.6048 34.9087 10.6031 34.9222 10.6012C34.9357 10.5994 34.9493 10.5974 34.9628 10.5957L35.0034 10.5906L35.044 10.5861C35.0575 10.5846 35.071 10.5828 35.0846 10.5815C35.098 10.5801 35.1116 10.5791 35.1251 10.5779L35.1657 10.5744C35.1792 10.5733 35.1927 10.5722 35.2063 10.5712C35.2198 10.5702 35.2333 10.5695 35.2469 10.5687C35.2604 10.5678 35.2739 10.5669 35.2874 10.5661C35.301 10.5654 35.3145 10.5649 35.328 10.5643L35.3686 10.5628C35.3822 10.5623 35.3956 10.5616 35.4092 10.5613C35.4227 10.561 35.4363 10.561 35.4498 10.5608C35.4633 10.5606 35.4768 10.5604 35.4904 10.5603L35.5083 10.5601H35.5309H35.5715H35.6121H35.6527H35.6933H35.7338H35.7744H35.815H35.8556H35.8962H35.9367H35.9773H36.0179H36.0585H36.099H36.1396H36.1802H36.2208H36.2614H36.3019H36.3425H36.3831H36.4237H36.4643H36.5049H36.5455H36.586H36.6266H36.6672H36.7077H36.7483H36.7889H36.8295H36.8701H36.9107H36.9512H36.9918H37.0324H37.073H37.1136H37.1541H37.1947H37.2353H37.2759H37.3164H37.357H37.3976H37.4382H37.4788H37.5193H37.5599H37.6005H37.6411H37.6817H37.7222H37.7628H37.8034H37.844H37.8846H37.9251H37.9657H38.0063H38.0469H38.0875H38.128H38.1686H38.2092H38.2498H38.2904H38.331H38.3715H38.4121H38.4527H38.4933H38.5339H38.5744H38.615H38.6556H38.6962H38.7367H38.7773H38.8179H38.8585H38.8991H38.9396H38.9802H39.0208H39.0614H39.102H39.1426H39.1831H39.2237H39.2643H39.3049H39.3454H39.386H39.4266H39.4672H39.5078H39.5483H39.5889H39.6295H39.6701H39.7107H39.7513H39.7918H39.8324H39.873H39.9135H39.9541H39.9947H40.0353H40.0759H40.1165H40.157H40.1976H40.2382H40.2788H40.3194H40.36H40.4005H40.4411H40.4817H40.5223H40.5628H40.6034H40.644H40.6846H40.7252H40.7657H40.8063H40.8469H40.8875H40.9281H40.9686H41.0092H41.0498H41.0904H41.131H41.1715H41.2121H41.2527H41.2933H41.3338H41.3744H41.415H41.4556H41.4962H41.5367H41.5773H41.6179H41.6585H41.6929V31.2933C41.6929 31.4736 41.6812 31.6511 41.6585 31.8254C41.6476 31.9092 41.6339 31.9922 41.6179 32.0745C41.6058 32.1371 41.5923 32.1992 41.5773 32.2608C41.5647 32.3126 41.5513 32.3641 41.5367 32.4152C41.524 32.46 41.5104 32.5045 41.4962 32.5487C41.4833 32.5887 41.4697 32.6284 41.4556 32.6679C41.4426 32.7044 41.429 32.7407 41.415 32.7768C41.4019 32.8104 41.3884 32.8438 41.3744 32.877C41.3613 32.9084 41.3478 32.9395 41.3338 32.9704C41.3207 32.9998 41.3071 33.0288 41.2933 33.0578C41.28 33.0855 41.2665 33.113 41.2527 33.1403C41.2394 33.1664 41.2259 33.1925 41.2121 33.2184C41.1988 33.2433 41.1853 33.2681 41.1715 33.2927C41.1582 33.3165 41.1448 33.3403 41.131 33.3638C41.1177 33.3864 41.1041 33.409 41.0904 33.4314C41.0771 33.4531 41.0635 33.4745 41.0498 33.496C41.0364 33.5169 41.0229 33.5377 41.0092 33.5583C40.9958 33.5785 40.9824 33.5988 40.9686 33.6187C40.9553 33.6381 40.9417 33.6572 40.9281 33.6763C40.9147 33.695 40.9011 33.7135 40.8875 33.732C40.8741 33.7501 40.8606 33.7683 40.8469 33.7862C40.8335 33.8036 40.82 33.821 40.8063 33.8382C40.793 33.8552 40.7793 33.8719 40.7657 33.8886C40.7523 33.9051 40.7389 33.9215 40.7252 33.9378C40.7118 33.9537 40.6982 33.9694 40.6846 33.9851C40.6712 34.0006 40.6577 34.0159 40.644 34.0311C40.6305 34.0462 40.6171 34.0613 40.6034 34.0762C40.59 34.0907 40.5764 34.105 40.5628 34.1193C40.5494 34.1336 40.5359 34.1479 40.5223 34.1619C40.5088 34.1757 40.4953 34.1892 40.4817 34.2028C40.4682 34.2162 40.4548 34.2296 40.4411 34.2428C40.4277 34.2559 40.4142 34.269 40.4005 34.2819C40.3871 34.2946 40.3735 34.3071 40.36 34.3197C40.3464 34.3321 40.333 34.3447 40.3194 34.3569C40.306 34.369 40.2923 34.3808 40.2788 34.3927C40.2653 34.4045 40.2519 34.4164 40.2382 34.4281C40.2248 34.4395 40.2111 34.4507 40.1976 34.4619C40.1841 34.4732 40.1707 34.4845 40.157 34.4956C40.1436 34.5064 40.13 34.517 40.1165 34.5277C40.103 34.5384 40.0895 34.5492 40.0759 34.5597C40.0625 34.5701 40.0489 34.5801 40.0353 34.5903C40.0218 34.6005 40.0084 34.6107 39.9947 34.6207C39.9813 34.6306 39.9677 34.6402 39.9541 34.6499C39.9406 34.6595 39.9272 34.6693 39.9135 34.6788C39.9001 34.6881 39.8865 34.6973 39.873 34.7065C39.8595 34.7157 39.846 34.725 39.8324 34.7341C39.819 34.743 39.8054 34.7516 39.7918 34.7604C39.7783 34.7692 39.7649 34.7781 39.7513 34.7867C39.7378 34.7952 39.7242 34.8033 39.7107 34.8116C39.6971 34.82 39.6837 34.8284 39.6701 34.8366C39.6567 34.8446 39.643 34.8524 39.6295 34.8603C39.616 34.8682 39.6025 34.8762 39.5889 34.884C39.5755 34.8916 39.5619 34.8992 39.5483 34.9067L39.5078 34.929L39.4672 34.9507L39.4266 34.9717C39.4131 34.9787 39.3996 34.9856 39.386 34.9924C39.3726 34.9992 39.359 35.0057 39.3454 35.0123C39.3319 35.0189 39.3185 35.0256 39.3049 35.0321C39.2914 35.0384 39.2778 35.0445 39.2643 35.0508C39.2508 35.057 39.2373 35.0634 39.2237 35.0694C39.2102 35.0755 39.1966 35.0813 39.1831 35.0872L39.1426 35.1046L39.102 35.1216L39.0614 35.1379C39.0478 35.1433 39.0344 35.1488 39.0208 35.1541C39.0074 35.1593 38.9937 35.1642 38.9802 35.1693C38.9667 35.1744 38.9532 35.1795 38.9396 35.1845C38.9262 35.1894 38.9126 35.1941 38.8991 35.1988L38.8585 35.2129L38.8179 35.2266C38.8044 35.231 38.7908 35.2353 38.7773 35.2396C38.7638 35.2439 38.7503 35.2484 38.7367 35.2525C38.7233 35.2567 38.7097 35.2605 38.6962 35.2645L38.6556 35.2764L38.615 35.2878C38.6015 35.2915 38.588 35.295 38.5744 35.2986C38.5609 35.3022 38.5475 35.3059 38.5339 35.3094C38.5204 35.3128 38.5068 35.3159 38.4933 35.3192C38.4797 35.3224 38.4662 35.3258 38.4527 35.3289L38.4121 35.3381L38.3715 35.3468C38.358 35.3497 38.3445 35.3528 38.331 35.3555C38.3175 35.3582 38.3039 35.3606 38.2904 35.3632L38.2498 35.3708L38.2092 35.378C38.1957 35.3804 38.1822 35.3825 38.1686 35.3847C38.1551 35.3869 38.1416 35.3892 38.128 35.3913C38.1146 35.3933 38.101 35.3951 38.0875 35.397L38.0469 35.4026C38.0334 35.4044 38.0199 35.4062 38.0063 35.4079C37.9928 35.4095 37.9793 35.4109 37.9657 35.4125C37.9522 35.414 37.9387 35.4156 37.9251 35.417C37.9117 35.4184 37.8981 35.4196 37.8846 35.4209L37.844 35.4245C37.8304 35.4256 37.817 35.427 37.8034 35.428C37.7899 35.4289 37.7764 35.4296 37.7628 35.4305L37.7222 35.433L37.6817 35.4352C37.6682 35.4358 37.6546 35.4361 37.6411 35.4366C37.6276 35.4371 37.614 35.4378 37.6005 35.4382C37.587 35.4385 37.5735 35.4387 37.5599 35.4389L37.5193 35.4395C37.5067 35.4396 37.4941 35.4399 37.4815 35.4399H37.4788H37.4382H37.3976H37.357H37.3164H37.2759H37.2353H37.1947H37.1541H37.1136H37.073H37.0324H36.9918H36.9512H36.9107H36.8701H36.8295H36.7889H36.7483H36.7077H36.6672H36.6266H36.586H36.5455H36.5049H36.4643H36.4237H36.3831H36.3425H36.3019H36.2614H36.2208H36.1802H36.1396H36.099H36.0585H36.0179H35.9773H35.9367H35.8962H35.8556H35.815H35.7744H35.7338H35.6933H35.6527H35.6121H35.5715H35.5309H35.4904H35.4498H35.4092H35.3686H35.328H35.2874H35.2469H35.2063H35.1657H35.1251H35.0846H35.044H35.0034H34.9628H34.9222H34.8817H34.8411H34.8005H34.7599H34.7193H34.6787H34.6382H34.5976H34.557H34.5164H34.4759H34.4353H34.3947H34.3541H34.3135H34.273H34.2324H34.1918H34.1512H34.1106H34.07H34.0295H33.9889H33.9483H33.9077H33.8672H33.8266H33.786H33.7454H33.7048H33.6643H33.6237H33.5831H33.5425H33.5019H33.4614H33.4208H33.3802H33.3396H33.2991H33.2585H33.2179H33.1773H33.1367H33.0961H33.0556H33.015H32.9744H32.9338H32.8932H32.8527H32.8121H32.7715H32.7309H32.6903H32.6497H32.6092H32.5686H32.528H32.4874H32.4469H32.4063H32.3657H32.3252H32.2846H32.244H32.2034H32.1628H32.1222H32.0817H32.0411H32.0005H31.9599H31.9194H31.8788H31.8382H31.7976H31.757H31.7165H31.6759H31.6353H31.5947H31.5541H31.5136H31.473H31.4324H31.3918H31.3047V25.8658C31.3331 25.8899 31.3622 25.9136 31.3918 25.9371C31.4052 25.9478 31.4188 25.9584 31.4324 25.969C31.4458 25.9794 31.4593 25.9898 31.473 26.0001C31.4865 26.0102 31.4999 26.0204 31.5136 26.0305C31.5269 26.0403 31.5406 26.05 31.5541 26.0598C31.5675 26.0694 31.5811 26.079 31.5947 26.0885C31.6082 26.0979 31.6217 26.1073 31.6353 26.1166L31.6759 26.144C31.6893 26.1529 31.7029 26.1618 31.7165 26.1706L31.757 26.1967C31.7705 26.2052 31.784 26.2137 31.7976 26.2222C31.811 26.2305 31.8246 26.2387 31.8382 26.247L31.8788 26.2713C31.8923 26.2792 31.9057 26.2872 31.9194 26.2951C31.9328 26.3028 31.9463 26.3104 31.9599 26.3181L32.0005 26.3408L32.0411 26.363L32.0817 26.3846C32.0952 26.3917 32.1086 26.3989 32.1222 26.4059C32.1357 26.4128 32.1493 26.4196 32.1628 26.4264L32.2034 26.4468L32.244 26.4666L32.2846 26.4859C32.2981 26.4923 32.3115 26.4987 32.3252 26.505L32.3657 26.5235L32.4063 26.5418L32.4469 26.5594L32.4874 26.5769L32.528 26.5939L32.5686 26.6106L32.6092 26.627L32.6497 26.6429L32.6903 26.6587L32.7309 26.6739C32.7444 26.6789 32.7579 26.684 32.7715 26.689L32.8121 26.7036C32.8256 26.7084 32.839 26.7134 32.8527 26.7181C32.8661 26.7228 32.8797 26.7274 32.8932 26.732L32.9338 26.746L32.9744 26.7593C32.9879 26.7638 33.0013 26.7683 33.015 26.7727C33.0284 26.777 33.042 26.7812 33.0556 26.7855L33.0961 26.7983L33.1367 26.8106L33.1773 26.8228L33.2179 26.8346L33.2585 26.8463L33.2991 26.8576L33.3396 26.8688L33.3802 26.8797L33.4208 26.8903L33.4614 26.9008L33.5019 26.911L33.5425 26.921L33.5831 26.9307L33.6237 26.9404L33.6643 26.9496L33.7048 26.9588L33.7454 26.9677L33.786 26.9764L33.8266 26.985L33.8672 26.9932L33.9077 27.0015L33.9483 27.0093L33.9889 27.0171L34.0295 27.0246L34.07 27.032L34.1106 27.0393L34.1512 27.0462L34.1918 27.0531L34.2324 27.0598L34.273 27.0663L34.3135 27.0727L34.3541 27.0788L34.3947 27.0849L34.4353 27.0908L34.4759 27.0964L34.5164 27.1021L34.557 27.1073L34.5976 27.1126L34.6382 27.1177L34.6787 27.1226L34.7193 27.1275L34.7599 27.1321L34.8005 27.1366L34.8411 27.141L34.8817 27.1452L34.9222 27.1493L34.9628 27.1533L35.0034 27.157L35.044 27.1607L35.0846 27.1643L35.1251 27.1676L35.1657 27.171L35.2063 27.1741L35.2469 27.1771L35.2874 27.1802L35.328 27.1829L35.3686 27.1856L35.4092 27.1882L35.4498 27.1905L35.4904 27.1929L35.5309 27.1951L35.5715 27.1971L35.6121 27.1991L35.6527 27.2011L35.6933 27.2027L35.7338 27.2043L35.7744 27.2059L35.815 27.2073L35.8556 27.2086L35.8962 27.2099L35.9367 27.2109L35.9773 27.2119L36.0179 27.2129L36.0585 27.2136L36.099 27.2142L36.1396 27.2149L36.1802 27.2153L36.2208 27.2157L36.2614 27.216L36.3019 27.2162L36.3425 27.2163L36.3831 27.2163L36.4237 27.2162L36.4643 27.216L36.5049 27.2158L36.5455 27.2155L36.586 27.2149L36.6266 27.2144L36.6672 27.2139L36.7077 27.213L36.7483 27.2122L36.7889 27.2114L36.8295 27.2104L36.8701 27.2093L36.9107 27.2082L36.9512 27.207L36.9918 27.2056L37.0324 27.2042L37.073 27.2028L37.1136 27.2012L37.1541 27.1995L37.1947 27.1978L37.2145 27.197L37.2353 27.196L37.2759 27.1941L37.3164 27.192L37.357 27.1898L37.3976 27.1874L37.4382 27.1849L37.4788 27.1822L37.5193 27.1795L37.5599 27.1765L37.6005 27.1736L37.6411 27.1704L37.6817 27.1671L37.7222 27.1637L37.7628 27.1602L37.8034 27.1566L37.844 27.1528L37.8846 27.149L37.9251 27.145L37.9657 27.1409L38.0063 27.1367L38.0469 27.1324L38.0875 27.128L38.128 27.1235L38.1686 27.1189L38.2092 27.1142L38.2498 27.1094L38.2904 27.1045L38.331 27.0994L38.3715 27.0943L38.4121 27.0892L38.4527 27.0839L38.4933 27.0785L38.5339 27.073L38.5744 27.0674L38.615 27.0618L38.6556 27.056L38.6962 27.0502L38.7367 27.0442L38.7773 27.0382L38.8179 27.0322L38.8585 27.026L38.8991 27.0197L38.9396 27.0133L38.9802 27.0069L39.0208 27.0004L39.0614 26.9938L39.102 26.9871L39.1426 26.9804L39.1831 26.9735L39.2237 26.9666L39.2643 26.9596L39.3049 26.9525L39.3454 26.9453L39.386 26.9381L39.4266 26.9308L39.4672 26.9234L39.5078 26.9159L39.5483 26.9083L39.5889 26.9007L39.6295 26.893L39.6701 26.8852L39.7107 26.8774L39.7513 26.8694L39.7918 26.8614L39.8324 26.8533L39.873 26.8451L39.9135 26.8368L39.9541 26.8285L39.9947 26.8201L40.0353 26.8115L40.0759 26.803L40.1165 26.7943L40.157 26.7855L40.1976 26.7767L40.2382 26.7678L40.2788 26.7587L40.3194 26.7495L40.36 26.7403L40.4005 26.7309L40.4411 26.7214L40.4817 26.7118L40.522 26.702V24.9479L40.4817 24.9677L40.4411 24.9874L40.4005 25.0069L40.36 25.0263L40.3194 25.0456L40.2788 25.0646L40.2382 25.0833L40.1976 25.102L40.157 25.1204L40.1165 25.1386L40.0759 25.1567L40.0353 25.1745L39.9947 25.1921L39.9541 25.2095L39.9135 25.2267L39.873 25.2437L39.8324 25.2604L39.7918 25.277L39.7513 25.2934L39.7107 25.3095L39.6701 25.3254L39.6295 25.3411L39.5889 25.3565L39.5483 25.3718L39.5078 25.3868L39.4672 25.4016L39.4266 25.4162L39.386 25.4305L39.3454 25.4447L39.3049 25.4586L39.2643 25.4722L39.2237 25.4856L39.1831 25.4989L39.1426 25.5118L39.102 25.5246L39.0614 25.5371L39.0208 25.5494L38.9802 25.5615L38.9396 25.5734L38.8991 25.585L38.8585 25.5964L38.8179 25.6075L38.7773 25.6184L38.7367 25.6292L38.6962 25.6396L38.6556 25.6499L38.615 25.6599L38.5744 25.6697L38.5339 25.6793L38.4933 25.6887L38.4527 25.6978L38.4121 25.7067L38.3715 25.7154L38.331 25.7238L38.2904 25.732L38.2498 25.7401L38.2092 25.7479L38.1686 25.7554L38.128 25.7627L38.0875 25.7699L38.0469 25.7768L38.0063 25.7834L37.9657 25.7899L37.9251 25.7962L37.8846 25.8022L37.844 25.808L37.8034 25.8137L37.7628 25.819L37.7222 25.8242L37.6817 25.8292L37.6411 25.8339L37.6005 25.8384L37.5599 25.8428L37.5193 25.8469L37.4788 25.8507L37.4382 25.8545L37.3976 25.858L37.357 25.8612L37.3324 25.8632L37.3164 25.8642L37.2759 25.8669L37.2353 25.8696L37.1947 25.8717L37.1541 25.8737L37.1136 25.8756L37.073 25.8769L37.0324 25.8782L36.9918 25.879L36.9512 25.8796L36.9107 25.8801C36.8971 25.8802 36.8836 25.88 36.8701 25.88L36.8295 25.8799L36.7889 25.8793L36.7483 25.8784L36.7077 25.8774C36.6941 25.877 36.6807 25.8763 36.6672 25.8758C36.6537 25.8752 36.6401 25.8748 36.6266 25.8741L36.586 25.8719L36.5455 25.8695L36.5049 25.8668L36.4643 25.8636C36.4507 25.8625 36.4371 25.8616 36.4237 25.8603C36.4101 25.8591 36.3966 25.8576 36.3831 25.8563L36.3425 25.8523L36.3019 25.8477L36.2614 25.8428L36.2208 25.8375L36.1802 25.8319C36.1667 25.8299 36.1531 25.828 36.1396 25.8259C36.126 25.8238 36.1126 25.8216 36.099 25.8193C36.0855 25.8171 36.0719 25.8151 36.0585 25.8127C36.0448 25.8103 36.0314 25.8077 36.0179 25.8052C36.0044 25.8027 35.9907 25.8004 35.9773 25.7977C35.9637 25.7951 35.9503 25.7922 35.9367 25.7894C35.9232 25.7866 35.9096 25.7839 35.8962 25.781C35.8825 25.778 35.8691 25.7749 35.8556 25.7718L35.815 25.7624C35.8014 25.7592 35.7879 25.7557 35.7744 25.7523C35.7608 25.7489 35.7473 25.7455 35.7338 25.742C35.7202 25.7384 35.7067 25.7346 35.6933 25.7309C35.6797 25.7272 35.6661 25.7234 35.6527 25.7195C35.6391 25.7156 35.6256 25.7115 35.6121 25.7074C35.5985 25.7033 35.585 25.6992 35.5715 25.6949C35.5579 25.6906 35.5444 25.6862 35.5309 25.6817C35.5174 25.6773 35.5038 25.6728 35.4904 25.6682C35.4767 25.6635 35.4633 25.6586 35.4498 25.6538C35.4362 25.6489 35.4226 25.6441 35.4092 25.6391C35.3956 25.634 35.3821 25.6287 35.3686 25.6234C35.3551 25.6181 35.3415 25.6129 35.328 25.6075C35.3144 25.602 35.301 25.5962 35.2874 25.5904C35.2739 25.5847 35.2603 25.579 35.2469 25.5731C35.2332 25.5671 35.2198 25.5609 35.2063 25.5547C35.1927 25.5485 35.1791 25.5422 35.1657 25.5359C35.1521 25.5294 35.1386 25.5228 35.1251 25.5161C35.1115 25.5093 35.098 25.5025 35.0846 25.4955C35.071 25.4885 35.0573 25.4816 35.044 25.4744C35.0303 25.4671 35.0169 25.4595 35.0034 25.452C34.9898 25.4444 34.9762 25.4368 34.9628 25.429C34.9492 25.4211 34.9357 25.413 34.9222 25.4049C34.9086 25.3967 34.8951 25.3883 34.8817 25.3798C34.8681 25.3713 34.8544 25.3628 34.8411 25.3541C34.8274 25.3451 34.814 25.3359 34.8005 25.3267C34.7869 25.3174 34.7733 25.308 34.7599 25.2985C34.7463 25.2888 34.7327 25.2792 34.7193 25.2693C34.7056 25.2591 34.6922 25.2487 34.6787 25.2384C34.6651 25.2278 34.6516 25.2172 34.6382 25.2064C34.6246 25.1954 34.6109 25.1845 34.5976 25.1733C34.5839 25.1617 34.5704 25.15 34.557 25.1381C34.5433 25.1261 34.5298 25.1139 34.5164 25.1016C34.5028 25.089 34.4892 25.0763 34.4759 25.0635C34.4622 25.0503 34.4486 25.0372 34.4353 25.0238C34.4215 25.0099 34.4081 24.9957 34.3947 24.9815C34.3809 24.967 34.3675 24.9522 34.3541 24.9373C34.3404 24.922 34.3268 24.9065 34.3135 24.8908C34.2998 24.8747 34.2863 24.8584 34.273 24.8419C34.2592 24.8249 34.2456 24.8076 34.2324 24.7902C34.2186 24.7722 34.205 24.7539 34.1918 24.7355C34.178 24.7163 34.1644 24.6969 34.1512 24.6772C34.1374 24.6566 34.1239 24.6359 34.1106 24.6149C34.0968 24.5929 34.0833 24.5705 34.07 24.548C34.0561 24.5243 34.0427 24.5002 34.0295 24.4759C34.0155 24.4501 34.002 24.424 33.9889 24.3976C33.9749 24.3694 33.9614 24.3409 33.9483 24.3121C33.9343 24.2811 33.9207 24.2498 33.9077 24.2179C33.8934 24.1827 33.8801 24.1468 33.8672 24.1106C33.8528 24.0704 33.8393 24.0298 33.8266 23.9884C33.8119 23.9404 33.7984 23.8916 33.786 23.8419C33.7706 23.7802 33.7572 23.7171 33.7454 23.6529C33.7279 23.5577 33.7143 23.4599 33.7048 23.3593C33.6939 23.2433 33.6883 23.1237 33.6883 23.0007C33.6883 22.8776 33.6939 22.7579 33.7048 22.6417C33.7143 22.5412 33.7279 22.4433 33.7454 22.348C33.7572 22.2838 33.7706 22.2206 33.786 22.1589C33.7984 22.1093 33.8119 22.0605 33.8266 22.0124C33.8393 21.971 33.8528 21.9303 33.8672 21.8901C33.8801 21.8539 33.8934 21.818 33.9077 21.7827C33.9207 21.7509 33.9343 21.7195 33.9483 21.6885C33.9614 21.6596 33.9749 21.6311 33.9889 21.603C34.002 21.5766 34.0155 21.5504 34.0295 21.5246C34.0427 21.5003 34.0561 21.4762 34.07 21.4525C34.0833 21.4299 34.0968 21.4076 34.1106 21.3856C34.1239 21.3645 34.1374 21.3438 34.1512 21.3232C34.1644 21.3036 34.178 21.2842 34.1918 21.2649C34.205 21.2464 34.2186 21.2282 34.2324 21.2102C34.2456 21.1927 34.2592 21.1755 34.273 21.1584C34.2863 21.1419 34.2998 21.1256 34.3135 21.1095C34.3268 21.0938 34.3404 21.0783 34.3541 21.063C34.3675 21.0481 34.3809 21.0333 34.3947 21.0187C34.4081 21.0046 34.4215 20.9904 34.4353 20.9765C34.4486 20.9631 34.4622 20.9499 34.4759 20.9368C34.4892 20.9239 34.5028 20.9112 34.5164 20.8987C34.5298 20.8864 34.5433 20.8741 34.557 20.862C34.5704 20.8503 34.5839 20.8385 34.5976 20.8269C34.6109 20.8157 34.6246 20.8048 34.6382 20.7938C34.6516 20.783 34.6651 20.7723 34.6787 20.7618C34.6922 20.7514 34.7056 20.741 34.7193 20.7309C34.7327 20.721 34.7463 20.7113 34.7599 20.7017C34.7733 20.6921 34.7869 20.6828 34.8005 20.6734C34.814 20.6642 34.8274 20.655 34.8411 20.646C34.8544 20.6373 34.8681 20.6288 34.8817 20.6203C34.8951 20.6118 34.9086 20.6034 34.9222 20.5952C34.9357 20.587 34.9492 20.579 34.9628 20.5711C34.9762 20.5633 34.9898 20.5557 35.0034 20.5481C35.0169 20.5406 35.0303 20.533 35.044 20.5257C35.0573 20.5185 35.071 20.5115 35.0846 20.5045C35.098 20.4976 35.1115 20.4907 35.1251 20.484C35.1386 20.4773 35.1521 20.4707 35.1657 20.4642C35.1791 20.4578 35.1927 20.4515 35.2063 20.4453C35.2198 20.4391 35.2332 20.4329 35.2469 20.4269C35.2603 20.421 35.2739 20.4153 35.2874 20.4096C35.301 20.4038 35.3144 20.3981 35.328 20.3925C35.3415 20.3871 35.3551 20.3819 35.3686 20.3766C35.3821 20.3713 35.3956 20.366 35.4092 20.3609C35.4226 20.3559 35.4362 20.3511 35.4498 20.3462C35.4633 20.3414 35.4767 20.3365 35.4904 20.3318C35.5038 20.3272 35.5174 20.3227 35.5309 20.3182C35.5444 20.3138 35.5579 20.3093 35.5715 20.305C35.585 20.3008 35.5985 20.2967 35.6121 20.2925C35.6256 20.2885 35.6391 20.2844 35.6527 20.2805L35.6933 20.2691C35.7067 20.2653 35.7202 20.2616 35.7338 20.258C35.7473 20.2544 35.7608 20.251 35.7744 20.2476C35.7879 20.2442 35.8014 20.2408 35.815 20.2375L35.8556 20.2282C35.8691 20.2251 35.8825 20.2219 35.8962 20.219C35.9096 20.2161 35.9232 20.2133 35.9367 20.2105C35.9503 20.2078 35.9637 20.2048 35.9773 20.2022C35.9907 20.1996 36.0044 20.1972 36.0179 20.1947C36.0314 20.1922 36.0448 20.1896 36.0585 20.1872C36.0719 20.1849 36.0855 20.1828 36.099 20.1806C36.1126 20.1784 36.126 20.1761 36.1396 20.174L36.1802 20.1681L36.2208 20.1623L36.2614 20.1571L36.3019 20.1522L36.3425 20.1476L36.3831 20.1436C36.3966 20.1422 36.4101 20.1408 36.4237 20.1396C36.4371 20.1383 36.4507 20.1374 36.4643 20.1363L36.5049 20.1331L36.5455 20.1304L36.586 20.128L36.6266 20.1258C36.6401 20.1251 36.6537 20.1247 36.6672 20.1241C36.6807 20.1236 36.6941 20.1229 36.7077 20.1225L36.7483 20.1215L36.7889 20.1206L36.8295 20.12L36.8701 20.1199C36.8836 20.1199 36.8971 20.1197 36.9107 20.1198L36.9512 20.1202L36.9918 20.1208L37.0324 20.1217L37.073 20.123L37.1136 20.1243L37.1541 20.1262L37.1947 20.1282L37.2353 20.1303L37.2759 20.133L37.3164 20.1357L37.3324 20.1367L37.357 20.1387L37.3976 20.1418L37.4382 20.1453L37.4788 20.1489L37.5193 20.1528L37.5599 20.1568L37.6005 20.1611L37.6411 20.1656L37.6817 20.1702L37.7222 20.1751L37.7628 20.1802L37.8034 20.1855L37.844 20.1911L37.8846 20.1968L37.9251 20.2028L37.9657 20.209L38.0063 20.2154L38.0469 20.2219L38.0875 20.2288L38.128 20.2359L38.1686 20.2431L38.2092 20.2506L38.2498 20.2583L38.2904 20.2662L38.331 20.2744L38.3715 20.2828L38.4121 20.2914L38.4527 20.3003L38.4933 20.3093L38.5339 20.3186L38.5744 20.3281L38.615 20.3379L38.6556 20.3478L38.6962 20.3581L38.7367 20.3685L38.7773 20.3792L38.8179 20.3901L38.8585 20.4012L38.8991 20.4126L38.9396 20.4242L38.9802 20.436L39.0208 20.4481L39.0614 20.4604L39.102 20.4729L39.1426 20.4856L39.1831 20.4986L39.2237 20.5119L39.2643 20.5253L39.3049 20.539L39.3454 20.5529L39.386 20.5671L39.4266 20.5815L39.4672 20.5961L39.5078 20.611L39.5483 20.6261L39.5889 20.6414L39.6295 20.6569L39.6701 20.6727L39.7107 20.6887L39.7513 20.7049L39.7918 20.7213L39.8324 20.738L39.873 20.7549L39.9135 20.772L39.9541 20.7893L39.9947 20.8069L40.0353 20.8246L40.0759 20.8426L40.1165 20.8608L40.157 20.8791L40.1976 20.8977L40.2382 20.9165L40.2788 20.9355L40.3194 20.9547L40.36 20.974L40.4005 20.9936L40.4411 21.0133L40.4817 21.0333L40.522 21.0533V19.2979L40.4817 19.2881L40.4411 19.2785L40.4005 19.269L40.36 19.2596L40.3194 19.2503L40.2788 19.2412L40.2382 19.2322L40.1976 19.2232L40.157 19.2144L40.1165 19.2056L40.0759 19.1969L40.0353 19.1884L39.9947 19.1798L39.9541 19.1714L39.9135 19.1631L39.873 19.1548L39.8324 19.1466L39.7918 19.1386L39.7513 19.1305L39.7107 19.1226L39.6701 19.1148L39.6295 19.1069L39.5889 19.0992L39.5483 19.0916L39.5078 19.0841L39.4672 19.0766L39.4266 19.0692L39.386 19.0619L39.3454 19.0547L39.3049 19.0475L39.2643 19.0405L39.2237 19.0335L39.1831 19.0265L39.1426 19.0197L39.102 19.013L39.0614 19.0063L39.0208 18.9997L38.9802 18.9932L38.9396 18.9868L38.8991 18.9804L38.8585 18.9742L38.8179 18.968L38.7773 18.9619L38.7367 18.9559L38.6962 18.95L38.6556 18.9442L38.615 18.9384L38.5744 18.9328L38.5339 18.9272L38.4933 18.9218L38.4527 18.9164L38.4121 18.9111L38.3715 18.9059L38.331 18.9008L38.2904 18.8958L38.2498 18.8909L38.2092 18.8861L38.1686 18.8815L38.128 18.8769L38.0875 18.8724L38.0469 18.868L38.0063 18.8637L37.9657 18.8595L37.9251 18.8555L37.8846 18.8515L37.844 18.8477L37.8034 18.8439L37.7628 18.8403L37.7222 18.8368L37.6817 18.8334L37.6411 18.8302L37.6005 18.827L37.5599 18.8241L37.5193 18.8211L37.4788 18.8184L37.4382 18.8158L37.3976 18.8133L37.357 18.8109L37.3164 18.8088L37.2759 18.8067L37.2353 18.8047L37.2145 18.8038L37.1947 18.8029L37.1541 18.8013L37.1136 18.7996L37.073 18.798L37.0324 18.7966L36.9918 18.7952L36.9512 18.7938L36.9107 18.7926L36.8701 18.7915L36.8295 18.7904L36.7889 18.7894L36.7483 18.7886L36.7077 18.7878L36.6672 18.7869L36.6266 18.7864L36.586 18.7859L36.5455 18.7853L36.5049 18.785L36.4643 18.7848L36.4237 18.7846L36.3831 18.7845L36.3425 18.7845L36.3019 18.7846L36.2614 18.7847L36.2208 18.7851L36.1802 18.7855L36.1396 18.7859L36.099 18.7866L36.0585 18.7873L36.0179 18.788L35.9773 18.789L35.9367 18.7899L35.8962 18.7909L35.8556 18.7922L35.815 18.7936L35.7744 18.7949L35.7338 18.7965L35.6933 18.7982L35.6527 18.7998L35.6121 18.8018L35.5715 18.8037L35.5309 18.8057L35.4904 18.808L35.4498 18.8103L35.4092 18.8126L35.3686 18.8153L35.328 18.818L35.2874 18.8207L35.2469 18.8237L35.2063 18.8267L35.1657 18.8299L35.1251 18.8332L35.0846 18.8366L35.044 18.8401L35.0034 18.8439L34.9628 18.8476L34.9222 18.8516L34.8817 18.8558L34.8411 18.8599L34.8005 18.8644L34.7599 18.8688L34.7193 18.8734L34.6787 18.8783L34.6382 18.8832L34.5976 18.8883L34.557 18.8936L34.5164 18.8989L34.4759 18.9045L34.4353 18.9102L34.3947 18.916L34.3541 18.9221L34.3135 18.9282L34.273 18.9346L34.2324 18.9412L34.1918 18.9478L34.1512 18.9547L34.1106 18.9617L34.07 18.969L34.0295 18.9764L33.9889 18.9839L33.9483 18.9917L33.9077 18.9996L33.8672 19.0078L33.8266 19.0161L33.786 19.0246L33.7454 19.0334L33.7048 19.0423L33.6643 19.0514L33.6237 19.0607L33.5831 19.0704L33.5425 19.08L33.5019 19.0901L33.4614 19.1003L33.4208 19.1108L33.3802 19.1214L33.3396 19.1323L33.2991 19.1435L33.2585 19.1548L33.2179 19.1666L33.1773 19.1783L33.1367 19.1906L33.0961 19.2029L33.0556 19.2157C33.042 19.22 33.0284 19.2241 33.015 19.2285L32.9744 19.2419C32.9609 19.2463 32.9472 19.2507 32.9338 19.2552L32.8932 19.2692L32.8527 19.2831C32.839 19.2879 32.8256 19.2928 32.8121 19.2976C32.7985 19.3025 32.7849 19.3073 32.7715 19.3122L32.7309 19.3274C32.7174 19.3324 32.7038 19.3374 32.6903 19.3426L32.6497 19.3584L32.6092 19.3743L32.5686 19.3907L32.528 19.4073L32.4874 19.4244L32.4469 19.4418L32.4063 19.4596L32.3657 19.4778L32.3252 19.4963C32.3115 19.5026 32.2981 19.509 32.2846 19.5154L32.244 19.5347L32.2034 19.5546L32.1628 19.5749C32.1493 19.5818 32.1357 19.5886 32.1222 19.5955C32.1086 19.6025 32.0952 19.6097 32.0817 19.6168L32.0411 19.6385L32.0005 19.6606C31.9869 19.6681 31.9734 19.6757 31.9599 19.6833C31.9463 19.691 31.9328 19.6986 31.9194 19.7064C31.9057 19.7143 31.8923 19.7222 31.8788 19.7302C31.8651 19.7382 31.8516 19.7464 31.8382 19.7545C31.8246 19.7628 31.811 19.771 31.7976 19.7793C31.784 19.7877 31.7705 19.7963 31.757 19.8048L31.7165 19.8309C31.7029 19.8398 31.6893 19.8486 31.6759 19.8575L31.6353 19.8849C31.6217 19.8942 31.6082 19.9036 31.5947 19.913C31.5811 19.9225 31.5675 19.9321 31.5541 19.9418C31.5406 19.9515 31.5269 19.9613 31.5136 19.9711C31.4999 19.9812 31.4865 19.9913 31.473 20.0015C31.4593 20.0118 31.4458 20.0222 31.4324 20.0326C31.4188 20.0432 31.4052 20.0538 31.3918 20.0645V20.0645Z" fill="url(#paint2_linear_1252_462)"/>
</g>
</g>
</g>
<defs>
<linearGradient id="paint0_linear_1252_462" x1="42.957" y1="23" x2="53.346" y2="23" gradientUnits="userSpaceOnUse">
<stop stop-color="#007B40"/>
<stop offset="1" stop-color="#55B330"/>
</linearGradient>
<linearGradient id="paint1_linear_1252_462" x1="19.6543" y1="23" x2="30.0421" y2="23" gradientUnits="userSpaceOnUse">
<stop stop-color="#1D2970"/>
<stop offset="1" stop-color="#006DBA"/>
</linearGradient>
<linearGradient id="paint2_linear_1252_462" x1="31.3047" y1="23" x2="41.6929" y2="23" gradientUnits="userSpaceOnUse">
<stop stop-color="#6E2B2F"/>
<stop offset="1" stop-color="#E30138"/>
</linearGradient>
</defs>
</svg>
