<svg width="73" height="47" viewBox="0 0 73 47" fill="none" xmlns="http://www.w3.org/2000/svg">
<g id="MasterCard">
<g id="MasterCard_2">
<rect id="Rectangle" width="73" height="47" rx="3" fill="#0F3560"/>
<g id="Group">
<g id="Group_2">
<path id="Vector" d="M42.8695 35.0509H30.0957V11.9565H42.8695V35.0509Z" fill="#FF5F00"/>
<g id="Group_3">
<path id="Vector_2" d="M30.9138 23.502C30.9138 18.8172 33.0942 14.6441 36.4896 11.9548C34.0066 9.98822 30.8729 8.81446 27.4673 8.81446C19.4047 8.81446 12.8691 15.3902 12.8691 23.502C12.8691 31.6137 19.4047 38.1895 27.4673 38.1895C30.8729 38.1895 34.0066 37.0157 36.4896 35.0491C33.0942 32.3598 30.9138 28.1868 30.9138 23.502Z" fill="#EB001B"/>
</g>
<g id="Group_4">
<path id="Vector_3" d="M60.0979 23.502C60.0979 31.6137 53.5623 38.1895 45.4998 38.1895C42.0942 38.1895 38.9605 37.0157 36.4766 35.0491C39.8729 32.3598 42.0533 28.1868 42.0533 23.502C42.0533 18.8172 39.8729 14.6441 36.4766 11.9548C38.9605 9.98822 42.0942 8.81446 45.4998 8.81446C53.5623 8.81446 60.0979 15.3902 60.0979 23.502Z" fill="#F79E1B"/>
</g>
</g>
<g id="Group_5">
<path id="Vector_4" d="M23.8542 23.5949C23.8542 22.9534 24.2721 22.4264 24.955 22.4264C25.6075 22.4264 26.048 22.9307 26.048 23.5949C26.048 24.2592 25.6075 24.7635 24.955 24.7635C24.2721 24.7635 23.8542 24.2365 23.8542 23.5949ZM26.7917 23.5949V21.77H26.0028V22.2131C25.7526 21.8845 25.3729 21.6782 24.8568 21.6782C23.8394 21.6782 23.0418 22.4805 23.0418 23.5949C23.0418 24.7102 23.8394 25.5117 24.8568 25.5117C25.3729 25.5117 25.7526 25.3054 26.0028 24.9768V25.4199H26.7917V23.5949ZM53.451 23.5949C53.451 22.9534 53.8689 22.4264 54.5518 22.4264C55.2052 22.4264 55.6448 22.9307 55.6448 23.5949C55.6448 24.2592 55.2052 24.7635 54.5518 24.7635C53.8689 24.7635 53.451 24.2365 53.451 23.5949ZM56.3894 23.5949V20.3042H55.5996V22.2131C55.3494 21.8845 54.9697 21.6782 54.4536 21.6782C53.4362 21.6782 52.6386 22.4805 52.6386 23.5949C52.6386 24.7102 53.4362 25.5117 54.4536 25.5117C54.9697 25.5117 55.3494 25.3054 55.5996 24.9768V25.4199H56.3894V23.5949ZM36.5843 22.3888C37.0926 22.3888 37.4193 22.7095 37.5027 23.2742H35.6199C35.7042 22.7471 36.0222 22.3888 36.5843 22.3888ZM36.6 21.6782C35.5365 21.6782 34.7928 22.4569 34.7928 23.5949C34.7928 24.7557 35.5669 25.5117 36.653 25.5117C37.1994 25.5117 37.6999 25.3745 38.1404 25.0004L37.7538 24.4122C37.4497 24.656 37.0622 24.7941 36.6981 24.7941C36.1899 24.7941 35.7268 24.5573 35.613 23.9H38.3072C38.315 23.8012 38.3229 23.7016 38.3229 23.5949C38.315 22.4569 37.6165 21.6782 36.6 21.6782ZM46.1258 23.5949C46.1258 22.9534 46.5438 22.4264 47.2267 22.4264C47.8792 22.4264 48.3197 22.9307 48.3197 23.5949C48.3197 24.2592 47.8792 24.7635 47.2267 24.7635C46.5438 24.7635 46.1258 24.2365 46.1258 23.5949ZM49.0634 23.5949V21.77H48.2745V22.2131C48.0234 21.8845 47.6446 21.6782 47.1285 21.6782C46.1111 21.6782 45.3135 22.4805 45.3135 23.5949C45.3135 24.7102 46.1111 25.5117 47.1285 25.5117C47.6446 25.5117 48.0234 25.3054 48.2745 24.9768V25.4199H49.0634V23.5949ZM41.6705 23.5949C41.6705 24.7024 42.4368 25.5117 43.6062 25.5117C44.1527 25.5117 44.5168 25.3894 44.9112 25.0764L44.5324 24.4349C44.2361 24.649 43.9251 24.7635 43.5828 24.7635C42.9529 24.7557 42.4898 24.2977 42.4898 23.5949C42.4898 22.8922 42.9529 22.4342 43.5828 22.4264C43.9251 22.4264 44.2361 22.5409 44.5324 22.755L44.9112 22.1134C44.5168 21.8005 44.1527 21.6782 43.6062 21.6782C42.4368 21.6782 41.6705 22.4875 41.6705 23.5949ZM51.8419 21.6782C51.3866 21.6782 51.0904 21.8923 50.8853 22.2131V21.77H50.1034V25.4199H50.8931V23.3738C50.8931 22.7699 51.1512 22.4342 51.6673 22.4342C51.8271 22.4342 51.994 22.4569 52.1608 22.526L52.404 21.7778C52.2294 21.7088 52.0018 21.6782 51.8419 21.6782ZM30.6936 22.0601C30.3139 21.8084 29.7909 21.6782 29.214 21.6782C28.2948 21.6782 27.7031 22.1213 27.7031 22.8468C27.7031 23.442 28.1436 23.8091 28.9551 23.9236L29.3278 23.9769C29.7605 24.0381 29.9647 24.1526 29.9647 24.3589C29.9647 24.6412 29.6762 24.802 29.1375 24.802C28.591 24.802 28.1966 24.6263 27.9307 24.42L27.5589 25.038C27.9915 25.3588 28.538 25.5117 29.1297 25.5117C30.1775 25.5117 30.7848 25.0153 30.7848 24.3204C30.7848 23.6789 30.307 23.3432 29.5172 23.2287L29.1454 23.1745C28.8039 23.1291 28.5302 23.0609 28.5302 22.8162C28.5302 22.5487 28.7883 22.3888 29.2209 22.3888C29.684 22.3888 30.1324 22.5645 30.3522 22.7017L30.6936 22.0601ZM40.8729 21.6782C40.4176 21.6782 40.1213 21.8923 39.9172 22.2131V21.77H39.1352V25.4199H39.9241V23.3738C39.9241 22.7699 40.1822 22.4342 40.6982 22.4342C40.8581 22.4342 41.0249 22.4569 41.1917 22.526L41.435 21.7778C41.2604 21.7088 41.0327 21.6782 40.8729 21.6782ZM34.1403 21.77H32.8501V20.6625H32.0525V21.77H31.3166V22.4954H32.0525V24.1605C32.0525 25.0074 32.3792 25.5117 33.3123 25.5117C33.6546 25.5117 34.0491 25.4051 34.2993 25.2294L34.0716 24.5494C33.8362 24.6866 33.5782 24.7557 33.3731 24.7557C32.9787 24.7557 32.8501 24.5109 32.8501 24.1447V22.4954H34.1403V21.77ZM22.3441 25.4199V23.1291C22.3441 22.2664 21.7976 21.686 20.9166 21.6782C20.4535 21.6703 19.9757 21.8154 19.6412 22.3276C19.391 21.9229 18.9965 21.6782 18.4422 21.6782C18.0547 21.6782 17.6759 21.7927 17.3796 22.2201V21.77H16.5898V25.4199H17.3866V23.3965C17.3866 22.7629 17.7358 22.4264 18.2754 22.4264C18.7993 22.4264 19.0643 22.7699 19.0643 23.3887V25.4199H19.8619V23.3965C19.8619 22.7629 20.2259 22.4264 20.7498 22.4264C21.2885 22.4264 21.5465 22.7699 21.5465 23.3887V25.4199H22.3441Z" fill="white"/>
</g>
</g>
</g>
</g>
</svg>
