<svg width="16" height="16" viewBox="0 0 16 16" fill="none" xmlns="http://www.w3.org/2000/svg">
<g clip-path="url(#clip0_1225_1)">
<path d="M8.24041 0.0666437C8.0921 -0.0221687 7.90807 -0.0221687 7.75975 0.0666124C7.71122 0.0955186 6.86522 0.641799 6.0791 1.45458C6.62716 1.7182 7.33472 2.12705 8.0006 2.67729C8.66613 2.12723 9.37344 1.71839 9.92134 1.45483C9.13506 0.64183 8.28894 0.0955186 8.24041 0.0666437Z" fill="#81B751"/>
<path d="M11.6547 2.08816C11.5288 1.94491 11.3278 1.89135 11.1502 1.95313C11.0873 1.97463 9.96432 2.3661 8.89307 3.15885C9.2131 3.38503 10.126 4.0765 10.9217 5.10281C11.8183 4.67456 12.646 4.46731 13.0589 4.38366C12.5284 3.10028 11.7012 2.14147 11.6547 2.08816Z" fill="#81B751"/>
<path d="M4.85067 1.95311C4.67352 1.8927 4.47211 1.94533 4.34624 2.08861C4.2997 2.14161 3.47249 3.10073 2.94189 4.38414C3.35921 4.46882 4.18514 4.67664 5.07808 5.10282C5.87448 4.07573 6.78814 3.38417 7.10748 3.15845C6.03639 2.36601 4.91358 1.97461 4.85067 1.95311Z" fill="#81B751"/>
<path d="M8.26157 3.86108C8.10319 3.75489 7.89719 3.75489 7.73879 3.86108C7.6851 3.89708 6.73101 4.54733 5.90967 5.56283C6.30639 5.81495 6.69245 6.11695 7.04354 6.47573C7.36398 6.2643 7.58416 6.12514 8.00019 6.12514C8.41485 6.12511 8.63829 6.26542 8.95722 6.47583C9.30832 6.11698 9.69435 5.81498 10.0908 5.56289C9.26947 4.54742 8.31526 3.89708 8.26157 3.86108Z" fill="#81B751"/>
<path d="M13.9574 5.55936C13.8777 5.3538 13.6653 5.23249 13.4479 5.26499C13.3387 5.2822 11.1656 5.64167 9.71924 7.03982C10.1605 7.39579 10.6684 7.86998 11.1188 8.44473C12.1688 8.05935 13.2611 7.78807 14.3753 7.6476L14.4123 7.64298C14.3074 6.49851 13.9776 5.61127 13.9574 5.55936Z" fill="#81B751"/>
<path d="M2.55242 5.26496C2.33589 5.23249 2.12258 5.3538 2.04292 5.55934C2.02273 5.6113 1.69267 6.49911 1.58789 7.64411L1.62864 7.64805C2.74111 7.7883 3.83239 8.05939 4.88176 8.44461C5.33204 7.87001 5.83985 7.39586 6.28135 7.03977C4.83498 5.64171 2.66164 5.28218 2.55242 5.26496Z" fill="#81B751"/>
<path d="M8.24056 7.12892C8.09225 7.04011 7.90821 7.04011 7.7599 7.12892C7.69915 7.16495 6.62365 7.81739 5.76953 8.82573C6.54165 9.16738 7.295 9.55226 8.00025 10.0215C8.70537 9.55226 9.4588 9.16741 10.2311 8.82576C9.37693 7.81729 8.30134 7.16492 8.24056 7.12892Z" fill="#81B751"/>
<path d="M10.304 14.6771C10.0417 13.3826 8.58285 12.2399 8.0001 11.8407C7.40867 12.2454 5.91685 13.4141 5.68567 14.7311C5.63004 15.049 5.66039 15.3545 5.76332 15.6538C6.46695 15.875 7.21748 16 8.0001 16C8.78088 16 9.52979 15.8757 10.2321 15.6554C10.3418 15.3384 10.3727 15.015 10.304 14.6771Z" fill="#81B751"/>
<path d="M1.50764 8.57782C1.38082 8.56132 1.24992 8.59932 1.15057 8.68172C1.05079 8.76366 0.98945 8.8836 0.9812 9.01269C0.812981 11.6761 2.36442 14.0761 4.72838 15.2416C4.71413 15.0197 4.72254 14.795 4.76272 14.5667C5.09329 12.6923 7.20206 11.2316 7.66703 10.9368C5.83428 9.67269 3.72288 8.8571 1.50764 8.57782Z" fill="#81B751"/>
<path d="M15.0187 9.01269C15.0105 8.8836 14.9492 8.76366 14.8493 8.68172C14.75 8.59932 14.6214 8.56132 14.4923 8.57782C12.2775 8.8571 10.1657 9.67263 8.33301 10.9367C8.79179 11.2274 10.8484 12.6526 11.2221 14.488C11.2744 14.7447 11.2799 14.9962 11.2634 15.2452C13.6311 14.0815 15.1872 11.6801 15.0187 9.01269Z" fill="#81B751"/>
</g>
<defs>
<clipPath id="clip0_1225_1">
<rect width="16" height="16" fill="white"/>
</clipPath>
</defs>
</svg>
