<svg width="26" height="26" viewBox="0 0 26 26" fill="none" xmlns="http://www.w3.org/2000/svg">
<path d="M26 13C26 16.4478 24.6304 19.7544 22.1924 22.1924C19.7544 24.6304 16.4478 26 13 26C9.55219 26 6.24558 24.6304 3.80761 22.1924C1.36964 19.7544 0 16.4478 0 13C0 9.55219 1.36964 6.24558 3.80761 3.80761C6.24558 1.36964 9.55219 0 13 0C16.4478 0 19.7544 1.36964 22.1924 3.80761C24.6304 6.24558 26 9.55219 26 13ZM13.8125 7.3125C13.8125 7.09701 13.7269 6.89035 13.5745 6.73798C13.4222 6.5856 13.2155 6.5 13 6.5C12.7845 6.5 12.5778 6.5856 12.4255 6.73798C12.2731 6.89035 12.1875 7.09701 12.1875 7.3125V12.1875H7.3125C7.09701 12.1875 6.89035 12.2731 6.73798 12.4255C6.5856 12.5778 6.5 12.7845 6.5 13C6.5 13.2155 6.5856 13.4222 6.73798 13.5745C6.89035 13.7269 7.09701 13.8125 7.3125 13.8125H12.1875V18.6875C12.1875 18.903 12.2731 19.1097 12.4255 19.262C12.5778 19.4144 12.7845 19.5 13 19.5C13.2155 19.5 13.4222 19.4144 13.5745 19.262C13.7269 19.1097 13.8125 18.903 13.8125 18.6875V13.8125H18.6875C18.903 13.8125 19.1097 13.7269 19.262 13.5745C19.4144 13.4222 19.5 13.2155 19.5 13C19.5 12.7845 19.4144 12.5778 19.262 12.4255C19.1097 12.2731 18.903 12.1875 18.6875 12.1875H13.8125V7.3125Z" fill="#81B751"/>
</svg>
