<svg width="97" height="97" viewBox="0 0 97 97" fill="none" xmlns="http://www.w3.org/2000/svg">
<g clip-path="url(#clip0_1645_839)">
<path d="M48.5512 48.4455C60.7492 48.4455 70.6376 38.5571 70.6376 26.3591C70.6376 14.1611 60.7492 4.27274 48.5512 4.27274C36.3532 4.27274 26.4648 14.1611 26.4648 26.3591C26.4648 38.5571 36.3532 48.4455 48.5512 48.4455Z" stroke="#81B751" stroke-width="5" stroke-linecap="round" stroke-linejoin="round"/>
<path d="M15.1641 92.6182V81.6606C15.1641 75.8483 17.509 70.2741 21.6832 66.1643C25.8573 62.0544 31.5186 59.7455 37.4216 59.7455H59.6792C65.5823 59.7455 71.2436 62.0544 75.4177 66.1643C79.5918 70.2741 81.9368 75.8483 81.9368 81.6606V92.6182" stroke="#81B751" stroke-width="5" stroke-linecap="round" stroke-linejoin="round"/>
</g>
<defs>
<clipPath id="clip0_1645_839">
<rect width="1920" height="1459" fill="white" transform="translate(-1059 -386)"/>
</clipPath>
</defs>
</svg>
