<svg width="73" height="46" viewBox="0 0 73 46" fill="none" xmlns="http://www.w3.org/2000/svg">
<rect width="73" height="46" rx="3" fill="#3056D3"/>
<path fill-rule="evenodd" clip-rule="evenodd" d="M37.9245 14.0001C42.2648 14.0001 45.7834 17.4922 45.7834 21.7997C45.7834 22.1481 45.7133 29.2836 45.7133 29.2836H42.792V22.0164C42.792 21.8703 42.7843 21.7259 42.7714 21.5833V21.5777H42.771C42.5477 19.154 40.4951 17.2552 37.9946 17.2552C35.3453 17.2552 33.1974 19.3869 33.1974 22.0164C33.1974 24.6457 35.3537 26.4025 38.0032 26.4025H39.0002L38.9937 29.2476C38.6296 29.2536 38.3053 29.2425 37.9245 29.2346C33.5851 29.1435 30.0654 26.1071 30.0654 21.7997C30.0654 17.4922 33.5842 14 37.9245 14V14.0001ZM22.6821 14.4686C26.5793 14.8797 29.2455 17.7698 29.2455 21.7994C29.2455 26.107 26.1982 29.1435 21.8589 29.2345C21.4779 29.2424 20.6813 29.2534 20.3172 29.2474L20.3106 26.4023H21.6457C24.1127 26.4023 26.1335 24.4169 26.1133 21.9685C26.0925 19.4549 24.4392 18.2045 23.4354 17.6763C23.0258 17.4608 22.5678 17.3527 22.1043 17.3527H16.906V33.5053H14V17.8858C14 15.9988 15.5416 14.4691 17.4429 14.4691H22.6823L22.6821 14.4686ZM59.0138 14.9375H62L52.7055 34H49.7194L59.0139 14.9375H59.0138ZM52.8049 22.395L51.3125 25.4563L46.1767 14.9372H49.1626L52.8049 22.395Z" fill="white"/>
</svg>
