<svg width="73" height="73" viewBox="0 0 73 73" fill="none" xmlns="http://www.w3.org/2000/svg">
<rect width="73" height="73" rx="24" fill="#5DBDE7"/>
<path d="M16.4058 35.6954C27.0201 30.9737 34.0981 27.8609 37.6395 26.3569C47.751 22.0628 49.8521 21.3168 51.2216 21.2919C51.5228 21.2868 52.1963 21.363 52.6325 21.7244C53.0009 22.0296 53.1022 22.4418 53.1507 22.7312C53.1992 23.0205 53.2596 23.6796 53.2116 24.1947C52.6636 30.073 50.2927 44.3382 49.0865 50.9221C48.5761 53.7079 47.5711 54.642 46.5982 54.7334C44.4837 54.9321 42.8781 53.3067 40.8302 51.9361C37.6256 49.7913 35.8152 48.4561 32.7046 46.3632C29.1098 43.9445 31.4402 42.6151 33.4889 40.4425C34.025 39.8739 43.3412 31.222 43.5215 30.4372C43.5441 30.339 43.565 29.9731 43.3521 29.7799C43.1392 29.5867 42.825 29.6528 42.5982 29.7053C42.2768 29.7798 37.1575 33.2346 27.2401 40.0698C25.787 41.0886 24.4708 41.585 23.2916 41.559C21.9915 41.5303 19.4908 40.8085 17.6317 40.1915C15.3515 39.4347 13.5393 39.0346 13.6971 37.7493C13.7793 37.0799 14.6822 36.3952 16.4058 35.6954Z" fill="white"/>
</svg>
