<svg width="73" height="47" viewBox="0 0 73 47" fill="none" xmlns="http://www.w3.org/2000/svg">
<g id="Visa">
<g id="Visa_2">
<rect id="Rectangle" width="73" height="47" rx="3" fill="#00579F"/>
<g id="Group">
<path id="polygon9" d="M32.8009 31.6298H28.3066L31.1177 15.4214H35.6117L32.8009 31.6298Z" fill="white"/>
<path id="path11" d="M49.0929 15.818C48.2064 15.49 46.8004 15.1279 45.0619 15.1279C40.6237 15.1279 37.4983 17.3349 37.4791 20.4902C37.4423 22.8182 39.7168 24.1113 41.418 24.8875C43.1567 25.6807 43.7478 26.1984 43.7478 26.9054C43.7301 27.9912 42.3428 28.4918 41.0488 28.4918C39.2545 28.4918 38.2931 28.2337 36.832 27.6296L36.2402 27.3706L35.6113 31.0091C36.6654 31.4569 38.6074 31.8543 40.6237 31.8717C45.3394 31.8717 48.4094 29.6988 48.4458 26.3363C48.4637 24.4912 47.2627 23.0774 44.6733 21.9221C43.1014 21.1805 42.1388 20.6805 42.1388 19.9216C42.1572 19.2318 42.953 18.5253 44.7274 18.5253C46.1885 18.4907 47.262 18.8182 48.0752 19.1459L48.4817 19.318L49.0929 15.818Z" fill="white"/>
<path id="path13" d="M55.0667 25.8877C55.4368 24.9566 56.861 21.3527 56.861 21.3527C56.8423 21.3873 57.2303 20.4044 57.4523 19.801L57.7664 21.1976C57.7664 21.1976 58.6174 25.0773 58.8022 25.8877C58.0999 25.8877 55.9543 25.8877 55.0667 25.8877ZM60.6143 15.4214H57.1379C56.0659 15.4214 55.2515 15.7143 54.7889 16.7662L48.1133 31.6295H52.829C52.829 31.6295 53.6053 29.6291 53.7722 29.1982C54.2896 29.1982 58.877 29.1982 59.5425 29.1982C59.6715 29.7672 60.0787 31.6295 60.0787 31.6295H64.24L60.6143 15.4214Z" fill="white"/>
<path id="path15" d="M24.553 15.4214L20.1516 26.474L19.6707 24.2324C18.8569 21.6459 16.3049 18.8357 13.457 17.4384L17.4885 31.6126H22.2411L29.3053 15.4214H24.553Z" fill="white"/>
<path id="path17" d="M16.0646 15.4214H8.83374L8.75977 15.7489C14.4003 17.0939 18.1359 20.3361 19.6707 24.2331L18.0988 16.7839C17.84 15.7487 17.0447 15.4555 16.0646 15.4214Z" fill="#FAA61A"/>
</g>
</g>
</g>
</svg>
