<svg width="73" height="73" viewBox="0 0 73 73" fill="none" xmlns="http://www.w3.org/2000/svg">
<rect width="73" height="73" rx="24" fill="#CD5151"/>
<path fill-rule="evenodd" clip-rule="evenodd" d="M54.3515 21.5047C56.3057 22.0308 57.8466 23.5717 58.3728 25.526C59.3499 29.0963 59.3123 36.5375 59.3123 36.5375C59.3123 36.5375 59.3123 43.9412 58.3728 47.5116C57.8466 49.4658 56.3057 51.0067 54.3515 51.5329C50.7811 52.4724 36.4999 52.4724 36.4999 52.4724C36.4999 52.4724 22.2562 52.4724 18.6484 51.4953C16.6941 50.9691 15.1532 49.4283 14.6271 47.474C13.6875 43.9412 13.6875 36.5 13.6875 36.5C13.6875 36.5 13.6875 29.0963 14.6271 25.526C15.1532 23.5717 16.7317 21.9932 18.6484 21.4671C22.2187 20.5275 36.4999 20.5275 36.4999 20.5275C36.4999 20.5275 50.7811 20.5275 54.3515 21.5047ZM43.8284 36.4999L31.9524 43.3399V29.66L43.8284 36.4999Z" fill="white"/>
</svg>
