<!--
  - Изменено: 20 сентября 2021, понедельник
  - Автор: Артамонов Денис <software.engineer@internet.ru>
  - copyright (c) 2021
  -->

<svg width="23" height="22" viewBox="0 0 23 22" fill="none" xmlns="http://www.w3.org/2000/svg">
    <path d="M19.4214 11.6495L11.5088 20L3.59622 11.6495C3.07432 11.1083 2.66322 10.4578 2.38882 9.73903C2.11442 9.02024 1.98265 8.2487 2.00183 7.47298C2.021 6.69726 2.1907 5.93418 2.50024 5.23178C2.80977 4.52938 3.25243 3.90289 3.80035 3.39174C4.34827 2.8806 4.98958 2.49588 5.68389 2.26181C6.3782 2.02775 7.11047 1.9494 7.83458 2.03171C8.5587 2.11402 9.25898 2.35521 9.89133 2.74008C10.5237 3.12494 11.0744 3.64516 11.5088 4.26797C11.9451 3.64968 12.4964 3.13401 13.1283 2.75323C13.7602 2.37244 14.4591 2.13474 15.1812 2.055C15.9033 1.97527 16.6331 2.0552 17.3248 2.28982C18.0166 2.52443 18.6554 2.90867 19.2014 3.41848C19.7474 3.92829 20.1888 4.55271 20.4979 5.25264C20.807 5.95258 20.9772 6.71297 20.9979 7.48622C21.0185 8.25947 20.8891 9.02894 20.6179 9.74647C20.3466 10.464 19.9393 11.1141 19.4214 11.6562"
          stroke="#81B751" stroke-width="3" stroke-linecap="round" stroke-linejoin="round"/>
</svg>
