<!--
  - Изменено: 09 сентября 2021, четверг
  - Автор: Артамонов Денис <software.engineer@internet.ru>
  - copyright (c) 2021
  -->

<svg width="22" height="23" viewBox="0 0 22 23" fill="none" xmlns="http://www.w3.org/2000/svg">
    <path d="M20.3175 6.39969H16.47V5.31302C16.47 4.1602 15.9295 3.0546 14.9675 2.23943C14.0054 1.42426 12.7006 0.966309 11.34 0.966309C9.97946 0.966309 8.67462 1.42426 7.71256 2.23943C6.7505 3.0546 6.21002 4.1602 6.21002 5.31302V6.39969H2.36252C2.02238 6.39969 1.69617 6.51418 1.45565 6.71797C1.21514 6.92177 1.08002 7.19817 1.08002 7.48637V19.4398C1.08002 20.3044 1.48538 21.1336 2.20692 21.745C2.92847 22.3564 3.9071 22.6998 4.92752 22.6998H17.7525C18.7729 22.6998 19.7516 22.3564 20.4731 21.745C21.1947 21.1336 21.6 20.3044 21.6 19.4398V7.48637C21.6 7.19817 21.4649 6.92177 21.2244 6.71797C20.9839 6.51418 20.6577 6.39969 20.3175 6.39969ZM8.77502 5.31302C8.77502 4.73661 9.04526 4.18381 9.52629 3.77622C10.0073 3.36864 10.6597 3.13966 11.34 3.13966C12.0203 3.13966 12.6727 3.36864 13.1537 3.77622C13.6348 4.18381 13.905 4.73661 13.905 5.31302V6.39969H8.77502V5.31302ZM19.035 19.4398C19.035 19.728 18.8999 20.0044 18.6594 20.2082C18.4189 20.412 18.0927 20.5265 17.7525 20.5265H4.92752C4.58738 20.5265 4.26117 20.412 4.02065 20.2082C3.78014 20.0044 3.64502 19.728 3.64502 19.4398V8.57305H6.21002V9.65972C6.21002 9.94793 6.34514 10.2243 6.58565 10.4281C6.82617 10.6319 7.15238 10.7464 7.49252 10.7464C7.83266 10.7464 8.15887 10.6319 8.39938 10.4281C8.6399 10.2243 8.77502 9.94793 8.77502 9.65972V8.57305H13.905V9.65972C13.905 9.94793 14.0401 10.2243 14.2807 10.4281C14.5212 10.6319 14.8474 10.7464 15.1875 10.7464C15.5277 10.7464 15.8539 10.6319 16.0944 10.4281C16.3349 10.2243 16.47 9.94793 16.47 9.65972V8.57305H19.035V19.4398Z"
          fill="#81B751" stroke="#81B751" stroke-width="0.5"/>
</svg>
